<svg width="480" height="82" viewBox="0 0 480 82" fill="none" xmlns="http://www.w3.org/2000/svg">
<g filter="url(#filter0_b_517_6864)">
<path d="M0 0H480V82H0V0Z" fill="#0E2E29"/>
</g>
<path d="M30.476 54.216C28.388 54.216 26.696 53.832 25.4 53.064C24.128 52.296 23.192 51.252 22.592 49.932C22.016 48.588 21.728 47.088 21.728 45.432C21.728 44.808 21.764 44.184 21.836 43.56C21.908 42.912 22.016 42.252 22.16 41.58L24.968 28.44H31.988L29.18 41.58C29.084 42.036 29.012 42.48 28.964 42.912C28.916 43.32 28.892 43.728 28.892 44.136C28.892 44.88 28.988 45.54 29.18 46.116C29.372 46.692 29.684 47.148 30.116 47.484C30.548 47.82 31.112 47.988 31.808 47.988C32.528 47.988 33.176 47.82 33.752 47.484C34.328 47.124 34.844 46.644 35.3 46.044C35.756 45.42 36.14 44.724 36.452 43.956C36.764 43.188 37.004 42.396 37.172 41.58L39.98 28.44H47L44.192 41.58C43.808 43.356 43.232 45.012 42.464 46.548C41.696 48.084 40.736 49.428 39.584 50.58C38.432 51.732 37.088 52.632 35.552 53.28C34.04 53.904 32.348 54.216 30.476 54.216ZM48.7677 35.064H54.7077L54.0957 37.908C54.9357 36.876 55.8837 36.084 56.9397 35.532C57.9957 34.98 59.1957 34.704 60.5397 34.704C61.8837 34.704 63.0357 35.04 63.9957 35.712C64.9797 36.36 65.7357 37.26 66.2637 38.412C66.7917 39.54 67.0557 40.848 67.0557 42.336C67.0557 43.944 66.7797 45.48 66.2277 46.944C65.6757 48.384 64.9317 49.668 63.9957 50.796C63.0597 51.9 61.9797 52.776 60.7557 53.424C59.5557 54.048 58.3077 54.36 57.0117 54.36C55.7397 54.36 54.6837 54.096 53.8437 53.568C53.0037 53.016 52.4517 52.224 52.1877 51.192L49.9557 61.668H43.1157L48.7677 35.064ZM55.8597 48.6C56.3637 48.6 56.8557 48.468 57.3357 48.204C57.8157 47.916 58.2477 47.532 58.6317 47.052C59.0157 46.572 59.3157 46.02 59.5317 45.396C59.7717 44.772 59.8917 44.124 59.8917 43.452C59.8917 42.852 59.7837 42.336 59.5677 41.904C59.3757 41.448 59.0877 41.1 58.7037 40.86C58.3197 40.596 57.8517 40.464 57.2997 40.464C57.0117 40.464 56.7357 40.512 56.4717 40.608C56.2077 40.68 55.9437 40.8 55.6797 40.968C55.4157 41.112 55.1517 41.304 54.8877 41.544C54.6237 41.784 54.3477 42.072 54.0597 42.408L53.3397 45.684C53.4357 46.236 53.5917 46.74 53.8077 47.196C54.0477 47.628 54.3477 47.976 54.7077 48.24C55.0677 48.48 55.4517 48.6 55.8597 48.6Z" fill="#1EEBCD"/>
<path d="M86.0268 33.228C85.3068 32.412 84.3468 31.752 83.1468 31.248C81.9468 30.744 80.5788 30.492 79.0428 30.492C76.7868 30.492 75.1428 30.924 74.1108 31.788C73.0788 32.628 72.5628 33.78 72.5628 35.244C72.5628 36.012 72.6948 36.648 72.9588 37.152C73.2468 37.632 73.6788 38.052 74.2548 38.412C74.8308 38.772 75.5628 39.084 76.4508 39.348C77.3628 39.612 78.4308 39.876 79.6548 40.14C81.0228 40.428 82.2468 40.752 83.3268 41.112C84.4308 41.472 85.3668 41.928 86.1348 42.48C86.9028 43.008 87.4908 43.656 87.8988 44.424C88.3068 45.192 88.5108 46.152 88.5108 47.304C88.5108 48.48 88.2828 49.5 87.8268 50.364C87.3708 51.228 86.7348 51.948 85.9188 52.524C85.1028 53.1 84.1308 53.532 83.0028 53.82C81.8748 54.084 80.6388 54.216 79.2948 54.216C75.3348 54.216 71.9148 52.98 69.0348 50.508L70.2948 48.456C70.7508 48.936 71.2908 49.392 71.9148 49.824C72.5628 50.256 73.2708 50.64 74.0388 50.976C74.8308 51.288 75.6708 51.54 76.5588 51.732C77.4468 51.9 78.3828 51.984 79.3668 51.984C81.4068 51.984 82.9908 51.624 84.1188 50.904C85.2708 50.16 85.8468 49.044 85.8468 47.556C85.8468 46.764 85.6788 46.104 85.3428 45.576C85.0308 45.024 84.5508 44.556 83.9028 44.172C83.2548 43.764 82.4508 43.416 81.4908 43.128C80.5308 42.84 79.4148 42.552 78.1428 42.264C76.7988 41.952 75.6228 41.628 74.6148 41.292C73.6068 40.956 72.7548 40.536 72.0588 40.032C71.3628 39.528 70.8348 38.928 70.4748 38.232C70.1388 37.512 69.9708 36.636 69.9708 35.604C69.9708 34.428 70.1868 33.384 70.6188 32.472C71.0748 31.536 71.7108 30.768 72.5268 30.168C73.3428 29.544 74.3028 29.076 75.4068 28.764C76.5108 28.428 77.7348 28.26 79.0788 28.26C80.7828 28.26 82.2948 28.524 83.6148 29.052C84.9588 29.556 86.1708 30.276 87.2508 31.212L86.0268 33.228ZM100.55 54.36C99.182 54.36 97.922 54.108 96.77 53.604C95.642 53.076 94.658 52.368 93.818 51.48C92.978 50.568 92.318 49.524 91.838 48.348C91.382 47.172 91.154 45.912 91.154 44.568C91.154 43.248 91.382 42.012 91.838 40.86C92.318 39.684 92.966 38.664 93.782 37.8C94.622 36.912 95.618 36.216 96.77 35.712C97.922 35.184 99.17 34.92 100.514 34.92C101.882 34.92 103.13 35.184 104.258 35.712C105.41 36.216 106.394 36.912 107.21 37.8C108.026 38.688 108.662 39.708 109.118 40.86C109.574 42.012 109.802 43.236 109.802 44.532C109.802 44.724 109.802 44.916 109.802 45.108C109.802 45.3 109.79 45.432 109.766 45.504H93.71C93.782 46.512 94.01 47.448 94.394 48.312C94.802 49.152 95.318 49.884 95.942 50.508C96.566 51.132 97.274 51.624 98.066 51.984C98.882 52.32 99.746 52.488 100.658 52.488C101.258 52.488 101.858 52.404 102.458 52.236C103.058 52.068 103.61 51.84 104.114 51.552C104.618 51.264 105.074 50.916 105.482 50.508C105.89 50.076 106.202 49.608 106.418 49.104L108.542 49.68C108.254 50.376 107.846 51.012 107.318 51.588C106.79 52.14 106.178 52.632 105.482 53.064C104.786 53.472 104.018 53.784 103.178 54C102.338 54.24 101.462 54.36 100.55 54.36ZM107.462 43.632C107.39 42.624 107.15 41.712 106.742 40.896C106.358 40.056 105.854 39.336 105.23 38.736C104.63 38.136 103.922 37.668 103.106 37.332C102.314 36.996 101.462 36.828 100.55 36.828C99.638 36.828 98.774 36.996 97.958 37.332C97.142 37.668 96.422 38.136 95.798 38.736C95.198 39.336 94.706 40.056 94.322 40.896C93.962 41.736 93.746 42.648 93.674 43.632H107.462ZM113.687 27.72H116.135V49.752C116.135 50.448 116.327 51 116.711 51.408C117.095 51.792 117.635 51.984 118.331 51.984C118.595 51.984 118.907 51.948 119.267 51.876C119.627 51.804 119.963 51.708 120.275 51.588L120.707 53.568C120.251 53.76 119.687 53.916 119.015 54.036C118.367 54.156 117.803 54.216 117.323 54.216C116.195 54.216 115.307 53.904 114.659 53.28C114.011 52.632 113.687 51.732 113.687 50.58V27.72ZM123.496 27.72H125.944V49.752C125.944 50.448 126.136 51 126.52 51.408C126.904 51.792 127.444 51.984 128.14 51.984C128.404 51.984 128.716 51.948 129.076 51.876C129.436 51.804 129.772 51.708 130.084 51.588L130.516 53.568C130.06 53.76 129.496 53.916 128.824 54.036C128.176 54.156 127.612 54.216 127.132 54.216C126.004 54.216 125.116 53.904 124.468 53.28C123.82 52.632 123.496 51.732 123.496 50.58V27.72ZM139.424 54.36C137.96 54.36 136.532 54.12 135.14 53.64C133.748 53.16 132.548 52.464 131.54 51.552L132.656 49.896C133.712 50.76 134.78 51.408 135.86 51.84C136.964 52.272 138.14 52.488 139.388 52.488C140.9 52.488 142.1 52.188 142.988 51.588C143.9 50.964 144.356 50.088 144.356 48.96C144.356 48.432 144.236 48 143.996 47.664C143.756 47.304 143.396 46.992 142.916 46.728C142.46 46.464 141.872 46.236 141.152 46.044C140.456 45.828 139.64 45.612 138.704 45.396C137.624 45.132 136.688 44.868 135.896 44.604C135.104 44.34 134.444 44.04 133.916 43.704C133.412 43.368 133.028 42.96 132.764 42.48C132.524 41.976 132.404 41.352 132.404 40.608C132.404 39.672 132.584 38.844 132.944 38.124C133.328 37.404 133.832 36.816 134.456 36.36C135.104 35.88 135.848 35.52 136.688 35.28C137.552 35.04 138.464 34.92 139.424 34.92C140.864 34.92 142.172 35.16 143.348 35.64C144.524 36.096 145.472 36.708 146.192 37.476L145.004 38.916C144.308 38.196 143.456 37.656 142.448 37.296C141.464 36.936 140.432 36.756 139.352 36.756C138.704 36.756 138.104 36.828 137.552 36.972C137 37.092 136.508 37.296 136.076 37.584C135.668 37.872 135.344 38.244 135.104 38.7C134.864 39.132 134.744 39.648 134.744 40.248C134.744 40.752 134.828 41.16 134.996 41.472C135.164 41.784 135.44 42.06 135.824 42.3C136.208 42.516 136.688 42.72 137.264 42.912C137.864 43.08 138.584 43.26 139.424 43.452C140.624 43.74 141.68 44.028 142.592 44.316C143.504 44.604 144.26 44.94 144.86 45.324C145.484 45.708 145.952 46.176 146.264 46.728C146.576 47.28 146.732 47.952 146.732 48.744C146.732 50.472 146.072 51.84 144.752 52.848C143.432 53.856 141.656 54.36 139.424 54.36Z" fill="white"/>
<path d="M460 36L430 36" stroke="#1EEBCD" stroke-width="5" stroke-linecap="round"/>
<path d="M460 49.5H410" stroke="#BDFEF4" stroke-width="5" stroke-linecap="round"/>
<path d="M460 23.5H410" stroke="#BDFEF4" stroke-width="5" stroke-linecap="round"/>
<defs>
<filter id="filter0_b_517_6864" x="-40" y="-40" width="560" height="162" filterUnits="userSpaceOnUse" color-interpolation-filters="sRGB">
<feFlood flood-opacity="0" result="BackgroundImageFix"/>
<feGaussianBlur in="BackgroundImageFix" stdDeviation="20"/>
<feComposite in2="SourceAlpha" operator="in" result="effect1_backgroundBlur_517_6864"/>
<feBlend mode="normal" in="SourceGraphic" in2="effect1_backgroundBlur_517_6864" result="shape"/>
</filter>
</defs>
</svg>
