<svg width="416" height="393" viewBox="0 0 416 393" fill="none" xmlns="http://www.w3.org/2000/svg">
<path d="M339.682 339.79C344.84 342.71 344.84 347.513 339.682 350.432C334.523 353.352 326.117 353.352 320.958 350.432C315.8 347.513 315.8 342.71 320.958 339.79C326.117 336.871 334.523 336.871 339.682 339.79Z" fill="#0F4444"/>
<path d="M145.857 273.584L74.6884 314.174C72.3958 315.492 68.6702 315.492 66.282 314.174C63.9893 312.855 63.9893 310.689 66.282 309.371L137.45 268.781C139.743 267.462 143.468 267.462 145.857 268.781C148.245 270.099 148.245 272.265 145.857 273.584Z" fill="#0F4444"/>
<path d="M200.88 242.223L163.243 263.695C160.95 265.014 157.224 265.014 154.836 263.695C152.544 262.377 152.544 260.211 154.836 258.892L192.474 237.42C194.767 236.101 198.492 236.101 200.88 237.42C203.269 238.738 203.269 240.904 200.88 242.223Z" fill="#0F4444"/>
<path d="M166.968 240.245L95.8002 280.835C93.5076 282.154 89.782 282.154 87.3938 280.835C85.1012 279.517 85.1012 277.351 87.3938 276.032L158.562 235.442C160.854 234.124 164.58 234.124 166.968 235.442C169.356 236.761 169.356 238.927 166.968 240.245Z" fill="#0F4444"/>
<path d="M258.101 188.354L186.933 228.944C184.64 230.262 180.915 230.262 178.527 228.944C176.234 227.626 176.234 225.459 178.527 224.141L249.695 183.551C251.987 182.232 255.713 182.232 258.101 183.551C260.394 184.963 260.394 187.035 258.101 188.354Z" fill="#0F4444"/>
<path d="M298.987 207.66L227.819 248.25C225.526 249.569 221.801 249.569 219.412 248.25C217.12 246.932 217.12 244.766 219.412 243.447L290.58 202.857C292.873 201.539 296.599 201.539 298.987 202.857C301.279 204.175 301.279 206.342 298.987 207.66Z" fill="#0F4444"/>
<path d="M164.58 284.226L143.755 296.092C141.462 297.41 137.737 297.41 135.348 296.092C133.056 294.774 133.056 292.607 135.348 291.289L156.173 279.423C158.466 278.104 162.192 278.104 164.58 279.423C166.873 280.741 166.873 282.907 164.58 284.226Z" fill="#0F4444"/>
<path d="M343.312 182.421L322.487 194.287C320.194 195.605 316.469 195.605 314.08 194.287C311.788 192.968 311.788 190.802 314.08 189.484L334.905 177.618C337.198 176.299 340.924 176.299 343.312 177.618C345.605 178.936 345.605 181.102 343.312 182.421Z" fill="#0F4444"/>
<path d="M181.201 210.862L109.938 251.452C107.645 252.771 103.92 252.771 101.532 251.452C99.2388 250.134 99.2388 247.968 101.532 246.649L172.7 206.059C174.992 204.74 178.718 204.74 181.106 206.059C183.494 207.472 183.494 209.543 181.201 210.862Z" fill="#0F4444"/>
<path d="M225.527 185.623L204.702 197.489C202.409 198.807 198.683 198.807 196.295 197.489C194.003 196.17 194.003 194.004 196.295 192.686L217.12 180.82C219.413 179.501 223.138 179.501 225.527 180.82C227.819 182.232 227.819 184.304 225.527 185.623Z" fill="#0F4444"/>
<path d="M260.489 351.468L189.321 392.058C187.029 393.377 183.303 393.377 180.915 392.058C178.622 390.74 178.622 388.574 180.915 387.255L252.083 346.665C254.376 345.346 258.101 345.346 260.489 346.665C262.782 347.983 262.782 350.149 260.489 351.468Z" fill="#0F4444"/>
<path d="M315.513 320.107L277.875 341.579C275.582 342.898 271.857 342.898 269.469 341.579C267.176 340.261 267.176 338.095 269.469 336.776L307.106 315.304C309.399 313.986 313.125 313.986 315.513 315.304C317.805 316.623 317.805 318.789 315.513 320.107Z" fill="#0F4444"/>
<path d="M281.601 318.13L210.433 358.72C208.14 360.038 204.415 360.038 202.027 358.72C199.734 357.401 199.734 355.235 202.027 353.917L273.195 313.327C275.487 312.008 279.213 312.008 281.601 313.327C283.894 314.645 283.894 316.811 281.601 318.13Z" fill="#0F4444"/>
<path d="M372.639 266.332L301.471 306.922C299.178 308.241 295.452 308.241 293.064 306.922C290.772 305.604 290.772 303.438 293.064 302.119L364.232 261.529C366.525 260.211 370.251 260.211 372.639 261.529C375.027 262.848 375.027 265.014 372.639 266.332Z" fill="#0F4444"/>
<path d="M413.62 285.544L342.452 326.134C340.159 327.453 336.433 327.453 334.045 326.134C331.753 324.816 331.753 322.65 334.045 321.331L405.213 280.741C407.506 279.423 411.231 279.423 413.62 280.741C415.912 282.06 415.912 284.226 413.62 285.544Z" fill="#0F4444"/>
<path d="M279.212 362.11L258.387 373.976C256.094 375.295 252.369 375.295 249.981 373.976C247.688 372.658 247.688 370.492 249.981 369.173L270.806 357.307C273.098 355.989 276.824 355.989 279.212 357.307C281.505 358.626 281.505 360.792 279.212 362.11Z" fill="#0F4444"/>
<path d="M295.835 288.84L224.666 329.431C222.374 330.749 218.648 330.749 216.26 329.431C213.967 328.112 213.967 325.946 216.26 324.628L287.428 284.037C289.721 282.719 293.446 282.719 295.835 284.037C298.127 285.356 298.127 287.522 295.835 288.84Z" fill="#0F4444"/>
<path d="M340.159 263.507L319.334 275.373C317.042 276.692 313.316 276.692 310.928 275.373C308.635 274.055 308.635 271.889 310.928 270.57L331.753 258.704C334.046 257.385 337.771 257.385 340.159 258.704C342.452 260.116 342.452 262.188 340.159 263.507Z" fill="#0F4444"/>
<path d="M211.675 297.881L140.507 338.472C138.214 339.79 134.489 339.79 132.1 338.472C129.808 337.153 129.808 334.987 132.1 333.669L203.268 293.078C205.561 291.76 209.287 291.76 211.675 293.078C213.967 294.397 213.967 296.563 211.675 297.881Z" fill="#0F4444"/>
<path d="M266.698 266.615L229.06 288.087C226.768 289.406 223.042 289.406 220.654 288.087C218.361 286.769 218.361 284.603 220.654 283.284L258.292 261.812C260.585 260.493 264.31 260.493 266.698 261.812C268.991 263.13 268.991 265.296 266.698 266.615Z" fill="#0F4444"/>
<path d="M232.786 264.637L161.523 305.133C159.23 306.452 155.505 306.452 153.116 305.133C150.824 303.815 150.824 301.649 153.116 300.33L224.285 259.74C226.577 258.421 230.303 258.421 232.691 259.74C235.079 261.152 235.079 263.319 232.786 264.637Z" fill="#0F4444"/>
<path d="M323.824 212.746L252.656 253.336C250.364 254.654 246.638 254.654 244.25 253.336C241.957 252.017 241.957 249.851 244.25 248.533L315.418 207.943C317.71 206.624 321.436 206.624 323.824 207.943C326.117 209.261 326.117 211.427 323.824 212.746Z" fill="#0F4444"/>
<path d="M364.71 232.052L293.542 272.642C291.249 273.961 287.524 273.961 285.136 272.642C282.843 271.324 282.843 269.157 285.136 267.839L356.304 227.249C358.596 225.93 362.322 225.93 364.71 227.249C367.003 228.567 367.003 230.733 364.71 232.052Z" fill="#0F4444"/>
<path d="M230.303 308.523L209.478 320.39C207.185 321.708 203.46 321.708 201.072 320.39C198.779 319.071 198.779 316.905 201.072 315.587L221.897 303.72C224.189 302.402 227.915 302.402 230.303 303.72C232.691 305.039 232.691 307.205 230.303 308.523Z" fill="#0F4444"/>
<path d="M409.035 206.718L388.21 218.585C385.917 219.903 382.192 219.903 379.803 218.585C377.511 217.266 377.511 215.1 379.803 213.782L400.629 201.915C402.921 200.597 406.647 200.597 409.035 201.915C411.328 203.328 411.328 205.4 409.035 206.718Z" fill="#0F4444"/>
<path d="M246.924 235.254L175.756 275.844C173.464 277.163 169.738 277.163 167.35 275.844C165.057 274.526 165.057 272.36 167.35 271.041L238.518 230.451C240.811 229.132 244.536 229.132 246.924 230.451C249.217 231.769 249.217 233.935 246.924 235.254Z" fill="#0F4444"/>
<path d="M291.249 210.014L270.424 221.881C268.132 223.199 264.406 223.199 262.018 221.881C259.725 220.562 259.725 218.396 262.018 217.078L282.843 205.211C285.136 203.893 288.861 203.893 291.249 205.211C293.542 206.53 293.542 208.696 291.249 210.014Z" fill="#0F4444"/>
<path d="M77.6497 249.757L10.3027 288.087C8.10558 289.311 4.57106 289.311 2.37392 288.087C0.176791 286.863 0.176791 284.791 2.37392 283.567L69.7209 245.237C71.918 244.012 75.4525 244.012 77.6497 245.237C79.8468 246.461 79.8468 248.533 77.6497 249.757Z" fill="#0F4444"/>
<path d="M129.617 220.091L94.0806 240.339C91.8834 241.564 88.3489 241.564 86.1518 240.339C83.9546 239.115 83.9546 237.043 86.1518 235.819L121.784 215.571C123.981 214.347 127.515 214.347 129.712 215.571C131.814 216.795 131.814 218.867 129.617 220.091Z" fill="#0F4444"/>
<path d="M97.615 218.208L30.268 256.538C28.0709 257.762 24.5364 257.762 22.3393 256.538C20.1421 255.313 20.1421 253.241 22.3393 252.017L89.6862 213.687C91.8833 212.463 95.4178 212.463 97.615 213.687C99.8121 215.006 99.8121 216.983 97.615 218.208Z" fill="#0F4444"/>
<path d="M183.685 169.141L116.338 207.471C114.141 208.696 110.607 208.696 108.41 207.471C106.212 206.247 106.212 204.175 108.41 202.951L175.757 164.621C177.954 163.397 181.488 163.397 183.685 164.621C185.882 165.939 185.882 167.917 183.685 169.141Z" fill="#0F4444"/>
<path d="M222.374 187.412L155.027 225.742C152.83 226.966 149.295 226.966 147.098 225.742C144.901 224.518 144.901 222.446 147.098 221.221L214.445 182.891C216.642 181.667 220.177 181.667 222.374 182.891C224.571 184.116 224.571 186.188 222.374 187.412Z" fill="#0F4444"/>
<path d="M95.3222 259.834L75.6435 271.041C73.4464 272.265 69.9119 272.265 67.7147 271.041C65.5176 269.817 65.5176 267.745 67.7147 266.52L87.3934 255.313C89.5906 254.089 93.1251 254.089 95.3222 255.313C97.5194 256.538 97.5194 258.515 95.3222 259.834Z" fill="#0F4444"/>
<path d="M264.31 163.491L244.632 174.698C242.435 175.922 238.9 175.922 236.703 174.698C234.506 173.474 234.506 171.402 236.703 170.178L256.382 158.97C258.579 157.746 262.113 157.746 264.31 158.97C266.508 160.289 266.508 162.267 264.31 163.491Z" fill="#0F4444"/>
<path d="M110.989 190.426L43.6416 228.85C41.4444 230.074 37.9099 230.074 35.7128 228.85C33.5157 227.625 33.5157 225.554 35.7128 224.329L103.06 185.999C105.257 184.775 108.791 184.775 110.989 185.999C113.186 187.224 113.186 189.201 110.989 190.426Z" fill="#0F4444"/>
<path d="M152.925 166.599L133.247 177.806C131.049 179.03 127.515 179.03 125.318 177.806C123.121 176.582 123.121 174.51 125.318 173.285L144.996 162.078C147.194 160.854 150.728 160.854 152.925 162.078C155.122 163.303 155.122 165.374 152.925 166.599Z" fill="#0F4444"/>
<path d="M389.261 309.465L303.573 358.249C292.969 364.276 275.679 364.276 265.075 358.249L59.9776 241.564C49.374 235.536 49.374 225.742 59.9776 219.62L145.666 170.837C156.269 164.809 173.56 164.809 184.163 170.837L389.261 287.616C399.865 293.643 399.865 303.438 389.261 309.465Z" fill="black" fill-opacity="0.4"/>
<path d="M52.2393 198.148C53.4812 199.749 55.1051 200.879 56.8246 201.915L262.973 319.26C265.361 320.672 267.941 321.614 270.711 322.179C273.386 322.744 276.251 323.027 279.022 323.027C284.658 323.027 290.485 321.897 295.166 319.26L393.273 263.413C396.043 261.812 399.004 259.081 399.769 256.067C399.864 255.596 399.96 255.031 399.96 254.466C399.96 260.776 399.96 262.565 399.96 268.875C399.96 272.83 396.807 276.032 393.273 278.01L295.166 333.857C292.778 335.175 290.198 336.211 287.428 336.777C279.499 338.472 269.947 337.812 262.973 333.857L56.8246 216.513C55.9649 216.042 55.1051 215.477 54.2454 214.817C52.0482 213.028 50.1377 210.109 50.1377 207.283C50.1377 200.973 50.1377 198.996 50.1377 192.686C50.1377 194.569 50.9974 196.547 52.2393 198.148Z" fill="#A9A8C6"/>
<path d="M352.387 291.006C353.055 290.63 353.533 290.63 354.011 290.818C354.488 291.006 354.775 291.571 354.775 292.419V293.455C354.775 294.962 353.724 296.845 352.387 297.599L335.765 307.017C335.096 307.393 334.523 307.393 334.045 307.205C333.568 306.922 333.281 306.451 333.281 305.698V304.662C333.281 303.155 334.332 301.272 335.669 300.518L352.387 291.006Z" fill="#1C1A2A"/>
<path d="M315.609 311.725C317.902 309.371 320.099 310.313 320.099 312.761C320.003 316.34 316.373 319.825 314.463 318.694C314.176 318.506 313.985 318.318 313.794 317.941C313.507 317.376 313.412 316.717 313.508 316.057C313.603 315.304 313.89 314.551 314.176 313.797C314.367 313.515 314.558 313.232 314.654 312.95C314.94 312.479 315.227 312.102 315.609 311.725Z" fill="#1C1A2A"/>
<path d="M56.2515 197.206C57.971 199.184 59.3083 199.749 65.2311 203.139C65.3266 203.234 266.126 317.564 267.176 318.035C270.615 319.636 274.819 320.484 279.117 320.484V322.932C276.251 322.932 273.481 322.65 270.806 322.085C268.036 321.52 265.457 320.578 263.069 319.165L56.8246 201.821C55.1051 200.879 53.4812 199.655 52.2393 198.054C50.9974 196.453 50.2332 194.569 50.1377 192.592C50.1377 192.027 50.1377 191.367 50.3287 190.802C51.093 187.694 54.0543 184.963 56.8246 183.456L154.931 127.61C159.612 124.973 165.344 123.843 171.076 123.843V126.291C168.974 126.291 166.872 126.479 164.771 126.95C160.568 127.798 158.466 129.116 155.314 131C152.066 132.884 162.574 126.762 118.535 151.907C111.371 155.957 104.206 160.195 97.0417 164.244C89.8772 168.294 82.6171 172.344 75.4525 176.487C72.4911 178.183 69.5298 179.972 66.4729 181.667C62.9384 183.645 59.6905 185.34 58.0665 186.658C54.1499 189.484 53.1946 193.533 56.2515 197.206Z" fill="#E1DFEA"/>
<path d="M105.639 237.42L107.359 236.478L89.2084 226.213L87.5845 227.155L105.639 237.42Z" fill="#E1DFEA"/>
<path d="M107.359 238.738V236.478L105.639 237.42V239.68L107.359 238.738Z" fill="#7C7CA0"/>
<path d="M105.639 239.68V237.42L87.5845 227.155V229.415L105.639 239.68Z" fill="#7C7CA0"/>
<path d="M305.005 321.237C305.387 321.049 305.674 320.578 305.674 320.201C305.674 319.825 305.387 319.636 305.005 319.825C304.623 320.013 304.336 320.484 304.336 320.861C304.336 321.332 304.623 321.426 305.005 321.237Z" fill="#1C1A2A"/>
<path d="M387.924 277.445C388.497 277.163 388.879 276.409 388.879 275.844V271.229C388.879 270.664 388.401 270.382 387.924 270.664C387.35 270.947 386.968 271.7 386.968 272.265V276.88C386.873 277.539 387.35 277.728 387.924 277.445Z" fill="#1C1A2A"/>
<path d="M383.911 279.705C384.484 279.423 384.867 278.669 384.867 278.104V273.49C384.867 272.925 384.389 272.642 383.911 272.925C383.338 273.207 382.956 273.961 382.956 274.526V279.14C382.956 279.799 383.434 279.988 383.911 279.705Z" fill="#1C1A2A"/>
<path d="M379.995 281.966C380.568 281.683 380.95 280.93 380.95 280.365V275.75C380.95 275.185 380.472 274.902 379.995 275.185C379.422 275.467 379.04 276.221 379.04 276.786V281.4C379.04 281.966 379.517 282.248 379.995 281.966Z" fill="#1C1A2A"/>
<path d="M376.078 284.226C376.651 283.943 377.033 283.19 377.033 282.625V278.01C377.033 277.445 376.555 277.163 376.078 277.445C375.505 277.728 375.123 278.481 375.123 279.046V283.661C375.123 284.226 375.505 284.508 376.078 284.226Z" fill="#1C1A2A"/>
<path d="M372.161 286.392C372.734 286.109 373.116 285.356 373.116 284.791V280.176C373.116 279.611 372.639 279.329 372.161 279.611C371.588 279.894 371.206 280.647 371.206 281.212V285.827C371.11 286.486 371.588 286.769 372.161 286.392Z" fill="#1C1A2A"/>
<path d="M368.149 288.652C368.722 288.37 369.104 287.616 369.104 287.051V282.436C369.104 281.871 368.627 281.589 368.149 281.871C367.576 282.154 367.194 282.907 367.194 283.472V288.087C367.194 288.746 367.671 289.029 368.149 288.652Z" fill="#1C1A2A"/>
<path d="M393.177 263.318L295.07 319.165C290.39 321.802 284.658 323.027 278.926 322.932V320.484C282.747 320.484 286.473 319.825 289.721 318.506C291.631 317.753 293.064 316.811 294.688 315.869C297.936 313.986 287.428 320.107 331.466 294.962C338.631 290.912 345.796 286.674 352.96 282.625C360.125 278.575 367.385 274.526 374.549 270.382C377.511 268.687 380.472 266.897 383.529 265.202C389.452 261.906 392.222 260.587 394.132 258.045C396.521 254.654 395.947 250.134 390.025 246.649C389.834 246.555 183.685 129.117 182.73 128.646C179.482 127.045 175.279 126.197 170.789 126.197V123.748C173.655 123.748 176.425 124.031 179.1 124.596C181.87 125.161 184.45 126.103 186.838 127.515L392.891 244.86C394.61 245.802 396.234 247.026 397.476 248.627C398.718 250.228 399.578 252.3 399.578 254.278C399.578 254.843 399.482 255.313 399.387 255.879C398.909 259.081 395.948 261.812 393.177 263.318Z" fill="#E1DFEA"/>
<path d="M186.647 130.906C184.258 129.587 182.921 128.74 182.826 128.74C179.578 127.139 175.374 126.291 170.885 126.291C168.783 126.291 166.681 126.48 164.58 126.95C160.377 127.798 158.275 129.117 155.123 131C152.161 132.789 161.045 127.61 126.751 147.104L118.344 151.907C111.18 155.957 104.015 160.195 96.8508 164.245C94.8447 165.375 92.9341 166.505 90.9281 167.541C85.674 170.46 80.5156 173.38 75.2615 176.393C72.3002 178.089 69.3388 179.878 66.2819 181.573C62.7474 183.551 59.4995 185.246 57.8755 186.564C54.1499 189.484 53.1947 193.628 56.2516 197.206C57.971 199.184 59.3084 199.749 65.2311 203.14L152.448 252.771C206.803 283.755 266.603 317.753 267.176 318.035C270.615 319.636 274.819 320.484 279.022 320.484C282.843 320.484 286.569 319.825 289.816 318.506C291.727 317.753 293.16 316.811 294.784 315.869C298.032 313.986 287.524 320.107 331.562 294.962C338.727 290.912 345.891 286.674 353.056 282.625C360.22 278.575 367.48 274.526 374.645 270.382C377.606 268.687 380.568 266.897 383.625 265.202C389.547 261.906 392.318 260.587 394.228 258.045C396.521 254.749 396.139 250.511 390.789 247.12C390.598 246.932 390.311 246.838 390.12 246.743C389.929 246.649 214.827 146.916 186.647 130.906Z" fill="#E1DFEA"/>
<path d="M390.789 247.12C396.138 250.51 396.521 254.748 394.228 258.045C392.413 260.682 389.643 261.906 383.624 265.202C380.663 266.897 377.606 268.592 374.645 270.382C367.48 274.526 360.316 278.481 353.056 282.625C345.891 286.674 338.726 290.912 331.562 294.962C287.428 320.107 297.936 313.986 294.784 315.869C293.064 316.905 291.727 317.753 289.816 318.506C282.938 321.332 273.481 321.143 267.081 318.035C266.125 317.564 91.5966 218.114 65.1354 203.14C59.2127 199.749 57.8753 199.184 56.1558 197.206C53.099 193.533 54.0542 189.484 57.7798 186.564C59.7859 184.963 152.161 132.695 155.027 131C158.179 129.117 160.281 127.892 164.484 126.95C170.98 125.538 177.953 126.48 182.73 128.74C182.921 128.834 177.38 125.632 390.789 247.12Z" fill="url(#paint0_linear_181_2085)"/>
<path d="M122.547 154.733C123.407 154.262 124.84 154.262 125.795 154.733L126.941 155.392L105.066 167.823C104.206 168.294 102.773 168.294 101.818 167.823L100.671 167.164L122.547 154.733Z" fill="#090000"/>
<path d="M125.7 152.472L127.228 153.32C128.088 153.791 128.088 154.638 127.228 155.109L126.942 155.298L125.795 154.638C124.936 154.168 123.503 154.168 122.547 154.638L100.672 167.07L100.385 166.881C99.9074 166.599 99.7163 166.316 99.7163 165.94C99.7163 165.563 99.9074 165.28 100.385 164.998L122.547 152.378C123.407 152.001 124.84 152.001 125.7 152.472Z" fill="#1A2738"/>
<g opacity="0.27">
<path d="M144.806 178.088L100.099 203.516C98.6658 204.364 96.2776 204.364 94.8447 203.516C93.4118 202.669 93.4118 201.35 94.8447 200.503L139.552 175.075C140.985 174.227 143.373 174.227 144.806 175.075C146.334 175.922 146.334 177.335 144.806 178.088Z" fill="white"/>
<path d="M141.844 191.838L110.607 209.638C109.174 210.485 106.785 210.485 105.353 209.638C103.92 208.79 103.92 207.472 105.353 206.624L136.59 188.825C138.023 187.977 140.411 187.977 141.844 188.825C143.277 189.672 143.277 190.991 141.844 191.838Z" fill="white"/>
<path d="M152.352 197.771L121.115 215.571C119.682 216.418 117.294 216.418 115.861 215.571C114.428 214.723 114.428 213.405 115.861 212.557L147.098 194.758C148.531 193.91 150.919 193.91 152.352 194.758C153.785 195.605 153.785 196.924 152.352 197.771Z" fill="white"/>
</g>
<g opacity="0.27">
<path d="M213.585 220.845L168.879 246.273C167.446 247.12 165.057 247.12 163.624 246.273C162.192 245.425 162.192 244.106 163.624 243.259L208.331 217.831C209.764 216.984 212.152 216.984 213.585 217.831C215.018 218.679 215.018 220.091 213.585 220.845Z" fill="white"/>
<path d="M210.528 234.595L179.291 252.394C177.858 253.242 175.47 253.242 174.037 252.394C172.604 251.546 172.604 250.228 174.037 249.38L205.274 231.581C206.707 230.733 209.095 230.733 210.528 231.581C211.961 232.428 211.961 233.747 210.528 234.595Z" fill="white"/>
<path d="M221.036 240.528L189.799 258.327C188.366 259.175 185.978 259.175 184.545 258.327C183.112 257.48 183.112 256.161 184.545 255.314L215.782 237.514C217.215 236.667 219.603 236.667 221.036 237.514C222.469 238.362 222.469 239.68 221.036 240.528Z" fill="white"/>
</g>
<g opacity="0.27">
<path d="M305.101 208.602L260.394 234.029C258.961 234.877 256.573 234.877 255.14 234.029C253.707 233.182 253.707 231.863 255.14 231.016L299.847 205.588C301.28 204.74 303.668 204.74 305.101 205.588C306.534 206.436 306.534 207.754 305.101 208.602Z" fill="white"/>
<path d="M302.044 222.257L270.806 240.057C269.373 240.904 266.985 240.904 265.552 240.057C264.119 239.209 264.119 237.891 265.552 237.043L296.79 219.244C298.223 218.396 300.611 218.396 302.044 219.244C303.477 220.091 303.477 221.504 302.044 222.257Z" fill="white"/>
<path d="M312.552 228.285L281.315 246.084C279.882 246.932 277.493 246.932 276.061 246.084C274.628 245.237 274.628 243.918 276.061 243.071L307.298 225.271C308.731 224.423 311.119 224.423 312.552 225.271C313.985 226.119 313.985 227.437 312.552 228.285Z" fill="white"/>
</g>
<g opacity="0.27">
<path d="M295.453 265.202L250.746 290.63C249.313 291.477 246.925 291.477 245.492 290.63C244.059 289.782 244.059 288.464 245.492 287.616L290.199 262.188C291.631 261.341 294.02 261.341 295.453 262.188C296.885 263.036 296.885 264.449 295.453 265.202Z" fill="white"/>
<path d="M292.491 278.952L261.253 296.657C259.821 297.505 257.432 297.505 255.999 296.657C254.567 295.81 254.567 294.491 255.999 293.643L287.237 275.844C288.67 274.996 291.058 274.996 292.491 275.844C293.924 276.786 293.924 278.104 292.491 278.952Z" fill="white"/>
<path d="M302.999 284.885L271.762 302.684C270.329 303.532 267.941 303.532 266.508 302.684C265.075 301.837 265.075 300.518 266.508 299.671L297.745 281.871C299.178 281.024 301.566 281.024 302.999 281.871C304.432 282.719 304.432 284.037 302.999 284.885Z" fill="white"/>
</g>
<g opacity="0.27">
<path opacity="0.27" d="M232.022 165.563L187.315 190.991C185.882 191.838 183.494 191.838 182.061 190.991C180.628 190.143 180.628 188.825 182.061 187.977L226.768 162.549C228.201 161.702 230.589 161.702 232.022 162.549C233.455 163.397 233.455 164.715 232.022 165.563Z" fill="#717F90"/>
<path opacity="0.27" d="M229.06 179.219L197.823 197.018C196.39 197.866 194.002 197.866 192.569 197.018C191.136 196.17 191.136 194.852 192.569 194.004L223.806 176.205C225.239 175.357 227.627 175.357 229.06 176.205C230.493 177.053 230.493 178.371 229.06 179.219Z" fill="#717F90"/>
<path opacity="0.27" d="M239.569 185.246L208.331 203.045C206.898 203.893 204.51 203.893 203.077 203.045C201.644 202.198 201.644 200.879 203.077 200.032L234.315 182.232C235.748 181.385 238.136 181.385 239.569 182.232C241.002 183.08 241.002 184.398 239.569 185.246Z" fill="#717F90"/>
</g>
<path d="M98.8565 63.9461C98.8565 72.1395 98.8565 80.2387 98.8565 88.4321C98.8565 97.0022 92.7427 107.456 85.2915 111.694C84.2407 112.259 83.1899 112.918 82.1391 113.483L74.5924 131.471L67.0458 122.147C65.995 122.712 64.9442 123.372 63.8934 123.937C63.6068 124.125 63.3202 124.313 62.9381 124.408C59.4991 126.103 56.4422 126.197 54.2451 124.879C54.1495 124.879 54.1495 124.784 54.054 124.784C51.6658 123.372 50.2329 120.358 50.2329 116.214C50.2329 108.021 50.2329 99.9216 50.2329 91.7283C50.2329 83.1582 56.3467 72.7045 63.8934 68.4666C71.0579 64.417 78.2225 60.2732 85.3871 56.2236C89.1126 54.1517 92.4561 53.8692 94.8443 55.1876C94.8443 55.1876 94.9398 55.2818 95.0354 55.2818C97.328 56.6003 98.8565 59.614 98.8565 63.9461Z" fill="#1F825E"/>
<path d="M43.164 118.569C40.6803 117.156 39.1519 114.142 39.1519 109.904C39.1519 101.711 39.1519 93.6118 39.1519 85.4184C39.1519 76.8483 45.2656 66.3947 52.7168 62.1567C59.8813 58.1071 67.0459 53.9634 74.2105 49.9137C77.936 47.7477 81.375 47.5593 83.8588 48.972C87.4888 51.0439 91.1189 53.1158 94.7489 55.1877C92.2652 53.8692 88.9217 54.1517 85.2917 56.2236C78.1271 60.2732 70.9625 64.417 63.798 68.4666C56.2513 72.7045 50.1375 83.064 50.1375 91.6341C50.1375 99.8275 50.1375 107.927 50.1375 116.12C50.1375 120.264 51.5704 123.278 53.9586 124.69C50.3286 122.618 46.7941 120.546 43.164 118.569Z" fill="#36CF98"/>
<path d="M66.9501 122.053L74.4968 131.377L63.5112 125.067L62.938 124.313C63.2246 124.125 63.5112 124.031 63.8933 123.843C64.8485 123.278 65.8993 122.712 66.9501 122.053Z" fill="#1F825E"/>
<path d="M82.1711 80.9442C79.3053 78.4014 73.6692 80.3791 69.5615 85.4647C65.4538 90.4561 64.4985 96.6717 67.4599 99.2145C69.9436 101.381 74.5289 100.156 78.35 96.5776L83.604 101.192C84.1772 101.757 85.4191 101.286 86.2788 100.156C87.1386 99.0262 87.4252 97.8019 86.7565 97.2368L81.5024 92.6221C84.2727 88.0075 84.7504 83.1103 82.1711 80.9442ZM78.8277 93.5639C75.7708 97.4251 71.472 98.932 69.2749 96.9543C67.0778 95.0707 67.842 90.3619 70.8989 86.5006C73.9558 82.6394 78.2545 81.1326 80.4516 83.1103C82.6488 85.088 81.8846 89.7027 78.8277 93.5639Z" fill="#FBFAFC"/>
<path d="M50.7109 156.522L51.8572 158.217C51.9527 158.311 52.1438 158.406 52.3348 158.311L55.0096 157.181C55.5828 156.993 55.7738 157.464 55.3917 158.123L53.4812 161.042C53.2901 161.325 53.2901 161.513 53.2901 161.702L53.7677 164.056C53.8633 164.527 53.2901 165.28 52.8125 165.28L50.4243 165.375C50.2332 165.375 50.0422 165.563 49.7556 165.751L47.3674 168.294C46.8898 168.859 46.3166 168.765 46.4121 168.106L46.8898 165.28C46.8898 165.092 46.8898 164.904 46.6987 164.81L44.7882 164.056C44.406 163.868 44.5971 163.114 45.1703 162.738L47.845 160.854C48.0361 160.666 48.2271 160.477 48.3227 160.195L49.469 157.181C49.7556 156.522 50.5198 156.145 50.7109 156.522Z" fill="#36CF98"/>
<path d="M64.2753 148.799L65.4216 150.495C65.5172 150.589 65.7082 150.683 65.8993 150.589L68.5741 149.459C69.1472 149.27 69.3383 149.741 68.9562 150.4L67.0456 153.32C66.8546 153.602 66.8546 153.791 66.8546 153.979L67.3322 156.334C67.4277 156.804 66.8546 157.558 66.3769 157.558L63.9887 157.652C63.7977 157.652 63.6066 157.84 63.32 158.029L60.9319 160.572C60.4542 161.137 59.881 161.042 59.9766 160.383L60.4542 157.558C60.4542 157.37 60.4542 157.181 60.2632 157.087L58.3526 156.334C57.9705 156.145 58.1616 155.392 58.7347 155.015L61.4095 153.132C61.6005 152.943 61.7916 152.755 61.8871 152.472L63.0335 149.459C63.32 148.894 63.9887 148.517 64.2753 148.799Z" fill="#36CF98"/>
<path d="M77.745 141.171L78.8914 142.866C78.9869 142.961 79.178 143.055 79.369 142.961L82.0438 141.83C82.617 141.642 82.808 142.113 82.4259 142.772L80.5153 145.692C80.3243 145.974 80.3243 146.163 80.3243 146.351L80.8019 148.705C80.8975 149.176 80.3243 149.93 79.8466 149.93L77.4585 150.024C77.2674 150.024 77.0764 150.212 76.7898 150.4L74.4016 152.943C73.9239 153.508 73.3508 153.414 73.4463 152.755L73.9239 149.93C73.9239 149.647 73.9239 149.553 73.7329 149.459L71.8223 148.705C71.4402 148.517 71.6313 147.764 72.2044 147.387L74.8792 145.503C75.0703 145.315 75.2613 145.127 75.3569 144.844L76.5032 141.83C76.7898 141.171 77.4585 140.794 77.745 141.171Z" fill="#36CF98"/>
<path d="M91.2148 133.449L92.3611 135.144C92.4566 135.238 92.6477 135.332 92.8387 135.238L95.5135 134.108C96.0867 133.919 96.2777 134.39 95.8956 135.05L93.9851 137.969C93.794 138.252 93.794 138.44 93.794 138.628L94.2717 140.983C94.3672 141.454 93.794 142.207 93.3164 142.207L90.9282 142.301C90.7371 142.301 90.5461 142.49 90.2595 142.678L87.8713 145.221C87.3937 145.786 86.8205 145.692 86.916 145.032L87.3937 142.207C87.3937 142.019 87.3937 141.83 87.2026 141.736L85.2921 140.983C84.9099 140.794 85.101 140.041 85.6742 139.664L88.3489 137.781C88.54 137.592 88.7311 137.404 88.8266 137.122L89.9729 134.108C90.2595 133.543 90.9282 133.166 91.2148 133.449Z" fill="#36CF98"/>
<path d="M104.684 125.82L105.83 127.515C105.926 127.61 106.117 127.704 106.308 127.61L108.983 126.48C109.556 126.291 109.747 126.762 109.365 127.421L107.454 130.341C107.263 130.623 107.263 130.812 107.263 131L107.741 133.354C107.836 133.825 107.263 134.579 106.786 134.579L104.397 134.673C104.206 134.673 104.015 134.861 103.729 135.05L101.341 137.592C100.863 138.157 100.29 138.063 100.385 137.404L100.863 134.579C100.863 134.39 100.863 134.202 100.672 134.108L98.7613 133.354C98.3792 133.166 98.5702 132.413 99.1434 132.036L101.818 130.152C102.009 129.964 102.2 129.776 102.296 129.493L103.442 126.48C103.729 125.82 104.397 125.444 104.684 125.82Z" fill="#36CF98"/>
<path d="M248.931 22.4141C248.931 29.1949 248.931 35.8814 248.931 42.6622C248.931 49.7254 253.994 58.3897 260.203 61.8742C261.063 62.3451 261.922 62.9102 262.878 63.3811L269.087 78.261L275.296 70.5385C276.156 71.0094 277.016 71.5745 277.971 72.0453C278.258 72.2337 278.449 72.3279 278.735 72.4221C281.506 73.8347 284.085 73.8347 285.9 72.7988C285.995 72.7988 285.995 72.7046 286.091 72.7046C288.001 71.4803 289.243 69.0317 289.243 65.6413C289.243 58.8606 289.243 52.174 289.243 45.3933C289.243 38.33 284.18 29.6657 277.971 26.1812C272.048 22.7908 266.126 19.4005 260.203 16.1043C257.146 14.4091 254.376 14.1266 252.37 15.2567C252.37 15.2567 252.274 15.2567 252.274 15.3509C250.268 16.3868 248.931 18.8354 248.931 22.4141Z" fill="#36CF98"/>
<path d="M295.071 67.5248C297.077 66.3947 298.414 63.8519 298.414 60.3674C298.414 53.5866 298.414 46.9001 298.414 40.1193C298.414 33.0561 293.351 24.3918 287.142 20.9073C281.219 17.5169 275.296 14.1265 269.374 10.8303C266.221 9.04099 263.451 8.85263 261.445 10.0769C258.388 11.7721 255.427 13.4673 252.465 15.2567C254.471 14.1265 257.242 14.4091 260.299 16.1043C266.221 19.4946 272.144 22.885 278.067 26.1812C284.276 29.7599 289.339 38.33 289.339 45.3933C289.339 52.174 289.339 58.8605 289.339 65.6413C289.339 69.1258 288.097 71.5744 286.187 72.7045C289.052 70.9152 292.109 69.22 295.071 67.5248Z" fill="#1F825E"/>
<path d="M275.392 70.4443L269.183 78.1668L278.353 72.9871L278.831 72.3279C278.544 72.2337 278.353 72.0453 278.067 71.9512C277.111 71.4803 276.252 71.0094 275.392 70.4443Z" fill="#1F825E"/>
<path d="M267.654 36.0697C267.463 35.9755 267.272 35.8814 267.176 35.9755L266.699 36.1639L263.833 34.5629C262.686 33.9036 261.827 34.1862 261.636 35.2221L261.349 36.8231L262.877 37.6707L263.069 36.2581C263.164 35.9755 263.451 35.8814 263.833 36.0697L266.985 37.8591C267.176 37.9533 267.367 38.0474 267.463 37.9532L267.94 37.6707L270.329 38.9892L270.806 39.8368C270.902 40.0251 271.093 40.2135 271.284 40.3077L274.436 42.097C274.818 42.2854 275.105 42.7563 275.201 43.133L275.392 44.8282L276.92 45.6758L276.633 43.7922C276.442 42.6621 275.487 41.2494 274.436 40.6844L271.57 39.0834L271.093 38.2358C270.997 38.0474 270.806 37.8591 270.615 37.7649L267.654 36.0697ZM260.203 37.6707C259.821 37.4824 259.438 37.5765 259.438 37.9532V39.4601C259.438 39.8368 259.725 40.4018 260.203 40.5902L260.298 40.6844L261.445 48.1244C261.54 48.8778 262.209 49.7254 262.877 50.1962L275.201 57.1653C275.965 57.542 276.538 57.4479 276.633 56.7886L277.78 50.6671L277.875 50.7613C278.257 50.9497 278.639 50.8555 278.639 50.4788V48.9719C278.639 48.5952 278.353 48.0302 277.875 47.8418L260.203 37.6707ZM272.812 48.5011C273.194 48.6894 273.577 49.2545 273.577 49.6312V53.3041C273.577 53.6808 273.29 53.8691 272.812 53.5866C272.43 53.3983 272.048 52.8332 272.048 52.4565V48.7836C272.048 48.4069 272.43 48.2185 272.812 48.5011ZM269.087 46.335C269.469 46.5233 269.851 47.0884 269.851 47.4651V51.138C269.851 51.5147 269.564 51.7031 269.087 51.4205C268.705 51.2322 268.323 50.6671 268.323 50.2904V46.6175C268.323 46.2408 268.705 46.1466 269.087 46.335ZM265.361 44.2631C265.743 44.4515 266.125 45.0165 266.125 45.3932V49.0661C266.125 49.4428 265.839 49.6312 265.361 49.3487C264.979 49.1603 264.597 48.5952 264.597 48.2185V44.5456C264.692 44.1689 264.979 44.0747 265.361 44.2631Z" fill="#FBFAFC"/>
<path d="M311.788 247.12L264.597 273.96C259.916 276.597 252.369 276.597 247.689 273.96L160.95 224.612C156.269 221.975 156.269 217.643 160.95 215.006L208.14 188.165C212.821 185.528 220.368 185.528 225.049 188.165L311.788 237.514C316.469 240.151 316.469 244.483 311.788 247.12Z" fill="black" fill-opacity="0.2"/>
<path d="M325.83 272.736C324.684 270.758 321.627 269.44 319.335 268.969C316.373 268.404 313.412 268.875 311.31 270.099C309.686 271.041 308.826 272.077 308.826 273.301C308.826 273.772 308.826 274.243 308.826 274.714C308.826 276.315 310.45 277.633 311.883 278.387C313.889 279.517 316.851 280.27 319.812 279.799C322.009 279.517 324.875 278.387 325.83 276.409C326.021 276.032 326.117 275.656 326.117 275.279C326.117 274.808 326.117 274.337 326.117 273.866C326.213 273.678 326.117 273.207 325.83 272.736ZM319.143 267.368L331.18 274.243L332.613 273.395V271.983L329.652 270.288L336.625 271.135L338.44 270.099V268.687L329.365 267.651C329.46 264.825 329.46 265.673 329.46 263.884L327.55 265.014C327.55 266.709 327.55 265.861 327.55 268.969L320.672 265.108L319.239 265.955V267.368H319.143ZM344.172 282.248C335.479 287.899 322.105 288.84 311.883 286.203C306.916 284.885 301.375 282.436 298.223 278.481C294.784 274.149 294.975 269.346 298.223 265.296C306.152 255.408 329.174 252.959 342.93 260.682C345.031 261.906 347.038 263.319 348.47 265.202C353.247 271.324 350.763 277.916 344.172 282.248Z" fill="black" fill-opacity="0.2"/>
<path d="M289.625 270.288C291.154 272.171 293.064 273.678 295.166 274.808C304.623 280.176 318.57 280.741 328.983 277.162C332.995 275.75 337.198 273.49 339.778 270.288C341.306 268.404 342.261 266.238 342.261 263.695C342.261 266.05 342.261 268.404 342.261 270.758C342.261 276.503 337.007 280.741 331.753 283.096C321.723 287.616 307.489 287.616 297.459 283.096C292.205 280.741 286.951 276.503 286.951 270.758C286.951 268.404 286.951 266.05 286.951 263.695C287.046 266.144 288.097 268.404 289.625 270.288Z" fill="#B4AAD1"/>
<path d="M329.842 260.493V261.906L328.027 262.942V261.529L329.842 260.493Z" fill="#18A48F"/>
<path d="M328.027 261.529V262.942L321.054 262.094L320.672 261.812V260.682L328.027 261.529Z" fill="#18A48F"/>
<path d="M324.015 263.789V265.202L322.583 266.05V264.637L324.015 263.789Z" fill="#18A48F"/>
<path d="M322.582 264.637V266.05L310.546 259.175V257.762L322.582 264.637Z" fill="#18A48F"/>
<path d="M324.015 263.789L322.582 264.637L310.546 257.762L311.979 256.914L318.857 260.776C318.857 260.776 318.857 261.058 318.857 256.82L320.767 255.69L320.672 259.457C321.436 259.551 318.093 259.175 329.843 260.493L328.028 261.529L320.672 260.587V261.718C320.672 261.906 320.863 262 324.015 263.789Z" fill="#1EEBCD"/>
<path d="M317.233 264.543C316.086 262.565 313.029 261.247 310.737 260.776C307.775 260.211 304.814 260.682 302.712 261.906C301.088 262.848 300.229 263.884 300.229 265.108C300.229 265.579 300.229 266.05 300.229 266.521C300.229 268.122 301.853 269.44 303.286 270.193C305.292 271.324 308.253 272.077 311.214 271.606C313.411 271.324 316.277 270.193 317.233 268.216C317.424 267.839 317.519 267.462 317.519 267.086C317.519 266.615 317.519 266.144 317.519 265.673C317.615 265.485 317.519 265.014 317.233 264.543ZM310.546 259.175L322.582 266.05L324.015 265.202V263.789L321.054 262.094L328.027 262.942L329.842 261.906V260.493L320.767 259.457C320.863 256.632 320.863 257.48 320.863 255.69L318.952 256.82C318.952 258.516 318.952 257.668 318.952 260.776L312.074 256.914L310.641 257.762V259.175H310.546ZM335.478 274.055C326.785 279.705 313.411 280.647 303.19 278.01C298.223 276.692 292.682 274.243 289.53 270.288C286.091 265.955 286.282 261.152 289.53 257.103C297.458 247.214 320.48 244.766 334.236 252.488C336.338 253.712 338.344 255.125 339.777 257.009C344.649 263.13 342.165 269.628 335.478 274.055Z" fill="#ECE7F2"/>
<path d="M315.513 266.144C315.609 264.825 314.176 263.884 313.125 263.224C309.877 261.341 306.343 261.529 304.146 262.753C302.999 263.413 302.426 264.166 302.426 265.108C302.331 266.332 304.05 267.368 305.101 268.027C308.158 269.723 311.597 269.628 313.889 268.31C314.654 267.839 315.418 267.18 315.513 266.144ZM317.615 265.861C317.615 267.18 316.373 268.404 315.131 269.063C311.692 271.041 306.725 270.853 303.286 268.875C301.853 268.027 300.229 266.803 300.229 265.202C300.229 263.978 301.089 262.942 302.713 262C306.056 260.117 310.833 260.116 314.654 262.283C316.087 263.036 317.615 264.354 317.615 265.861Z" fill="#1EEBCD"/>
<path d="M313.029 264.637C314.271 265.39 315.036 266.05 315.322 266.803C314.558 268.875 309.495 270.664 305.005 268.027C303.668 267.274 302.808 266.521 302.521 265.767C303.286 263.695 308.253 261.812 313.029 264.637Z" fill="#ECE7F2"/>
<path d="M315.513 265.955C315.513 266.238 315.513 266.521 315.418 266.803C315.131 266.05 314.367 265.39 313.125 264.637C308.349 261.906 303.381 263.695 302.522 265.861C302.426 265.673 302.331 265.39 302.331 265.202C302.331 264.26 302.904 263.507 304.05 262.848C306.247 261.623 309.782 261.435 313.03 263.318C314.654 264.072 315.418 265.014 315.513 265.955Z" fill="#18A48F"/>
<path d="M303.381 268.969C306.725 270.853 311.692 271.135 315.227 269.157C316.469 268.498 317.71 267.274 317.71 265.955C317.71 266.426 317.71 266.897 317.71 267.368C317.71 267.745 317.615 268.122 317.424 268.498C316.469 270.476 313.603 271.512 311.406 271.889C308.444 272.265 305.483 271.606 303.477 270.476C302.044 269.628 300.42 268.404 300.42 266.803C300.42 266.332 300.42 265.861 300.42 265.39C300.229 266.897 301.948 268.122 303.381 268.969Z" fill="#18A48F"/>
<path d="M222.278 168.482L249.504 152.19L246.447 150.871L218.839 166.599L222.278 168.482Z" fill="#E1DFEA"/>
<path d="M206.994 159.253L234.315 142.96L231.163 141.642L203.555 157.37L206.994 159.253Z" fill="#E1DFEA"/>
<path d="M182.73 129.964L184.928 145.974L198.684 139.099L182.73 129.964Z" fill="#1F825E"/>
<path d="M176.616 75.2473V120.075C177.858 120.735 204.033 135.615 204.033 135.615L214.254 130.152L215.018 85.5126V65.5471V59.2372V53.3983L176.616 75.2473Z" fill="#1F825E"/>
<path d="M174.801 14.4091C178.909 17.3285 182.539 22.6966 183.781 28.0647C185.5 35.128 187.315 42.1912 189.035 49.1603L193.334 46.7117C191.71 40.1193 190.086 33.527 188.462 26.9346C186.933 20.6247 182.73 14.2207 177.667 10.5478C174.897 8.5701 172.222 6.59238 169.452 4.61467C162.287 -0.659234 150.155 -1.601 142.704 2.73113C136.59 6.21568 130.381 9.70022 124.267 13.2789C118.153 16.7635 111.944 20.248 105.83 23.8267C102.009 25.8986 99.3345 29.5715 99.6211 33.8095C99.8122 37.6707 102.391 41.0611 105.544 43.3214C108.314 45.2991 110.989 47.2768 113.759 49.2545C117.771 52.174 121.401 57.5421 122.739 62.9101C124.936 71.8569 127.133 80.8038 129.426 89.7506H129.617C130.19 89.7506 131.05 89.9389 131.623 90.0331C132.387 90.2214 133.056 90.4098 133.438 90.3156C134.011 90.1273 134.202 89.1855 134.107 88.5263C134.011 88.0554 133.916 87.5845 133.724 87.1136C131.623 78.6377 129.521 70.2559 127.42 61.78C125.891 55.4702 121.688 49.0662 116.625 45.3933C113.855 43.4155 111.18 41.4378 108.41 39.4601C106.021 37.7649 103.92 35.128 104.589 32.3027C104.971 30.4191 106.595 28.8181 108.314 27.8764C114.428 24.3918 120.637 20.9073 126.751 17.3285C132.865 13.844 139.074 10.3595 145.188 6.78074C150.824 3.48455 160.854 4.14378 166.681 8.38174C169.356 10.4536 172.127 12.4313 174.801 14.4091Z" fill="#E1DFEA"/>
<path d="M146.047 86.266C145.092 86.8311 144.137 87.3961 143.182 87.867C143.755 92.5758 144.328 97.2847 144.806 101.899C145.856 102.559 147.003 103.124 148.054 103.783C147.385 98.0381 146.716 92.1991 146.047 86.266Z" fill="#E1DFEA"/>
<path d="M151.684 132.978C150.538 132.318 149.391 131.659 148.34 131.094C149.009 133.825 150.538 136.462 152.448 138.44C152.162 136.556 151.875 134.767 151.684 132.978Z" fill="#E1DFEA"/>
<path d="M159.899 99.6392C156.651 101.429 153.498 103.312 150.25 105.101C152.066 106.137 153.976 107.173 155.791 108.303C157.128 107.55 158.466 106.797 159.899 105.949V99.6392Z" fill="#E1DFEA"/>
<path d="M150.346 123.466C149.868 119.793 149.295 116.026 148.817 112.353C147.958 112.824 147.002 113.389 146.143 113.86C146.525 117.344 147.002 120.735 147.384 124.219C148.531 124.879 149.582 125.444 150.728 126.103C150.632 125.161 150.537 124.313 150.346 123.466Z" fill="#E1DFEA"/>
<path d="M156.651 147.198C156.746 147.763 156.937 148.423 157.32 148.799C157.893 149.364 158.848 149.27 159.708 148.894C164.006 146.539 162.86 147.198 164.962 145.974C161.905 144.279 158.848 142.49 155.791 140.794C156.078 142.866 156.364 145.032 156.651 147.198ZM180.246 151.248V151.625L182.825 153.037C183.016 154.168 183.112 155.203 183.303 156.334C178.24 153.414 173.082 150.495 168.019 147.669C166.872 148.329 165.726 148.988 164.58 149.647C163.815 150.212 160.663 151.813 159.708 152.001C159.517 152.001 159.326 152.096 159.135 152.096C156.173 152.472 153.976 150.589 153.594 147.481C153.212 144.373 152.734 141.359 152.352 138.252C152.066 136.462 151.874 134.673 151.588 132.884C152.734 133.543 153.785 134.108 154.931 134.767C155.027 135.426 155.122 136.086 155.218 136.839C155.6 137.122 155.887 137.404 156.269 137.592C160.185 139.853 164.006 142.019 167.923 144.185C168.496 143.808 169.069 143.526 169.738 143.149C170.789 143.714 171.744 144.279 172.795 144.844C172.222 145.221 171.649 145.503 170.98 145.88C174.132 147.763 177.189 149.459 180.246 151.248Z" fill="#E1DFEA"/>
<path d="M151.779 129.587C152.352 129.776 153.212 129.399 153.689 129.022C153.976 128.834 154.167 128.646 154.167 128.363C154.167 128.269 154.167 128.08 154.072 127.986C153.403 122.807 152.639 117.627 151.97 112.447C150.824 111.788 149.773 111.223 148.626 110.564C148.722 111.129 148.818 111.694 148.818 112.353C149.295 116.026 149.868 119.793 150.346 123.466C150.441 124.313 150.537 125.255 150.728 126.103C150.824 126.95 151.015 127.892 151.11 128.74C151.11 128.74 151.11 128.74 151.11 128.834C151.206 129.116 151.397 129.493 151.779 129.587Z" fill="#E1DFEA"/>
<path d="M159.899 116.968V131.377C165.44 134.579 170.98 137.687 176.616 140.889V126.48C171.076 123.278 165.535 120.075 159.899 116.968Z" fill="#36CF98"/>
<path d="M159.899 106.043V110.658C165.44 113.86 170.98 116.968 176.616 120.17V75.2473L159.899 65.7355V72.0453V78.3552V99.6391V106.043Z" fill="#36CF98"/>
<path d="M159.899 65.7354L176.616 75.2473L215.018 53.3983L198.397 43.8864L193.429 46.7117L189.035 49.1603L159.899 65.7354Z" fill="#36CF98"/>
<path d="M161.81 65.7355L198.397 45.0165L213.108 53.3983L176.616 74.1172L161.81 65.7355Z" fill="#36CF98"/>
<path d="M164.961 224.518C166.203 223.858 167.445 223.105 168.591 222.446C169.165 222.163 169.642 221.598 169.929 221.033C170.884 219.432 170.789 217.172 170.311 215.382C168.974 214.629 167.636 213.876 166.203 213.028L166.299 216.607C167.541 220.562 166.776 223.388 164.961 224.518Z" fill="#1A293B"/>
<path d="M152.83 212.086C152.83 216.324 155.696 221.504 159.421 223.858C161.619 225.271 163.625 225.365 164.962 224.518C166.777 223.387 167.541 220.562 166.395 216.701L166.49 219.62L165.917 219.997L153.308 212.84L153.212 209.638C152.926 210.391 152.83 211.239 152.83 212.086Z" fill="#3F4F5D"/>
<path d="M167.159 209.167C167.637 208.602 168.496 208.037 169.165 208.037C169.356 208.037 169.547 208.131 169.738 208.225C165.535 205.871 161.332 203.422 157.129 201.068C156.747 200.879 156.173 200.879 155.791 201.068C155.696 201.068 155.6 201.162 155.505 201.162C154.263 201.821 153.021 203.704 153.021 205.305V205.588L153.117 209.543L153.212 212.745L165.822 219.903L165.726 212.463C165.726 211.333 166.395 210.014 167.159 209.167Z" fill="#1F825E"/>
<path d="M169.261 208.037C168.497 208.037 167.732 208.602 167.255 209.167C166.49 210.014 165.822 211.333 165.822 212.557L165.917 219.997L166.49 219.62L166.395 216.701L166.299 213.122V211.71C166.395 211.333 166.395 211.144 166.586 210.674C166.968 209.826 167.637 208.978 168.497 208.696C169.07 208.508 169.356 208.696 169.452 208.696C169.834 208.884 170.12 209.073 170.503 209.261C170.503 208.884 170.312 208.602 170.12 208.319C170.025 208.225 169.929 208.131 169.834 208.037C169.643 208.131 169.452 208.037 169.261 208.037Z" fill="#9B346C"/>
<path d="M176.616 126.479V140.889C177.858 141.548 179.004 142.301 180.246 142.96V134.296C179.96 132.224 179.673 130.247 179.387 128.175C178.527 127.515 177.571 126.95 176.616 126.479Z" fill="#1F825E"/>
<path d="M180.247 134.202V142.866C180.629 143.149 181.106 143.337 181.488 143.62C181.106 140.512 180.724 137.31 180.247 134.202Z" fill="#1F825E"/>
<path d="M201.835 181.856V185.152L214.445 192.309V184.775C213.299 184.022 212.535 182.703 212.63 180.914C212.63 179.595 212.63 178.371 212.63 177.053C210.433 175.828 208.236 174.51 205.943 173.285C205.561 173.097 204.988 173.097 204.606 173.285C204.51 173.285 204.415 173.38 204.319 173.38C203.077 173.945 201.835 175.922 201.835 177.523V177.9V181.856Z" fill="#1F825E"/>
<path d="M188.175 166.316C188.939 167.07 190.277 166.599 191.232 166.128C192.665 165.28 194.48 164.339 195.817 163.491C192.76 161.796 189.704 160.006 186.647 158.311C186.933 160.477 187.22 162.549 187.506 164.715C187.506 165.28 187.698 165.94 188.175 166.316ZM202.218 163.679C205.657 165.657 209.191 167.635 212.63 169.613C212.63 170.743 212.63 171.873 212.63 173.097C208.045 170.46 203.46 167.823 198.874 165.28C196.868 166.41 194.767 167.635 192.76 168.765C188.748 171.119 185.023 169.236 184.545 165.186C184.163 162.267 183.781 159.347 183.399 156.522C183.208 155.392 183.112 154.356 182.921 153.226C182.826 152.378 182.73 151.436 182.539 150.589C183.685 151.248 184.736 151.813 185.883 152.472C185.978 153.32 186.074 154.262 186.265 155.109L201.931 164.056L202.218 163.679Z" fill="#E1DFEA"/>
<path d="M217.215 194.852C217.788 194.569 218.171 194.098 218.457 193.533C219.508 191.932 219.317 189.484 218.935 187.694C217.597 186.941 216.26 186.188 215.018 185.434V189.107C216.165 192.968 215.4 195.888 213.49 196.924C214.732 196.265 215.973 195.511 217.215 194.852Z" fill="#1A293B"/>
<path d="M215.018 185.058C214.827 184.963 214.636 184.869 214.445 184.775V192.309L215.018 192.027V189.107V185.434V185.058Z" fill="#9B346C"/>
<path d="M215.018 192.027L214.445 192.309L201.836 185.152V181.855C201.549 182.609 201.358 183.551 201.358 184.398C201.358 188.636 204.224 193.816 207.949 196.17C210.146 197.583 212.057 197.677 213.394 196.924C215.305 195.888 216.069 192.968 214.923 189.107V192.027H215.018Z" fill="#3F4F5D"/>
<path d="M218.553 180.537C217.598 179.972 216.642 179.407 215.687 178.842C215.687 179.501 215.687 180.254 215.687 180.914C215.687 180.914 215.687 180.914 215.687 181.008C215.687 181.196 215.687 181.385 215.783 181.667C216.26 181.102 216.833 180.631 217.502 180.443C217.789 180.349 218.171 180.349 218.553 180.537Z" fill="#1F825E"/>
<path d="M218.266 181.102C217.98 180.914 217.693 180.914 217.407 181.008C216.833 181.196 216.26 181.573 215.974 182.044L216.069 182.138C216.165 182.232 216.26 182.326 216.547 182.326C217.215 182.421 218.075 181.95 218.744 181.667C218.839 181.573 218.935 181.573 219.031 181.479C218.648 181.385 218.457 181.29 218.266 181.102Z" fill="#E1DFEA"/>
<path d="M218.17 242.411C218.17 240.81 219.412 238.832 220.654 238.267C220.75 238.267 220.845 238.173 220.941 238.173C204.128 228.567 187.315 219.055 170.598 209.449C170.216 209.261 169.929 209.073 169.547 208.884C169.356 208.79 169.165 208.696 168.592 208.884C167.732 209.167 167.063 210.109 166.681 210.862C166.49 211.239 166.49 211.427 166.395 211.898V213.311C167.732 214.064 169.069 214.817 170.502 215.665C186.455 224.706 202.408 233.841 218.362 242.882L218.17 242.411Z" fill="#E1DFEA"/>
<path d="M212.535 180.914C212.535 179.595 212.535 178.371 212.535 177.053C212.535 175.734 212.535 174.321 212.535 173.003C212.535 171.873 212.535 170.743 212.535 169.518C212.535 168.859 212.535 168.2 212.535 167.541C213.585 168.106 214.541 168.671 215.592 169.236C215.592 169.895 215.592 170.554 215.592 171.214C219.126 173.191 222.661 175.263 226.195 177.241C226.768 176.864 227.341 176.582 228.01 176.205C229.156 176.77 230.398 177.241 231.736 177.523C230.876 177.994 230.112 178.465 229.252 178.936C233.742 181.479 238.327 184.116 242.817 186.659C243.772 187.224 245.11 187.6 245.874 186.847C246.256 186.47 246.447 185.811 246.542 185.246C246.733 183.457 247.02 181.761 247.307 179.972C247.593 177.618 247.975 175.263 248.262 172.909C249.408 172.25 250.459 171.684 251.605 171.025C251.223 173.945 250.841 176.864 250.459 179.689C250.172 181.667 249.886 183.645 249.695 185.623C249.122 189.766 245.396 191.462 241.479 189.201C236.417 186.376 231.449 183.457 226.386 180.631C224.953 181.479 223.52 182.232 222.087 183.08C221.514 183.457 220.846 183.739 220.272 184.116C218.266 185.246 216.547 185.434 215.209 184.869C215.018 184.775 214.827 184.681 214.636 184.587C213.299 184.116 212.535 182.703 212.535 180.914ZM219.126 181.385C220.463 180.631 221.801 179.878 223.138 179.124C220.655 177.712 218.075 176.299 215.592 174.792C215.592 176.111 215.592 177.523 215.592 178.842C215.592 179.501 215.592 180.255 215.592 180.914C215.592 180.914 215.592 180.914 215.592 181.008C215.592 181.196 215.592 181.385 215.687 181.667C215.687 181.856 215.783 181.95 215.878 182.044L215.974 182.138C216.069 182.232 216.165 182.326 216.451 182.326C217.12 182.421 217.98 181.95 218.648 181.667C218.744 181.573 218.839 181.573 218.935 181.479C218.935 181.479 219.031 181.385 219.126 181.385Z" fill="#E1DFEA"/>
<path d="M215.878 182.044C216.26 181.573 216.738 181.102 217.311 181.008C217.597 180.914 217.979 180.914 218.17 181.102C218.361 181.196 218.648 181.385 218.839 181.479C218.935 181.385 219.03 181.385 219.126 181.29C219.03 180.914 218.839 180.631 218.553 180.443C218.266 180.254 217.884 180.254 217.502 180.349C216.833 180.537 216.164 181.102 215.782 181.573C215.687 181.855 215.782 181.95 215.878 182.044Z" fill="#9B346C"/>
<path d="M220.75 68.8433C220.177 73.6463 216.833 105.855 216.26 110.658L219.031 112.353C219.413 108.68 223.234 74.1172 223.616 70.4443C222.661 69.8792 221.705 69.3141 220.75 68.8433Z" fill="#E1DFEA"/>
<path d="M230.207 261.812C231.449 261.058 232.691 260.399 233.933 259.646C235.461 258.798 236.034 256.914 236.034 255.125C236.034 253.712 235.748 252.394 235.27 251.076C234.028 250.981 232.691 250.699 231.353 250.134L231.449 253.053C231.927 254.372 232.309 255.973 232.309 257.385C232.309 259.646 231.449 261.058 230.207 261.812Z" fill="#1A293B"/>
<path d="M218.266 247.779C217.406 252.394 220.941 259.08 225.526 261.529C226.386 262 227.246 262.282 228.201 262.282C228.87 262.282 229.538 262.094 230.112 261.812C231.353 261.152 232.213 259.646 232.213 257.291C232.213 255.878 231.831 254.277 231.353 252.959L231.449 256.632L230.876 257.009L218.266 249.851V247.779Z" fill="#3F4F5D"/>
<path d="M231.353 250.134C232.691 250.699 234.028 251.075 235.27 251.075C240.142 251.358 243.868 247.591 243.772 241.564C243.772 241.469 243.772 241.375 243.772 241.187C243.772 235.254 240.237 228.379 235.652 224.423C214.063 205.494 192.378 186.564 170.789 167.729C166.968 164.433 164.484 158.97 164.484 155.015C164.484 153.226 164.484 151.436 164.484 149.647C163.72 150.212 160.568 151.813 159.612 152.001C159.421 152.001 159.23 152.096 159.039 152.096C159.039 153.037 159.039 153.979 159.039 155.015C159.039 160.571 162.191 167.446 167.159 171.779C188.748 190.708 210.433 209.638 232.022 228.473C235.748 231.675 238.327 237.137 238.327 241.187C238.327 241.281 238.327 241.469 238.327 241.564C238.327 243.165 237.945 245.236 236.321 245.613C236.034 245.707 235.652 245.707 235.27 245.707C234.888 245.707 234.41 245.519 234.124 245.425C232.595 246.084 231.64 247.214 231.353 248.533C231.258 248.721 231.258 249.004 231.258 249.192L231.353 250.134Z" fill="#E1DFEA"/>
<path d="M235.366 245.707C235.27 245.519 235.079 245.331 234.888 245.237C234.792 245.237 234.792 245.142 234.697 245.142C234.315 245.048 233.837 245.142 233.455 245.237C232.786 245.519 232.309 246.084 231.831 246.649C231.258 247.497 230.78 248.533 230.78 249.569L230.876 257.009L231.449 256.632L231.353 252.959L231.258 250.04V249.192C231.258 249.004 231.258 248.721 231.353 248.533C231.64 247.214 232.595 246.084 234.124 245.425C234.601 245.613 234.984 245.707 235.366 245.707Z" fill="#9B346C"/>
<path d="M234.697 245.142C234.793 245.142 234.888 245.237 234.888 245.237C230.685 242.882 226.482 240.434 222.279 238.079C221.896 237.891 221.323 237.891 220.941 238.079C220.846 238.079 220.75 238.173 220.655 238.173C219.413 238.833 218.171 240.716 218.171 242.317V242.6L218.266 247.685V249.757L230.876 256.914L230.781 249.475C230.781 248.439 231.258 247.403 231.831 246.555C232.213 245.99 232.787 245.425 233.455 245.142C233.837 245.142 234.315 244.954 234.697 245.142Z" fill="#1F825E"/>
<path d="M249.217 108.303C249.121 108.115 249.026 107.927 249.026 107.738C249.122 107.267 249.121 106.796 249.217 106.326C247.88 105.572 220.654 91.2573 219.317 90.5039V94.6477L243.581 108.021C245.109 108.021 248.357 108.68 249.886 108.868V108.68C249.695 108.586 249.408 108.492 249.217 108.303Z" fill="#E1DFEA"/>
<path d="M249.982 108.774C252.37 109.057 254.663 109.622 256.764 110.564C255.236 109.716 253.612 108.774 252.084 107.927V108.021C252.084 108.021 252.084 108.115 251.988 108.115C251.892 108.209 251.797 108.209 251.701 108.303C251.224 108.492 250.555 108.68 250.077 108.68L249.982 108.774Z" fill="#E1DFEA"/>
<path d="M252.083 107.927C252.847 101.24 253.611 94.6477 254.375 87.9611C253.42 87.3961 252.465 86.831 251.51 86.3601C250.745 93.0467 249.981 99.639 249.217 106.326C249.121 106.796 249.121 107.267 249.026 107.738C249.026 107.927 249.026 108.115 249.217 108.303C249.408 108.492 249.695 108.68 249.981 108.68C250.554 108.68 251.223 108.492 251.605 108.303C251.701 108.303 251.796 108.209 251.892 108.115C251.987 108.115 251.987 108.021 251.987 108.021C252.083 107.927 252.083 107.927 252.083 107.927Z" fill="#E1DFEA"/>
<path d="M264.597 155.486C264.597 156.145 264.597 156.71 264.597 157.369C265.457 156.899 266.412 156.334 267.272 155.863C267.367 155.203 267.463 154.45 267.559 153.791C266.603 154.356 265.648 154.921 264.597 155.486Z" fill="#E1DFEA"/>
<path d="M266.89 214.629C266.89 213.028 268.132 211.145 269.374 210.485C269.469 210.485 269.565 210.391 269.66 210.391C253.803 201.35 237.85 192.309 221.992 183.268C221.419 183.645 220.75 183.927 220.177 184.304C218.171 185.434 216.452 185.623 215.114 185.058V185.434C216.452 186.188 217.789 186.941 219.031 187.694C234.984 196.83 250.937 205.871 266.986 215.006V214.629H266.89Z" fill="#E1DFEA"/>
<path d="M274.628 145.315C274.15 147.104 272.813 149.553 270.902 151.436C270.807 152.284 270.711 153.132 270.52 154.073C271.857 153.32 273.29 152.472 274.628 151.719C275.87 150.118 277.016 148.046 277.493 146.068C278.544 142.019 279.5 138.063 280.55 134.014C279.309 134.673 278.067 135.426 276.92 136.086C276.252 139.099 275.487 142.207 274.628 145.315Z" fill="#E1DFEA"/>
<path d="M282.556 231.958C284.085 231.11 284.658 229.226 284.658 227.437C284.658 226.401 284.467 225.459 284.18 224.423C284.085 224.047 283.989 223.67 283.798 223.293C282.556 223.199 281.315 222.917 279.977 222.352V225.365C280.455 226.684 280.837 228.191 280.837 229.603C280.837 231.958 279.977 233.37 278.735 234.124C280.073 233.464 281.315 232.711 282.556 231.958Z" fill="#1A293B"/>
<path d="M266.89 220.091C266.03 224.706 269.565 231.487 274.246 233.841C275.105 234.218 275.965 234.595 276.921 234.595C277.589 234.595 278.258 234.406 278.831 234.124C280.073 233.464 280.933 231.958 280.933 229.603C280.933 228.191 280.646 226.684 280.073 225.365V229.038L279.5 229.321L266.89 222.163V220.091Z" fill="#3F4F5D"/>
<path d="M251.128 174.604C259.534 181.95 272.431 193.345 280.837 200.785C284.563 203.987 287.142 209.449 287.142 213.499C287.142 213.593 287.142 213.781 287.142 213.876C287.142 215.477 286.76 217.549 285.136 217.925C284.849 218.019 284.467 218.019 284.085 218.019C283.703 218.019 283.225 217.831 282.843 217.737C281.888 218.114 281.124 218.773 280.646 219.62C280.359 220.185 280.073 220.845 280.073 221.504V222.446C281.41 223.011 282.652 223.387 283.894 223.387C283.989 223.387 284.18 223.387 284.276 223.387C289.052 223.482 292.587 219.809 292.587 213.876C292.587 213.781 292.587 213.687 292.587 213.499C292.587 207.472 288.957 200.691 284.467 196.735C277.971 190.991 271.38 185.34 264.884 179.595C263.355 180.254 261.445 180.066 259.534 178.936C258.866 178.559 253.612 170.648 252.943 170.272L251.606 171.119C250.937 171.496 251.797 174.416 251.128 174.604Z" fill="#E1DFEA"/>
<path d="M281.315 126.103C281.792 126.009 282.27 125.914 282.556 125.726C282.652 125.726 282.748 125.632 282.843 125.538V125.444C284.371 119.228 285.995 113.012 287.524 106.891C286.569 106.326 285.709 105.855 284.754 105.384C283.225 111.6 281.601 117.721 280.073 123.937C279.977 124.313 279.882 124.69 279.786 125.067C279.691 125.444 279.882 126.009 280.455 126.103C280.741 126.103 281.028 126.103 281.315 126.103Z" fill="#E1DFEA"/>
<path d="M282.557 125.726C282.27 125.82 281.792 126.009 281.315 126.103C281.028 126.103 280.742 126.197 280.55 126.103C279.882 126.009 279.691 125.444 279.882 125.067C279.977 124.69 280.073 124.313 280.168 123.937C273.864 120.358 267.463 116.685 261.158 113.106C263.547 114.99 221.61 89.2797 221.514 91.6341C221.514 92.2933 220.846 95.1186 220.846 95.7779C225.336 98.3206 273.768 126.668 278.258 129.211C280.073 128.175 281.983 127.139 283.798 126.009C283.512 125.82 283.225 125.726 282.939 125.538V125.632C282.748 125.632 282.652 125.726 282.557 125.726Z" fill="#E1DFEA"/>
<path d="M282.174 217.549C281.506 217.831 281.028 218.302 280.55 218.961C279.977 219.809 279.5 220.845 279.5 221.786V229.415L280.073 229.132V225.459V222.446V221.504C280.073 220.845 280.359 220.185 280.646 219.62C281.123 218.773 281.888 218.208 282.843 217.737C283.225 217.831 283.607 217.925 284.085 218.019C283.989 217.831 283.798 217.643 283.607 217.549C283.512 217.549 283.512 217.454 283.416 217.454C282.939 217.266 282.556 217.36 282.174 217.549Z" fill="#9B346C"/>
<path d="M283.607 217.549C279.404 215.194 275.201 212.746 270.998 210.391C270.616 210.203 270.043 210.203 269.66 210.391C269.565 210.391 269.469 210.485 269.374 210.485C268.132 211.05 266.89 213.028 266.89 214.629V215.006V220.186V222.257L279.5 229.415V221.787C279.5 220.751 279.977 219.809 280.551 218.961C280.933 218.396 281.506 217.831 282.175 217.549C282.557 217.36 283.034 217.266 283.416 217.454C283.416 217.454 283.512 217.454 283.607 217.549Z" fill="#1F825E"/>
<path d="M283.703 132.224C284.849 132.884 285.9 133.449 286.951 134.108C287.142 132.789 287.333 131.377 287.524 130.058C286.282 130.717 284.945 131.471 283.703 132.224Z" fill="#E1DFEA"/>
<path d="M283.798 223.387C283.894 223.764 284.085 224.141 284.181 224.518V223.387C284.085 223.387 283.989 223.387 283.798 223.387Z" fill="#9B346C"/>
<path d="M285.995 146.727C286.664 147.104 287.619 147.481 288.097 146.822C288.193 146.727 288.288 146.539 288.288 146.351V146.257C288.384 145.409 288.575 144.467 288.67 143.62C289.052 140.983 289.434 138.346 289.721 135.615C290.008 133.637 290.294 131.659 290.485 129.776C290.581 129.211 290.676 128.646 290.676 128.08C289.53 128.74 288.479 129.305 287.333 129.964C287.142 131.282 286.951 132.695 286.76 134.014C286.282 137.875 285.709 141.642 285.231 145.503C285.231 145.692 285.231 145.786 285.136 145.974C285.136 146.162 285.231 146.257 285.422 146.351C285.709 146.539 285.9 146.633 285.995 146.727Z" fill="#E1DFEA"/>
<path d="M237.85 81.0862C235.462 82.4989 232.978 83.8174 230.59 85.23C230.59 83.5348 230.59 81.8397 230.59 80.0503C233.074 80.3328 235.462 80.7095 237.85 81.0862Z" fill="#1F825E"/>
<path d="M230.494 90.7865C230.685 90.6923 230.876 90.5039 231.067 90.5039C231.163 90.4098 231.64 90.5039 231.927 90.7865C232.214 91.1632 232.214 91.8224 232.118 92.1991C231.64 91.6341 230.876 90.9748 230.494 90.7865Z" fill="#A23042"/>
<path d="M228.775 75.9065C229.825 78.2609 230.399 79.4852 230.59 80.0503C230.59 81.7455 230.59 83.5348 230.59 85.23C229.825 85.7009 229.061 86.0776 228.297 86.5485C228.679 79.1085 228.679 78.5434 228.775 75.9065Z" fill="#36CF98"/>
<path d="M230.303 94.4593C229.921 94.5535 229.539 94.3651 229.348 93.9884C229.539 93.9884 229.635 93.8942 229.73 93.8C230.017 93.9884 230.112 94.1768 230.303 94.4593Z" fill="#A23042"/>
<path d="M229.348 93.9885C229.252 93.8943 229.157 93.6118 229.157 93.3292C229.252 93.4234 229.539 93.6118 229.73 93.8001C229.634 93.8943 229.539 93.8943 229.348 93.9885Z" fill="#A23042"/>
<path d="M229.061 91.3515C230.017 89.5622 232.118 88.6204 232.883 90.5039C233.169 91.1632 232.978 92.1991 232.691 92.9525C232.5 92.67 232.405 92.4816 232.214 92.2933C232.405 91.4457 232.214 90.5981 231.259 90.5981C231.259 90.5981 231.163 90.5981 231.067 90.5981C230.876 90.5981 230.685 90.6923 230.494 90.8806C230.208 91.069 229.826 91.4457 229.539 92.0108C229.252 92.5758 229.157 92.9525 229.157 93.4234C229.157 94.271 229.73 94.6477 230.208 94.5535C230.303 94.7419 230.303 94.7419 230.59 95.3069C228.679 96.1545 227.724 93.9885 229.061 91.3515Z" fill="#EF4F25"/>
<path d="M228.775 75.9065C228.68 78.5434 228.584 79.2027 228.297 86.4543C218.458 92.0107 208.714 97.5672 198.875 103.218C198.397 102.088 197.155 99.3565 197.06 99.074C194.672 98.6973 192.188 98.4148 189.8 98.0381C202.792 90.6923 215.783 83.2523 228.775 75.9065Z" fill="#1F825E"/>
<path d="M228.488 93.706C228.488 94.3652 228.679 95.0245 229.252 95.307C228.966 95.1186 228.584 95.0245 228.297 94.8361C228.201 94.7419 228.01 94.6477 227.915 94.5536C227.055 93.5176 227.533 91.9166 228.201 90.7865C228.584 90.2214 228.966 89.6564 229.634 89.2797C230.112 88.9971 230.685 88.903 231.163 89.1855C231.449 89.2797 231.736 89.468 232.023 89.6564C231.354 89.3738 229.921 89.8447 229.061 91.4457C228.679 92.105 228.393 92.9526 228.488 93.706Z" fill="#FA7800"/>
<path d="M212.152 101.146C212.439 101.146 212.726 101.24 212.917 101.428C213.203 101.805 213.203 102.37 213.108 102.841C212.917 102.653 212.726 102.37 212.534 102.182C212.057 101.711 212.343 102.088 212.152 101.428C212.248 101.428 212.248 101.24 212.152 101.146Z" fill="#A23042"/>
<path d="M212.535 102.276C212.248 102.088 211.866 101.617 211.58 101.428C211.771 101.334 211.962 101.146 212.248 101.146C212.344 101.428 212.535 101.993 212.535 102.276Z" fill="#A23042"/>
<path d="M211.58 101.428C212.439 101.899 213.108 102.559 213.681 103.406L213.777 103.5C216.165 106.702 217.311 113.671 220.082 115.367C220.75 115.743 221.323 115.743 221.992 115.649C222.756 115.461 223.329 115.178 223.903 114.896C223.998 114.896 225.049 114.237 225.527 113.766C232.214 108.586 233.264 96.3429 229.252 93.3293C229.252 92.4817 229.73 91.4457 230.398 90.8807C230.59 90.6923 230.494 90.7865 230.59 90.7865C236.226 94.1769 235.939 108.68 227.628 115.649C225.431 117.439 222.279 119.134 219.604 118.192C214.159 116.497 213.777 106.514 210.242 103.877C210.242 102.935 210.815 101.899 211.58 101.428Z" fill="#F7B23B"/>
<path d="M211.389 105.101C211.102 105.195 210.625 105.007 210.434 104.63C210.625 104.63 210.72 104.63 210.911 104.442C210.816 104.442 211.389 105.007 211.389 105.101Z" fill="#A23042"/>
<path d="M210.815 104.442C210.624 104.536 210.529 104.536 210.338 104.63C210.242 104.442 210.242 104.254 210.242 103.971C210.529 104.16 210.72 104.348 210.815 104.442Z" fill="#A23042"/>
<path d="M240.333 80.6154C214.35 95.4011 207.281 99.4507 198.206 104.63L200.689 157.181L242.817 133.166L240.333 80.6154ZM229.73 113.577C228.297 115.272 227.15 116.214 225.431 117.25C225.335 117.25 223.807 118.286 221.896 118.474C215.401 119.134 214.35 109.904 211.866 105.855C211.484 106.043 210.911 106.231 210.433 106.043C210.338 106.043 210.338 106.043 210.242 105.949C210.147 105.855 209.764 105.666 209.287 105.478C208.714 105.196 208.427 104.63 208.523 103.877C208.618 102.276 209.191 101.052 210.529 100.11C211.102 99.7333 211.675 99.5449 212.344 99.8274C212.63 100.016 213.012 100.11 213.299 100.298C214.35 100.675 214.254 102.37 213.777 103.5C215.592 105.855 216.738 110.469 218.362 113.483C219.413 115.272 220.559 116.12 222.47 115.461C224.094 114.99 226.768 113.201 228.583 110.375C231.831 105.29 232.309 98.6031 230.685 95.2128C229.634 95.6837 229.348 95.3069 228.297 94.8361C228.201 94.7419 228.01 94.6477 227.915 94.5535C227.055 93.5176 227.533 91.9166 228.201 90.7865C228.583 90.2214 228.965 89.6563 229.634 89.2796C230.112 88.9971 230.685 88.9029 231.163 89.1854C231.449 89.2796 231.736 89.468 232.022 89.6563C232.404 89.8447 232.691 90.2214 232.787 90.5981C233.073 91.2573 232.882 92.2933 232.596 93.0467C232.596 93.0467 232.691 93.1409 232.691 93.2351C235.843 98.0381 234.506 107.927 229.73 113.577Z" fill="#1F825E"/>
<path d="M212.153 100.204C212.726 100.11 213.203 100.204 213.586 100.487C214.254 101.146 214.159 102.559 213.777 103.5C213.681 103.406 213.777 103.406 213.299 102.841C213.394 102.37 213.394 101.711 213.108 101.428C212.917 101.24 212.63 101.146 212.344 101.146C212.057 101.146 211.77 101.334 211.484 101.523C210.433 102.464 210.242 103.971 210.529 104.536C210.72 104.913 211.197 105.101 211.484 105.007C211.579 105.101 211.675 105.29 211.962 105.761C210.338 106.608 209.191 105.29 209.669 103.406C210.051 101.617 211.293 100.487 212.153 100.204Z" fill="#EF4F25"/>
<path d="M210.911 100.958C210.147 101.711 209.765 102.464 209.573 103.5C209.478 103.971 209.382 104.442 209.573 104.913C209.669 105.29 209.956 105.761 210.338 105.949C210.242 105.855 209.86 105.666 209.382 105.478C208.809 105.196 208.523 104.63 208.618 103.877C208.714 102.276 209.287 101.052 210.624 100.11C211.197 99.7333 211.771 99.5449 212.439 99.8274C212.726 100.016 213.108 100.11 213.395 100.298C213.108 100.11 212.63 100.11 212.344 100.204C211.675 100.393 211.293 100.675 210.911 100.958Z" fill="#FA7800"/>
<path d="M198.206 104.63L200.69 157.181L196.009 150.777V99.639L198.206 104.63Z" fill="#36CF98"/>
<path d="M196.009 99.6391L187.316 98.4148L229.444 74.3997L231.641 79.391L240.334 80.6153C214.35 95.4011 207.281 99.4507 198.206 104.63L196.009 99.6391ZM189.8 98.038C192.188 98.4148 194.672 98.6973 197.06 99.074C197.155 99.2623 198.397 102.088 198.875 103.218C205.753 99.2623 233.551 83.5348 237.85 81.0862C235.462 80.7095 232.978 80.427 230.59 80.0503C230.399 79.5794 230.017 78.7318 228.775 75.9065C215.783 83.2523 202.791 90.6923 189.8 98.038Z" fill="#36CF98"/>
<path d="M196.009 99.6391V150.777L184.832 148.14L187.316 98.4148L196.009 99.6391Z" fill="#1F825E"/>
<path d="M203.364 100.392C202.409 100.958 202.409 100.958 202.409 100.958C202.696 100.016 203.078 99.5448 203.364 100.392Z" fill="#D64A78"/>
<path d="M201.645 128.646C201.645 128.74 201.645 128.834 201.549 128.834C201.454 128.928 201.263 129.022 201.072 129.022C194.098 127.986 194.576 128.081 194.48 127.986C194.385 127.986 194.289 127.892 194.289 127.798C194.003 126.574 193.62 122.336 193.525 121.111C193.143 115.367 193.143 109.245 194.194 103.5C194.385 102.464 194.862 100.11 195.34 99.074C195.531 98.6973 195.818 98.4148 196.2 98.509C203.364 99.6391 202.887 99.4507 203.078 99.6391C203.269 99.8275 203.364 100.11 203.46 100.393H203.364C202.982 99.1682 202.504 100.581 202.122 101.805C201.645 103.689 201.263 106.231 201.072 108.209C200.021 118.004 201.549 128.928 201.645 128.646Z" fill="#FBC959"/>
<path d="M265.361 108.492V116.12L261.349 112.259L265.361 108.492Z" fill="#8140FF"/>
<path d="M263.356 109.151C263.069 109.434 260.299 112.07 260.013 112.353C260.013 113.389 260.013 114.425 260.013 115.555C246.257 115.555 232.596 115.555 218.84 115.555C218.84 114.519 218.84 113.483 218.84 112.353C217.694 111.317 216.643 110.281 215.497 109.151C231.545 109.151 247.498 109.151 263.356 109.151Z" fill="#5F26CF"/>
<path d="M263.356 115.461C262.209 115.461 261.159 115.461 260.012 115.461C260.012 114.425 260.012 113.389 260.012 112.259C261.159 113.389 262.305 114.425 263.356 115.461Z" fill="#8140FF"/>
<path d="M253.229 122.43C253.229 122.147 253.229 121.959 253.229 121.771C253.229 120.641 253.325 120.546 253.134 120.264C253.038 120.075 252.943 119.981 252.847 119.887C254.185 120.452 254.185 121.771 253.229 122.43Z" fill="#E95950"/>
<path d="M249.217 121.206C249.217 119.793 251.032 118.38 253.038 119.04C254.185 119.416 254.853 120.264 254.853 121.206C254.853 122.242 253.994 122.995 253.229 123.372C253.229 123.372 253.325 122.712 253.325 122.43C253.516 122.242 253.707 122.053 253.898 121.771C254.471 120.452 252.752 119.228 251.319 119.793C250.077 120.358 249.982 121.582 250.841 122.336C250.841 122.43 250.841 122.995 250.746 123.277C249.886 122.901 249.217 122.147 249.217 121.206Z" fill="#F5B538"/>
<path d="M250.841 119.134C249.982 119.51 249.313 120.358 249.313 121.206C249.313 121.017 249.313 120.829 249.313 120.641C249.313 120.17 249.504 119.51 250.268 118.851C251.319 118.098 252.943 118.004 253.994 118.851C254.567 119.228 254.854 119.887 254.854 120.546C254.854 120.735 254.854 120.923 254.854 121.206C254.758 119.322 252.465 118.38 250.841 119.134Z" fill="#F8E150"/>
<path d="M213.681 116.12C213.681 153.791 213.681 141.454 213.681 162.172H265.362C265.362 148.705 265.362 136.839 265.362 116.12C250.364 116.12 241.002 116.12 213.681 116.12ZM254.854 121.206C254.854 122.241 253.994 122.995 253.23 123.372C252.943 128.175 251.606 133.449 247.88 136.462C245.014 138.722 241.289 139.287 237.659 138.628C230.494 137.121 228.106 130.529 227.628 123.277C226.864 122.995 226.004 122.147 226.004 121.111C226.004 120.923 226.004 120.735 226.004 120.452C226.004 119.793 226.386 119.134 226.959 118.757C227.915 118.004 229.73 117.909 230.781 118.757C231.354 119.134 231.64 119.887 231.64 120.452V121.111C231.64 122.053 230.972 122.807 230.112 123.183C230.112 123.842 230.303 125.914 230.781 127.892C231.545 131.377 233.455 134.861 236.99 135.897C239.187 136.651 242.435 136.651 244.823 135.52C248.358 133.825 249.791 129.87 250.459 126.009C250.459 125.914 250.746 124.031 250.746 123.277C249.886 122.901 249.313 122.147 249.313 121.206C249.313 120.923 249.313 120.829 249.313 120.546C249.313 120.075 249.504 119.416 250.268 118.757C251.319 118.004 252.943 117.909 253.994 118.757C254.567 119.134 254.854 119.793 254.854 120.452C254.854 120.829 254.854 121.017 254.854 121.206Z" fill="#0C4E5C"/>
<path d="M230.016 120.546C230.016 120.17 229.825 119.887 229.634 119.699C230.112 119.887 230.685 120.546 230.685 121.111C230.685 121.488 230.494 121.959 230.112 122.242C230.016 122.147 230.016 120.64 230.016 120.546Z" fill="#E95950"/>
<path d="M250.841 121.771C250.841 121.676 250.841 121.676 250.841 121.771C250.841 121.676 250.841 121.771 250.841 121.771C250.746 122.242 250.746 121.865 250.841 121.771ZM227.533 121.676C227.533 120.546 227.437 120.452 227.628 120.17C227.724 119.981 227.819 119.887 227.915 119.793C228.392 119.51 229.061 119.51 229.634 119.793C229.921 119.981 230.016 120.264 230.016 120.641C230.016 123.183 230.112 125.444 230.685 127.986C231.831 132.884 234.602 136.368 239.665 136.556C244.919 136.839 249.026 134.202 250.364 126.103C250.364 126.009 250.65 124.502 250.65 123.466C250.65 123.372 250.746 122.807 250.746 122.524C250.364 122.242 250.173 121.771 250.173 121.394C250.173 120.452 251.415 119.51 252.752 119.981C252.847 119.981 252.847 119.981 252.943 120.075C253.039 120.17 253.134 120.264 253.23 120.452C253.325 120.735 253.325 120.829 253.325 121.959C253.325 124.408 252.847 127.986 251.988 130.435C250.364 135.332 246.925 138.628 241.671 139.005C231.545 139.664 227.533 131.471 227.533 121.676Z" fill="#F7B23B"/>
<path d="M227.914 119.793C227.628 119.981 227.532 120.264 227.532 120.546C227.532 121.111 227.532 121.771 227.532 122.336C226.673 121.677 226.673 120.358 227.914 119.793Z" fill="#E95950"/>
<path d="M226.004 121.111C226.004 120.075 226.769 119.228 227.819 118.945C229.921 118.286 231.545 119.793 231.545 121.111C231.545 122.053 230.876 122.807 230.017 123.183C230.017 122.995 230.017 122.807 230.017 122.524C230.017 122.053 229.921 122.336 230.208 121.959C230.399 121.676 230.59 121.3 230.59 121.017C230.59 120.452 230.017 119.793 229.539 119.605C228.202 118.945 226.387 120.17 226.96 121.488C227.055 121.771 227.246 121.959 227.533 122.147C227.533 122.807 227.533 122.995 227.533 123.089C226.769 122.901 226.004 122.147 226.004 121.111Z" fill="#F5B538"/>
<path d="M226.004 120.546C226.004 119.887 226.387 119.228 226.96 118.851C227.533 118.474 228.202 118.286 228.87 118.286C230.59 118.286 231.641 119.51 231.641 120.641V121.3C231.641 120.452 230.972 119.605 230.112 119.228C228.488 118.474 226.1 119.416 226.004 121.3C226.004 120.923 226.004 120.735 226.004 120.546Z" fill="#F8E150"/>
<path d="M218.935 112.259C218.935 113.295 218.935 114.331 218.935 115.461C217.789 115.461 216.738 115.461 215.592 115.461C219.222 111.976 218.553 112.73 218.935 112.259Z" fill="#8140FF"/>
<path d="M217.693 112.259L213.681 116.12V108.492L217.693 112.259Z" fill="#1F7082"/>
<path d="M215.592 115.461C240.333 115.461 249.217 115.461 263.356 115.461C262.209 114.425 261.158 113.389 260.012 112.259C260.299 111.976 263.069 109.339 263.356 109.057C247.402 109.057 231.449 109.057 215.592 109.057C216.738 110.093 217.789 111.129 218.935 112.259C218.458 112.73 219.317 111.976 215.592 115.461ZM213.681 116.12L217.693 112.353L213.681 108.586H265.362L261.349 112.353L265.362 116.12C246.829 116.12 232.405 116.12 213.681 116.12Z" fill="#339CB4"/>
<path d="M182.539 147.104C183.112 147.293 183.972 146.916 184.45 146.539C184.641 146.445 184.927 146.162 184.927 145.974C184.927 145.786 184.927 145.692 184.832 145.503C184.163 140.323 183.399 135.144 182.73 129.964C181.584 129.305 180.533 128.74 179.387 128.08C179.673 130.152 179.96 132.13 180.246 134.202C180.629 137.31 181.106 140.512 181.488 143.62C181.584 144.561 181.775 145.409 181.87 146.351C181.966 146.633 182.157 147.01 182.539 147.104Z" fill="#E1DFEA"/>
<path d="M215.687 163.491C215.687 163.303 215.687 163.208 215.687 163.02C215.687 160.666 215.687 158.405 215.687 156.051C215.687 153.602 215.687 151.154 215.687 148.705C214.636 148.14 213.681 147.575 212.63 147.01C212.63 150.589 212.63 154.262 212.63 157.84C212.63 158.97 212.63 160.195 212.63 161.325C212.63 162.078 212.63 162.926 212.63 163.679C212.63 163.868 212.63 163.962 212.725 164.15C213.012 164.715 213.585 164.715 214.158 164.527C214.636 164.433 215.687 163.962 215.687 163.491Z" fill="#E1DFEA"/>
<path d="M284.849 105.29C285.805 105.761 286.664 106.326 287.62 106.797C291.918 109.245 296.217 111.694 300.516 114.142C300.898 114.331 301.184 114.613 301.471 114.896C301.662 115.084 301.662 115.178 301.662 115.178C301.662 115.178 301.662 115.178 301.662 115.272C301.567 115.461 301.376 115.743 301.184 115.838C300.993 116.026 300.802 116.12 300.516 116.308C294.88 119.51 289.339 122.712 283.703 125.82C281.888 126.856 279.977 127.892 278.162 129.022C273.673 131.565 269.183 134.108 264.693 136.745C256.478 141.454 248.167 146.162 239.951 150.777C237.563 152.19 233.073 152.19 230.59 150.777C229.348 150.118 228.106 149.365 226.864 148.705C218.553 143.996 210.242 139.193 201.836 134.485C194.671 130.435 187.411 126.291 180.247 122.242C179.005 121.582 177.858 120.829 176.617 120.17C171.076 116.968 165.535 113.86 159.899 110.658C158.562 109.904 157.224 109.151 155.792 108.303C153.977 107.267 152.066 106.231 150.251 105.101C149.487 104.63 148.722 104.254 148.054 103.783C147.003 103.124 145.857 102.559 144.806 101.899C141.08 99.7333 137.259 97.5672 133.534 95.4953C133.151 95.307 132.865 95.0244 132.578 94.7419C132.387 94.5536 132.387 94.4594 132.387 94.4594C132.387 94.4594 132.387 94.4594 132.387 94.3652C132.483 94.1769 132.674 93.8943 132.865 93.8002C133.056 93.6118 133.247 93.5176 133.534 93.3293C136.782 91.5399 139.934 89.6564 143.182 87.867C144.137 87.302 145.092 86.7369 146.048 86.266C150.729 83.629 155.314 80.9921 159.995 78.3551V72.0453C151.206 77.0367 142.418 82.028 133.629 87.0194C133.725 87.4903 133.82 87.9612 134.011 88.4321C134.202 89.0913 133.916 90.0331 133.343 90.2214C132.96 90.3156 132.387 90.1273 131.528 89.9389C130.954 89.8447 130.095 89.6564 129.521 89.6564H129.33C127.897 90.8807 126.847 92.5759 126.847 94.4594C126.847 97.0022 128.566 99.0741 130.763 100.298C135.444 102.935 140.125 105.666 144.806 108.303C146.143 109.057 147.385 109.81 148.722 110.469C149.869 111.129 150.92 111.694 152.066 112.353C154.741 113.86 157.416 115.367 160.09 116.873C165.631 120.075 171.171 123.183 176.808 126.385C177.763 126.95 178.718 127.421 179.578 127.986C180.724 128.646 181.775 129.211 182.921 129.87C189.322 133.449 195.627 137.122 202.027 140.7C205.657 142.772 209.191 144.844 212.821 146.822C213.872 147.387 214.828 147.952 215.878 148.517C218.075 149.741 220.177 150.966 222.374 152.19C223.903 153.037 225.527 153.979 227.055 154.827C227.342 155.015 227.628 155.203 228.01 155.392C232.214 157.84 238.805 157.746 242.913 155.392C245.778 153.791 248.644 152.096 251.51 150.495C252.656 149.835 253.707 149.27 254.854 148.611C258.197 146.728 261.541 144.844 264.884 142.866C266.508 141.925 268.132 141.077 269.756 140.135C270.902 139.476 271.953 138.911 273.099 138.252C274.532 137.404 275.965 136.651 277.398 135.803C278.64 135.144 279.786 134.39 281.028 133.731C281.983 133.166 283.034 132.601 284.085 132.036C285.327 131.283 286.664 130.529 287.906 129.87C289.052 129.211 290.103 128.646 291.25 127.986C295.357 125.632 299.465 123.278 303.668 120.923C305.865 119.699 307.585 117.627 307.585 115.084C307.585 112.636 305.961 110.469 303.668 109.245C274.246 92.4817 244.823 75.8124 215.496 59.0489V65.3587C217.407 66.4889 219.317 67.5248 221.228 68.5608C222.183 69.1258 223.138 69.6909 224.094 70.1618C233.36 75.4357 242.722 80.8037 251.988 86.0777C252.943 86.6427 253.898 87.2078 254.854 87.6787C264.502 93.706 274.628 99.5449 284.849 105.29Z" fill="#E1DFEA"/>
<path d="M288.193 146.916C287.715 147.575 286.76 147.198 286.091 146.822C285.995 146.727 285.804 146.633 285.709 146.539C285.518 146.351 285.422 146.257 285.422 146.162C285.422 145.974 285.422 145.88 285.518 145.692C281.983 147.669 278.449 149.741 274.914 151.719C273.577 152.472 272.144 153.32 270.807 154.073C270.711 155.015 270.52 155.863 270.424 156.804C270.424 156.993 270.329 157.181 270.233 157.275C269.756 157.935 268.801 157.558 268.132 157.181C268.036 157.087 267.845 156.993 267.75 156.899C267.559 156.71 267.463 156.616 267.463 156.428C267.463 156.239 267.463 156.145 267.559 155.957C266.699 156.428 265.744 156.993 264.884 157.464C260.872 159.818 256.764 162.078 252.752 164.339C252.656 165.186 252.465 166.128 252.37 166.976V167.07C252.37 167.258 252.274 167.352 252.179 167.541C251.701 168.2 250.746 167.823 250.077 167.446C249.886 167.258 249.408 166.976 249.408 166.693C249.408 166.599 249.408 166.41 249.504 166.316C246.447 168.106 243.295 169.801 240.238 171.59C237.85 173.003 233.36 173.003 230.876 171.59C229.634 170.931 228.392 170.178 227.151 169.518C223.425 167.352 219.699 165.28 215.974 163.114C215.974 163.303 215.974 163.397 215.974 163.585C215.974 164.056 215.019 164.527 214.541 164.715C213.968 164.904 213.299 164.809 213.108 164.339C213.012 164.244 213.012 164.056 213.012 163.868C213.012 163.114 213.012 162.267 213.012 161.513C211.962 160.948 210.911 160.383 209.956 159.724C207.376 158.217 204.797 156.804 202.218 155.392C196.582 152.19 190.85 148.988 185.214 145.692C185.214 145.88 185.214 145.974 185.309 146.162C185.309 146.351 185.023 146.633 184.832 146.728C184.354 147.104 183.494 147.481 182.921 147.293C182.539 147.198 182.348 146.822 182.253 146.539C182.157 145.597 181.966 144.75 181.87 143.808C181.488 143.525 181.011 143.337 180.629 143.055C179.387 142.395 178.24 141.642 176.999 140.983C171.458 137.781 165.917 134.673 160.281 131.471C158.371 130.341 156.365 129.211 154.358 128.08C154.358 128.175 154.358 128.363 154.454 128.457C154.454 128.646 154.263 128.928 153.976 129.116C153.499 129.493 152.639 129.87 152.066 129.681C151.684 129.587 151.493 129.305 151.397 128.928C151.397 128.928 151.397 128.928 151.397 128.834C151.302 127.986 151.206 127.045 151.015 126.197C149.869 125.538 148.818 124.973 147.672 124.313C145.092 122.807 142.418 121.3 139.838 119.887C139.456 119.699 139.17 119.416 138.883 119.134C138.692 118.945 138.692 118.851 138.692 118.851C138.692 118.851 138.692 118.851 138.692 118.757C138.787 118.569 138.979 118.286 139.17 118.192C139.361 118.004 139.552 117.909 139.838 117.721C142.035 116.497 144.233 115.178 146.43 113.954C147.289 113.483 148.245 112.918 149.104 112.447C149.009 111.882 148.913 111.317 148.913 110.658C147.576 109.904 146.334 109.151 144.997 108.492C142.322 109.999 139.743 111.505 137.068 113.012C134.871 114.236 133.151 116.308 133.151 118.851C133.151 121.3 134.871 123.466 137.068 124.69C140.889 126.856 144.71 129.022 148.531 131.188C149.678 131.848 150.824 132.507 151.875 133.072C153.021 133.731 154.072 134.296 155.218 134.955C160.186 137.781 165.058 140.606 170.025 143.337C171.076 143.902 172.031 144.467 173.082 145.032C175.566 146.445 178.049 147.858 180.533 149.27C181.297 149.647 181.966 150.118 182.73 150.495C183.877 151.154 184.927 151.719 186.074 152.378C191.423 155.392 196.773 158.5 202.122 161.513C202.791 161.89 203.555 162.361 204.224 162.738C207.09 164.339 209.956 166.034 212.821 167.635C213.872 168.2 214.827 168.765 215.878 169.33C219.89 171.59 223.903 173.945 228.01 176.205C228.106 176.205 228.201 176.299 228.201 176.299C229.348 176.864 230.59 177.335 231.927 177.618C232.787 177.806 233.646 177.9 234.506 177.9C237.467 178.088 240.524 177.429 242.817 176.111C244.632 175.075 246.543 174.039 248.358 172.909C249.504 172.249 250.555 171.684 251.701 171.025C256.095 168.577 260.394 166.034 264.788 163.585C265.362 163.208 265.935 162.926 266.603 162.549C267.75 161.89 268.801 161.325 269.947 160.666C274.914 157.84 279.786 155.015 284.754 152.284C285.9 151.625 286.951 151.06 288.097 150.4C291.25 148.611 294.306 146.822 297.459 145.032C299.656 143.808 301.375 141.736 301.375 139.193C301.375 136.745 299.751 134.579 297.459 133.354C295.262 132.13 293.065 130.906 290.963 129.681C290.676 131.659 290.39 133.637 290.199 135.52C291.727 136.368 293.256 137.216 294.784 138.157C295.166 138.346 295.453 138.628 295.739 138.911C295.93 139.099 295.93 139.193 295.93 139.193C295.93 139.193 295.93 139.193 295.93 139.288C295.835 139.476 295.644 139.758 295.453 139.853C295.262 140.041 295.071 140.135 294.784 140.323C292.873 141.359 291.058 142.49 289.148 143.525C289.052 144.373 288.861 145.315 288.766 146.162V146.257C288.288 146.633 288.288 146.728 288.193 146.916Z" fill="#E1DFEA"/>
<path d="M249.79 167.352C250.459 167.729 251.414 168.106 251.892 167.446C251.987 167.352 252.083 167.164 252.083 166.976V166.881C252.178 166.034 252.369 165.092 252.465 164.244C253.134 159.065 253.898 153.885 254.566 148.705C253.42 149.364 252.369 149.929 251.223 150.589C250.554 155.768 249.79 160.948 249.121 166.128C249.121 166.222 249.121 166.41 249.026 166.505C249.121 166.976 249.504 167.258 249.79 167.352Z" fill="#E1DFEA"/>
<path d="M267.272 156.334C267.272 156.522 267.368 156.616 267.559 156.804C267.654 156.899 267.845 156.993 267.941 157.087C268.609 157.464 269.565 157.84 270.042 157.181C270.138 157.087 270.233 156.899 270.233 156.71C270.329 155.768 270.52 154.921 270.615 153.979C270.711 153.132 270.807 152.284 270.998 151.342C271.571 147.01 272.144 142.678 272.717 138.44C271.571 139.099 270.52 139.664 269.374 140.323C268.8 144.844 268.132 149.27 267.559 153.791C267.463 154.45 267.367 155.203 267.272 155.863C267.272 156.051 267.272 156.145 267.272 156.334Z" fill="#E1DFEA"/>
<path d="M259.438 179.03C261.349 180.16 263.259 180.255 264.788 179.689C266.316 179.03 267.367 177.523 267.654 175.452C268.131 171.684 268.704 167.823 269.182 164.056C269.373 163.02 269.469 161.89 269.66 160.854C268.513 161.513 267.462 162.078 266.316 162.738C265.743 166.881 265.17 170.931 264.597 175.075C264.501 175.64 264.31 176.299 263.928 176.676C263.164 177.429 261.826 176.958 260.871 176.487C260.68 176.393 252.942 170.46 252.751 170.366C251.796 171.025 258.387 177.429 257.337 177.9C258.101 178.277 258.769 178.654 259.438 179.03Z" fill="#E1DFEA"/>
<path d="M269.66 160.854C269.469 161.89 269.374 163.02 269.183 164.056C271.953 165.657 274.723 167.164 277.494 168.765C281.41 171.025 285.231 169.33 285.709 165.186C286.378 160.289 287.046 155.486 287.715 150.589C286.569 151.248 285.518 151.813 284.372 152.472C283.798 156.616 283.225 160.666 282.652 164.809C282.557 165.375 282.365 166.034 281.983 166.41C281.219 167.164 279.882 166.693 278.926 166.222C275.965 164.339 272.813 162.643 269.66 160.854Z" fill="#E1DFEA"/>
<path d="M160.185 334.516C160.185 334.045 160.185 333.574 160.185 333.009C191.136 315.398 189.512 316.434 189.894 315.869C190.085 315.587 190.181 315.304 190.276 315.022C190.276 315.492 190.276 316.058 190.276 316.528C190.276 316.999 189.99 317.47 189.608 317.753C189.321 317.941 191.805 316.528 160.185 334.516Z" fill="#1F825E"/>
<path d="M178.622 314.268L174.61 316.529L162.765 309.748L166.777 307.488L178.622 314.268Z" fill="#F0E0DC"/>
<path d="M163.147 305.51L159.135 307.77L147.289 300.989L151.206 298.729L163.147 305.51Z" fill="#F0E0DC"/>
<path d="M161.331 324.157C160.472 324.251 159.708 324.063 159.134 323.686C158.561 323.403 158.275 322.933 158.37 322.462C158.466 321.897 158.943 321.426 159.994 320.861C161.045 320.296 162 320.013 162.86 319.919C163.72 319.825 164.484 320.013 165.057 320.296C165.63 320.672 165.917 321.049 165.821 321.614C165.726 322.179 165.153 322.744 164.102 323.309C163.147 323.78 162.191 324.063 161.331 324.157Z" fill="#36CF98"/>
<path d="M160.185 333.009C160.185 333.48 160.185 334.045 160.185 334.516L149.677 340.544C149.677 340.073 149.677 339.508 149.677 339.037L160.185 333.009Z" fill="#1F825E"/>
<path d="M87.6799 291.76C111.848 305.51 136.017 319.26 160.185 333.01L149.677 339.037C125.509 325.287 101.34 311.537 77.1719 297.787L87.6799 291.76Z" fill="#1F825E"/>
<path d="M159.23 323.686C159.803 324.063 160.567 324.157 161.427 324.157C162.287 324.157 163.242 323.874 164.197 323.309C165.248 322.744 165.821 322.179 165.917 321.614C166.012 321.143 165.726 320.672 165.152 320.296C164.579 320.013 163.815 319.825 162.955 319.919C162.096 320.013 161.14 320.296 160.089 320.861C159.134 321.426 158.561 321.991 158.465 322.462C158.37 322.933 158.657 323.404 159.23 323.686ZM157.033 321.52C157.797 320.296 159.803 319.448 161.236 319.071C163.146 318.6 164.961 318.977 166.108 319.636C166.872 320.013 167.35 320.672 167.158 321.426L170.98 319.26L172.317 320.013L161.618 326.135L160.376 325.475C162.669 324.157 160.472 325.758 158.083 324.345C156.842 323.592 156.268 322.556 157.033 321.52Z" fill="#1F825E"/>
<path d="M150.346 319.636L158.083 315.21L159.23 315.869L158.083 316.529C158.943 316.34 159.516 316.34 159.994 316.34C160.949 316.434 161.618 316.811 162 317.659L160.281 318.13C159.898 317.188 158.466 316.905 157.415 317.282C156.173 317.659 155.886 317.847 151.588 320.296L150.346 319.636Z" fill="#1F825E"/>
<path d="M147.671 296.657L143.659 298.917L131.813 292.137L135.826 289.876L147.671 296.657Z" fill="#F0E0DC"/>
<path d="M147.098 316.434C146.334 316.34 144.71 315.775 144.614 315.022C144.519 314.457 145.283 314.08 145.856 314.08C147.384 313.892 148.435 315.022 150.823 315.587C149.486 316.34 148.626 316.717 147.098 316.434Z" fill="#36CF98"/>
<path d="M146.812 314.08C145.188 313.703 143.564 314.833 145.379 315.869C146.429 316.434 147.767 316.623 148.818 316.434C149.486 316.246 150.251 315.869 150.824 315.493C149.2 315.116 147.671 314.268 146.812 314.08ZM142.704 314.833C142.608 313.797 143.85 313.232 144.901 313.044C147.576 312.573 149.295 314.268 151.875 314.928C152.257 314.739 153.021 314.362 153.021 313.892C152.925 313.044 151.11 312.291 150.251 312.196C149.773 312.196 149.104 312.291 148.436 312.479L147.289 311.631C148.627 311.16 149.773 311.066 151.11 311.443C152.161 311.726 153.976 312.573 154.549 313.327C155.027 313.892 155.027 314.363 154.358 314.928C153.69 315.493 150.346 317.188 149.2 318.035C148.913 318.224 148.722 318.506 148.627 318.789L147.289 318.035C147.385 317.753 147.671 317.565 147.958 317.376C146.525 317.282 145.188 317.094 143.946 316.434C143.182 315.775 142.799 315.304 142.704 314.833Z" fill="#1F825E"/>
<path d="M136.399 305.604C138.691 304.285 141.271 303.909 143.659 304.285C147.098 304.85 150.441 307.111 147.958 309.559L146.238 308.994C147.193 307.958 147.193 307.017 145.569 306.075C143.945 305.133 141.939 304.945 140.124 305.51C138.596 305.981 136.685 306.922 135.73 308.053C134.87 309.183 135.539 310.219 136.781 310.972C138.214 311.82 140.315 312.102 142.608 311.16L143.659 312.196C140.984 313.138 138.118 313.138 135.635 311.725C134.488 311.066 133.819 310.407 133.533 309.748C133.055 308.053 134.87 306.451 136.399 305.604Z" fill="#1F825E"/>
<path d="M132.195 287.899L128.183 290.159L116.338 283.378L120.35 281.118L132.195 287.899Z" fill="#F0E0DC"/>
<path d="M189.13 313.515C189.607 313.797 190.276 314.457 190.181 315.022C190.181 315.493 189.894 316.058 189.13 316.528L160.089 333.009C135.921 319.26 111.752 305.51 87.584 291.76C119.204 273.772 116.815 274.996 117.866 274.808C119.204 274.526 120.637 274.62 121.878 275.279L189.13 313.515ZM162.764 309.748L174.61 316.528L178.526 314.268L166.681 307.488L162.764 309.748ZM158.657 320.013C155.982 321.52 156.173 323.215 157.988 324.251C160.376 325.664 162.669 324.063 160.28 325.381L161.522 326.04L172.221 319.919L170.884 319.165L167.063 321.332C167.636 319.448 163.051 317.564 158.657 320.013ZM158.083 315.304L150.346 319.73L151.683 320.484C156.077 318.035 156.173 317.847 157.51 317.47C158.656 317.094 160.089 317.376 160.376 318.318L162.095 317.847C161.713 316.999 160.949 316.623 160.089 316.528C159.612 316.434 159.039 316.528 158.179 316.717L159.325 316.058L158.083 315.304ZM147.289 300.989L159.134 307.77L163.051 305.51L151.205 298.729L147.289 300.989ZM143.563 313.515C142.321 314.268 142.226 315.304 144.041 316.246C145.283 316.999 146.62 317.188 148.053 317.188C147.766 317.376 147.48 317.659 147.384 317.847L148.722 318.6C149.008 317.941 149.581 317.659 151.587 316.528C152.161 316.246 154.071 315.21 154.453 314.833C155.122 314.268 155.026 313.797 154.644 313.232C154.071 312.479 152.256 311.631 151.205 311.349C149.868 310.972 148.722 311.066 147.384 311.537L148.531 312.385C149.199 312.196 149.868 312.102 150.346 312.102C151.205 312.196 153.02 312.95 153.116 313.797C153.116 314.268 152.352 314.645 151.97 314.833C150.537 314.457 148.913 313.609 147.766 313.232C145.951 312.856 144.518 313.044 143.563 313.515ZM143.85 312.102L142.799 311.066C140.506 311.914 138.405 311.631 136.972 310.878C135.825 310.219 135.061 309.089 135.921 307.958C136.781 306.828 138.787 305.886 140.315 305.416C142.13 304.945 144.136 305.133 145.76 305.981C147.289 306.828 147.384 307.864 146.429 308.9L148.148 309.465C150.632 307.017 147.289 304.756 143.85 304.191C141.462 303.815 138.882 304.191 136.59 305.51C135.061 306.357 133.246 307.958 133.915 309.559C134.201 310.219 134.87 310.878 136.016 311.537C138.309 313.044 141.175 313.044 143.85 312.102ZM123.502 292.043C123.311 291.289 122.547 290.912 121.878 290.536C120.445 289.782 119.968 289.406 117.866 288.275C117.102 287.899 116.433 287.428 115.669 287.051C115.096 286.674 114.523 286.298 113.854 286.109C112.994 285.827 111.752 285.733 110.797 285.921C109.364 286.204 108.027 287.051 106.689 287.899C104.874 289.029 104.97 288.935 104.015 289.406C102.677 290.253 102.677 291.289 103.537 292.043C103.919 292.419 109.651 295.527 110.797 296.28C112.135 297.034 112.612 297.411 114.141 297.505C117.006 297.693 118.63 295.904 121.783 294.303C122.356 294.02 123.216 293.549 123.502 292.89C123.502 292.608 123.502 292.325 123.502 292.043ZM128.183 290.159L132.1 287.899L120.254 281.118L116.338 283.378L128.183 290.159ZM147.671 296.657L135.825 289.876L131.909 292.137L143.754 298.917L147.671 296.657Z" fill="#36CF98"/>
<path d="M108.505 295.056C104.683 292.89 105.161 293.078 104.492 292.796C103.824 292.419 103.059 292.043 102.868 291.289C102.773 290.818 102.868 290.253 103.251 289.876C103.633 289.5 104.11 289.311 104.588 289.029C107.645 287.428 109.269 285.638 112.23 285.827C113.663 285.921 114.332 286.298 115.574 287.051C116.338 287.522 122.356 290.818 122.834 291.289C123.311 291.666 123.598 292.231 123.407 292.89C123.12 293.644 122.356 294.02 121.687 294.303C118.535 295.998 116.911 297.693 114.045 297.505C112.326 297.411 112.23 297.034 108.505 295.056Z" fill="#F3E187"/>
<path d="M75.8344 301.554C74.306 300.707 74.4015 299.294 75.8344 298.541L77.1718 297.787C77.3629 297.787 76.4076 297.316 149.677 339.037L148.34 339.79C147.48 340.261 145.952 340.638 144.328 340.261C143.181 340.073 147.767 342.521 75.8344 301.554Z" fill="#36CF98"/>
<path d="M74.688 301.554C74.688 301.084 74.688 300.518 74.688 300.048C74.688 300.33 74.7835 300.707 75.0701 300.895C75.4522 301.366 71.0579 298.823 143.086 339.79C143.945 340.261 145.474 340.638 147.098 340.261C148.053 340.073 148.34 339.79 149.677 339.037C149.677 339.508 149.677 339.979 149.677 340.544L148.34 341.297C147.193 341.956 145.665 342.05 144.328 341.768C143.277 341.58 147.671 343.934 75.8343 303.061C75.0701 302.59 74.688 302.025 74.688 301.554Z" fill="#1F825E"/>
<defs>
<linearGradient id="paint0_linear_181_2085" x1="54.3972" y1="223.422" x2="395.531" y2="223.422" gradientUnits="userSpaceOnUse">
<stop stop-color="#5FACB1"/>
<stop offset="1" stop-color="#2B7C56"/>
</linearGradient>
</defs>
</svg>
