<svg width="671" height="635" viewBox="0 0 671 635" fill="none" xmlns="http://www.w3.org/2000/svg">
<path d="M548.67 549.025C557.005 553.742 557.005 561.503 548.67 566.22C540.334 570.937 526.75 570.937 518.414 566.22C510.079 561.503 510.079 553.742 518.414 549.025C526.75 544.308 540.334 544.308 548.67 549.025Z" fill="#0F4444"/>
<path d="M235.466 442.05L120.465 507.635C116.76 509.765 110.74 509.765 106.881 507.635C103.176 505.505 103.176 502.005 106.881 499.874L221.882 434.29C225.586 432.159 231.607 432.159 235.466 434.29C239.325 436.42 239.325 439.92 235.466 442.05Z" fill="#0F4444"/>
<path d="M324.379 391.378L263.56 426.072C259.855 428.203 253.835 428.203 249.976 426.072C246.271 423.942 246.271 420.442 249.976 418.312L310.795 383.617C314.5 381.487 320.52 381.487 324.379 383.617C328.238 385.748 328.238 389.248 324.379 391.378Z" fill="#0F4444"/>
<path d="M269.58 388.182L154.579 453.767C150.874 455.897 144.854 455.897 140.995 453.767C137.29 451.637 137.29 448.137 140.995 446.007L255.996 380.422C259.701 378.291 265.721 378.291 269.58 380.422C273.439 382.552 273.439 386.052 269.58 388.182Z" fill="#0F4444"/>
<path d="M416.843 304.337L301.842 369.922C298.137 372.053 292.117 372.053 288.258 369.922C284.553 367.792 284.553 364.292 288.258 362.162L403.259 296.577C406.964 294.446 412.984 294.446 416.843 296.577C420.548 298.859 420.548 302.207 416.843 304.337Z" fill="#0F4444"/>
<path d="M482.911 335.532L367.91 401.117C364.205 403.247 358.185 403.247 354.326 401.117C350.621 398.986 350.621 395.486 354.326 393.356L469.327 327.771C473.032 325.641 479.052 325.641 482.911 327.771C486.616 329.902 486.616 333.402 482.911 335.532Z" fill="#0F4444"/>
<path d="M265.721 459.245L232.07 478.418C228.365 480.549 222.345 480.549 218.486 478.418C214.781 476.288 214.781 472.788 218.486 470.658L252.137 451.485C255.842 449.354 261.862 449.354 265.721 451.485C269.426 453.615 269.426 457.115 265.721 459.245Z" fill="#0F4444"/>
<path d="M554.536 294.751L520.885 313.924C517.18 316.054 511.16 316.054 507.301 313.924C503.596 311.794 503.596 308.294 507.301 306.163L540.952 286.99C544.657 284.86 550.677 284.86 554.536 286.99C558.241 289.121 558.241 292.62 554.536 294.751Z" fill="#0F4444"/>
<path d="M292.581 340.706L177.425 406.291C173.72 408.421 167.7 408.421 163.841 406.291C160.136 404.16 160.136 400.66 163.841 398.53L278.842 332.945C282.547 330.815 288.567 330.815 292.426 332.945C296.285 335.228 296.285 338.575 292.581 340.706Z" fill="#0F4444"/>
<path d="M364.205 299.925L330.554 319.098C326.849 321.228 320.829 321.228 316.97 319.098C313.265 316.967 313.265 313.468 316.97 311.337L350.621 292.164C354.326 290.034 360.346 290.034 364.205 292.164C367.91 294.446 367.91 297.794 364.205 299.925Z" fill="#0F4444"/>
<path d="M420.702 567.894L305.701 633.478C301.996 635.609 295.976 635.609 292.117 633.478C288.412 631.348 288.412 627.848 292.117 625.718L407.118 560.133C410.823 558.003 416.843 558.003 420.702 560.133C424.407 562.263 424.407 565.763 420.702 567.894Z" fill="#0F4444"/>
<path d="M509.615 517.221L448.796 551.916C445.091 554.046 439.071 554.046 435.212 551.916C431.507 549.786 431.507 546.286 435.212 544.155L496.031 509.461C499.736 507.33 505.756 507.33 509.615 509.461C513.32 511.591 513.32 515.091 509.615 517.221Z" fill="#0F4444"/>
<path d="M454.816 514.026L339.815 579.611C336.11 581.741 330.09 581.741 326.231 579.611C322.526 577.48 322.526 573.98 326.231 571.85L441.232 506.265C444.937 504.135 450.957 504.135 454.816 506.265C458.521 508.396 458.521 511.896 454.816 514.026Z" fill="#0F4444"/>
<path d="M601.925 430.333L486.924 495.918C483.219 498.048 477.199 498.048 473.34 495.918C469.635 493.787 469.635 490.288 473.34 488.157L588.341 422.573C592.046 420.442 598.066 420.442 601.925 422.573C605.784 424.703 605.784 428.203 601.925 430.333Z" fill="#0F4444"/>
<path d="M668.147 461.376L553.146 526.96C549.442 529.091 543.421 529.091 539.562 526.96C535.858 524.83 535.858 521.33 539.562 519.2L654.563 453.615C658.268 451.485 664.288 451.485 668.147 453.615C671.852 455.745 671.852 459.245 668.147 461.376Z" fill="#0F4444"/>
<path d="M450.957 585.089L417.306 604.262C413.601 606.392 407.581 606.392 403.722 604.262C400.017 602.132 400.017 598.632 403.722 596.501L437.373 577.328C441.078 575.198 447.098 575.198 450.957 577.328C454.662 579.458 454.662 582.958 450.957 585.089Z" fill="#0F4444"/>
<path d="M477.817 466.701L362.816 532.286C359.111 534.417 353.091 534.417 349.232 532.286C345.527 530.156 345.527 526.656 349.232 524.526L464.233 458.941C467.937 456.81 473.958 456.81 477.817 458.941C481.522 461.071 481.522 464.571 477.817 466.701Z" fill="#0F4444"/>
<path d="M549.442 425.768L515.79 444.941C512.086 447.072 506.065 447.072 502.206 444.941C498.502 442.811 498.502 439.311 502.206 437.181L535.858 418.007C539.562 415.877 545.583 415.877 549.442 418.007C553.146 420.29 553.146 423.638 549.442 425.768Z" fill="#0F4444"/>
<path d="M341.822 481.31L226.821 546.894C223.116 549.025 217.096 549.025 213.237 546.894C209.532 544.764 209.532 541.264 213.237 539.134L328.238 473.549C331.943 471.419 337.963 471.419 341.822 473.549C345.527 475.679 345.527 479.179 341.822 481.31Z" fill="#0F4444"/>
<path d="M430.736 430.79L369.916 465.484C366.212 467.614 360.191 467.614 356.332 465.484C352.628 463.354 352.628 459.854 356.332 457.723L417.152 423.029C420.856 420.899 426.877 420.899 430.736 423.029C434.44 425.159 434.44 428.659 430.736 430.79Z" fill="#0F4444"/>
<path d="M375.936 427.594L260.781 493.027C257.076 495.157 251.056 495.157 247.197 493.027C243.492 490.896 243.492 487.396 247.197 485.266L362.198 419.681C365.903 417.551 371.923 417.551 375.782 419.681C379.641 421.964 379.641 425.464 375.936 427.594Z" fill="#0F4444"/>
<path d="M523.045 343.749L408.044 409.334C404.339 411.464 398.319 411.464 394.46 409.334C390.755 407.203 390.755 403.704 394.46 401.573L509.461 335.989C513.166 333.858 519.186 333.858 523.045 335.989C526.75 338.119 526.75 341.619 523.045 343.749Z" fill="#0F4444"/>
<path d="M589.113 374.944L474.112 440.528C470.407 442.659 464.387 442.659 460.528 440.528C456.823 438.398 456.823 434.898 460.528 432.768L575.529 367.183C579.234 365.053 585.254 365.053 589.113 367.183C592.818 369.313 592.818 372.813 589.113 374.944Z" fill="#0F4444"/>
<path d="M371.923 498.505L338.272 517.678C334.567 519.808 328.547 519.808 324.688 517.678C320.983 515.548 320.983 512.048 324.688 509.917L358.339 490.744C362.044 488.614 368.064 488.614 371.923 490.744C375.782 492.874 375.782 496.374 371.923 498.505Z" fill="#0F4444"/>
<path d="M660.738 334.01L627.087 353.184C623.382 355.314 617.362 355.314 613.503 353.184C609.798 351.053 609.798 347.553 613.503 345.423L647.154 326.25C650.859 324.119 656.879 324.119 660.738 326.25C664.443 328.532 664.443 331.88 660.738 334.01Z" fill="#0F4444"/>
<path d="M398.783 380.117L283.782 445.702C280.077 447.832 274.057 447.832 270.197 445.702C266.493 443.572 266.493 440.072 270.197 437.942L385.199 372.357C388.903 370.226 394.923 370.226 398.783 372.357C402.487 374.487 402.487 377.987 398.783 380.117Z" fill="#0F4444"/>
<path d="M470.407 339.336L436.756 358.509C433.051 360.64 427.031 360.64 423.172 358.509C419.467 356.379 419.467 352.879 423.172 350.749L456.823 331.576C460.528 329.445 466.548 329.445 470.407 331.576C474.112 333.706 474.112 337.206 470.407 339.336Z" fill="#0F4444"/>
<path d="M125.25 403.551L16.4232 465.484C12.8729 467.462 7.16139 467.462 3.61102 465.484C0.0606499 463.506 0.0606499 460.158 3.61102 458.18L112.438 396.247C115.988 394.269 121.699 394.269 125.25 396.247C128.8 398.226 128.8 401.573 125.25 403.551Z" fill="#0F4444"/>
<path d="M209.224 355.618L151.8 388.335C148.25 390.313 142.538 390.313 138.988 388.335C135.438 386.356 135.438 383.009 138.988 381.03L196.566 348.314C200.116 346.336 205.828 346.336 209.378 348.314C212.774 350.292 212.774 353.64 209.224 355.618Z" fill="#0F4444"/>
<path d="M157.512 352.575L48.6854 414.508C45.1351 416.486 39.4236 416.486 35.8732 414.508C32.3229 412.529 32.3229 409.182 35.8732 407.203L144.7 345.271C148.25 343.293 153.962 343.293 157.512 345.271C161.062 347.401 161.062 350.597 157.512 352.575Z" fill="#0F4444"/>
<path d="M296.594 273.295L187.767 335.228C184.217 337.206 178.505 337.206 174.955 335.228C171.404 333.249 171.404 329.902 174.955 327.924L283.781 265.991C287.332 264.013 293.043 264.013 296.594 265.991C300.144 268.121 300.144 271.317 296.594 273.295Z" fill="#0F4444"/>
<path d="M359.111 302.816L250.285 364.748C246.734 366.727 241.023 366.727 237.472 364.748C233.922 362.77 233.922 359.423 237.472 357.444L346.299 295.512C349.849 293.533 355.561 293.533 359.111 295.512C362.661 297.49 362.661 300.838 359.111 302.816Z" fill="#0F4444"/>
<path d="M153.807 419.833L122.008 437.942C118.458 439.92 112.746 439.92 109.196 437.942C105.646 435.963 105.646 432.616 109.196 430.637L140.995 412.529C144.545 410.551 150.257 410.551 153.807 412.529C157.358 414.508 157.358 417.703 153.807 419.833Z" fill="#0F4444"/>
<path d="M426.877 264.165L395.078 282.273C391.528 284.251 385.816 284.251 382.266 282.273C378.715 280.295 378.715 276.947 382.266 274.969L414.065 256.861C417.615 254.883 423.327 254.883 426.877 256.861C430.427 258.991 430.427 262.187 426.877 264.165Z" fill="#0F4444"/>
<path d="M179.123 307.685L70.2963 369.77C66.7459 371.748 61.0344 371.748 57.4841 369.77C53.9337 367.792 53.9337 364.444 57.4841 362.466L166.311 300.533C169.861 298.555 175.572 298.555 179.123 300.533C182.673 302.511 182.673 305.707 179.123 307.685Z" fill="#0F4444"/>
<path d="M246.889 269.186L215.09 287.295C211.539 289.273 205.828 289.273 202.278 287.295C198.727 285.316 198.727 281.969 202.278 279.99L234.076 261.882C237.627 259.904 243.338 259.904 246.889 261.882C250.439 263.861 250.439 267.208 246.889 269.186Z" fill="#0F4444"/>
<path d="M628.785 500.026L490.32 578.85C473.186 588.589 445.246 588.589 428.112 578.85L96.6926 390.313C79.5582 380.574 79.5582 364.748 96.6926 354.857L235.157 276.034C252.291 266.295 280.231 266.295 297.366 276.034L628.785 464.723C645.919 474.462 645.919 490.288 628.785 500.026Z" fill="black" fill-opacity="0.4"/>
<path d="M84.189 320.163C86.1957 322.75 88.8199 324.576 91.5984 326.25L424.716 515.852C428.575 518.134 432.743 519.656 437.219 520.569C441.541 521.482 446.172 521.939 450.649 521.939C459.756 521.939 469.172 520.113 476.736 515.852L635.268 425.616C639.745 423.029 644.53 418.616 645.765 413.747C645.919 412.986 646.073 412.073 646.073 411.16C646.073 421.355 646.073 424.246 646.073 434.442C646.073 440.833 640.979 446.007 635.268 449.202L476.736 539.438C472.877 541.568 468.709 543.242 464.233 544.155C451.421 546.894 435.984 545.829 424.716 539.438L91.5984 349.836C90.2092 349.075 88.8199 348.162 87.4306 347.097C83.8803 344.206 80.793 339.488 80.793 334.923C80.793 324.728 80.793 321.533 80.793 311.337C80.793 314.381 82.1822 317.576 84.189 320.163Z" fill="#A9A8C6"/>
<path d="M569.2 470.201C570.281 469.593 571.053 469.593 571.825 469.897C572.596 470.201 573.06 471.114 573.06 472.484V474.158C573.06 476.592 571.362 479.636 569.2 480.853L542.341 496.07C541.261 496.679 540.334 496.679 539.563 496.374C538.791 495.918 538.328 495.157 538.328 493.94V492.266C538.328 489.831 540.026 486.788 542.187 485.57L569.2 470.201Z" fill="#1C1A2A"/>
<path d="M509.77 503.678C513.475 499.874 517.025 501.396 517.025 505.352C516.871 511.135 511.005 516.765 507.918 514.939C507.455 514.635 507.146 514.33 506.837 513.722C506.374 512.809 506.22 511.743 506.374 510.678C506.529 509.461 506.992 508.244 507.455 507.026C507.764 506.57 508.072 506.113 508.227 505.657C508.69 504.896 509.153 504.287 509.77 503.678Z" fill="#1C1A2A"/>
<path d="M90.6723 318.641C93.4508 321.837 95.6119 322.75 105.182 328.228C105.337 328.38 429.81 513.113 431.508 513.874C437.065 516.461 443.857 517.83 450.803 517.83V521.786C446.172 521.786 441.696 521.33 437.374 520.417C432.897 519.504 428.729 517.982 424.87 515.7L91.5984 326.098C88.8199 324.576 86.1957 322.598 84.189 320.011C82.1822 317.424 80.9473 314.381 80.793 311.185C80.793 310.272 80.793 309.207 81.1017 308.294C82.3366 303.272 87.1219 298.859 91.5984 296.425L250.13 206.189C257.694 201.928 266.956 200.102 276.218 200.102V204.058C272.822 204.058 269.426 204.363 266.03 205.123C259.238 206.493 255.842 208.623 250.748 211.667C245.499 214.71 262.479 204.819 191.318 245.448C179.74 251.991 168.163 258.839 156.586 265.382C145.008 271.925 133.277 278.469 121.699 285.164C116.914 287.903 112.129 290.794 107.189 293.533C101.478 296.729 96.2294 299.468 93.6052 301.598C87.2763 306.163 85.7326 312.707 90.6723 318.641Z" fill="#E1DFEA"/>
<path d="M170.478 383.617L173.257 382.096L143.928 365.509L141.304 367.031L170.478 383.617Z" fill="#E1DFEA"/>
<path d="M173.257 385.748V382.096L170.479 383.617V387.269L173.257 385.748Z" fill="#7C7CA0"/>
<path d="M170.478 387.269V383.617L141.304 367.031V370.683L170.478 387.269Z" fill="#7C7CA0"/>
<path d="M492.636 519.048C493.253 518.743 493.716 517.982 493.716 517.374C493.716 516.765 493.253 516.461 492.636 516.765C492.018 517.069 491.555 517.83 491.555 518.439C491.555 519.2 492.018 519.352 492.636 519.048Z" fill="#1C1A2A"/>
<path d="M626.623 448.289C627.55 447.833 628.167 446.615 628.167 445.702V438.246C628.167 437.333 627.395 436.876 626.623 437.333C625.697 437.789 625.08 439.007 625.08 439.92V447.376C624.925 448.441 625.697 448.746 626.623 448.289Z" fill="#1C1A2A"/>
<path d="M620.14 451.941C621.067 451.485 621.684 450.267 621.684 449.354V441.898C621.684 440.985 620.912 440.528 620.14 440.985C619.214 441.441 618.597 442.659 618.597 443.572V451.028C618.597 452.093 619.368 452.398 620.14 451.941Z" fill="#1C1A2A"/>
<path d="M613.811 455.593C614.737 455.137 615.355 453.919 615.355 453.006V445.55C615.355 444.637 614.583 444.18 613.811 444.637C612.885 445.093 612.268 446.311 612.268 447.224V454.68C612.268 455.593 613.039 456.05 613.811 455.593Z" fill="#1C1A2A"/>
<path d="M607.482 459.245C608.408 458.789 609.026 457.571 609.026 456.658V449.202C609.026 448.289 608.254 447.833 607.482 448.289C606.556 448.746 605.938 449.963 605.938 450.876V458.332C605.938 459.245 606.556 459.702 607.482 459.245Z" fill="#1C1A2A"/>
<path d="M601.153 462.745C602.079 462.289 602.697 461.071 602.697 460.158V452.702C602.697 451.789 601.925 451.332 601.153 451.789C600.227 452.245 599.61 453.463 599.61 454.376V461.832C599.455 462.897 600.227 463.354 601.153 462.745Z" fill="#1C1A2A"/>
<path d="M594.67 466.397C595.596 465.941 596.214 464.723 596.214 463.81V456.354C596.214 455.441 595.442 454.984 594.67 455.441C593.744 455.897 593.126 457.115 593.126 458.028V465.484C593.126 466.549 593.898 467.006 594.67 466.397Z" fill="#1C1A2A"/>
<path d="M635.114 425.464L476.582 515.7C469.018 519.96 459.756 521.939 450.494 521.786V517.83C456.669 517.83 462.689 516.765 467.937 514.635C471.025 513.417 473.34 511.896 475.964 510.374C481.213 507.33 464.233 517.221 535.394 476.592C546.972 470.049 558.549 463.202 570.126 456.658C581.704 450.115 593.435 443.572 605.013 436.876C609.798 434.137 614.583 431.246 619.523 428.507C629.093 423.181 633.57 421.051 636.657 416.942C640.516 411.464 639.59 404.16 630.019 398.53C629.711 398.378 296.594 208.623 295.05 207.862C289.802 205.276 283.009 203.906 275.754 203.906V199.95C280.385 199.95 284.862 200.406 289.184 201.319C293.661 202.232 297.828 203.754 301.688 206.036L634.65 395.639C637.429 397.16 640.053 399.139 642.06 401.725C644.067 404.312 645.456 407.66 645.456 410.856C645.456 411.769 645.302 412.529 645.147 413.442C644.375 418.616 639.59 423.029 635.114 425.464Z" fill="#E1DFEA"/>
<path d="M301.379 211.515C297.52 209.384 295.359 208.015 295.204 208.015C289.956 205.428 283.164 204.058 275.909 204.058C272.513 204.058 269.117 204.363 265.721 205.123C258.929 206.493 255.533 208.623 250.439 211.667C245.654 214.558 260.009 206.189 204.593 237.688L191.009 245.448C179.432 251.991 167.854 258.839 156.277 265.382C153.035 267.208 149.948 269.034 146.706 270.708C138.216 275.425 129.881 280.143 121.391 285.012C116.605 287.751 111.82 290.642 106.881 293.381C101.169 296.577 95.9207 299.316 93.2965 301.446C87.2763 306.163 85.7327 312.859 90.6723 318.641C93.4508 321.837 95.6119 322.75 105.183 328.228L246.117 408.421C333.95 458.484 430.582 513.417 431.508 513.874C437.065 516.461 443.857 517.83 450.649 517.83C456.823 517.83 462.844 516.765 468.092 514.635C471.179 513.417 473.495 511.896 476.119 510.374C481.367 507.331 464.387 517.222 535.549 476.592C547.126 470.049 558.704 463.202 570.281 456.658C581.858 450.115 593.59 443.572 605.167 436.876C609.952 434.137 614.738 431.246 619.677 428.507C629.248 423.181 633.724 421.051 636.812 416.942C640.516 411.616 639.899 404.769 631.255 399.291C630.946 398.986 630.483 398.834 630.174 398.682C629.865 398.53 346.916 237.383 301.379 211.515Z" fill="#E1DFEA"/>
<path d="M631.255 399.291C639.899 404.769 640.516 411.616 636.812 416.942C633.879 421.203 629.402 423.181 619.677 428.507C614.892 431.246 609.952 433.985 605.167 436.876C593.59 443.572 582.013 449.963 570.281 456.658C558.704 463.202 547.126 470.049 535.549 476.592C464.233 517.222 481.213 507.331 476.119 510.374C473.34 512.048 471.179 513.417 468.092 514.635C456.978 519.2 441.696 518.895 431.353 513.874C429.81 513.113 147.787 352.423 105.028 328.228C95.4576 322.75 93.2965 321.837 90.518 318.641C85.5784 312.707 87.122 306.164 93.1422 301.446C96.3838 298.859 245.654 214.406 250.285 211.667C255.379 208.623 258.775 206.645 265.567 205.123C276.063 202.841 287.332 204.363 295.05 208.015C295.359 208.167 286.406 202.993 631.255 399.291Z" fill="url(#paint0_linear_119_4014)"/>
<path d="M197.8 250.013C199.19 249.252 201.505 249.252 203.049 250.013L204.901 251.078L169.552 271.165C168.163 271.925 165.847 271.925 164.304 271.165L162.451 270.099L197.8 250.013Z" fill="#090000"/>
<path d="M202.895 246.361L205.365 247.731C206.754 248.492 206.754 249.861 205.365 250.622L204.901 250.926L203.049 249.861C201.66 249.1 199.344 249.1 197.801 249.861L162.451 269.947L161.988 269.643C161.216 269.186 160.908 268.73 160.908 268.121C160.908 267.513 161.216 267.056 161.988 266.6L197.801 246.209C199.19 245.6 201.505 245.6 202.895 246.361Z" fill="#1A2738"/>
<g opacity="0.27">
<path d="M233.768 287.751L161.525 328.837C159.21 330.206 155.351 330.206 153.035 328.837C150.72 327.467 150.72 325.337 153.035 323.967L225.278 282.882C227.593 281.512 231.452 281.512 233.768 282.882C236.238 284.251 236.238 286.534 233.768 287.751Z" fill="white"/>
<path d="M228.982 309.968L178.505 338.728C176.19 340.097 172.331 340.097 170.015 338.728C167.7 337.358 167.7 335.228 170.015 333.858L220.492 305.098C222.808 303.729 226.667 303.729 228.982 305.098C231.298 306.468 231.298 308.598 228.982 309.968Z" fill="white"/>
<path d="M245.962 319.554L195.485 348.314C193.17 349.684 189.311 349.684 186.995 348.314C184.68 346.945 184.68 344.814 186.995 343.445L237.472 314.685C239.788 313.315 243.647 313.315 245.962 314.685C248.278 316.054 248.278 318.185 245.962 319.554Z" fill="white"/>
</g>
<g opacity="0.27">
<path d="M344.909 356.836L272.667 397.921C270.352 399.291 266.492 399.291 264.177 397.921C261.862 396.552 261.862 394.421 264.177 393.052L336.419 351.966C338.735 350.597 342.594 350.597 344.909 351.966C347.225 353.336 347.225 355.618 344.909 356.836Z" fill="white"/>
<path d="M339.97 379.052L289.493 407.812C287.177 409.182 283.318 409.182 281.003 407.812C278.687 406.443 278.687 404.312 281.003 402.943L331.48 374.183C333.795 372.813 337.654 372.813 339.97 374.183C342.285 375.552 342.285 377.683 339.97 379.052Z" fill="white"/>
<path d="M356.95 388.639L306.473 417.399C304.157 418.768 300.298 418.768 297.983 417.399C295.667 416.029 295.667 413.899 297.983 412.529L348.46 383.769C350.775 382.4 354.634 382.4 356.95 383.769C359.265 385.139 359.265 387.269 356.95 388.639Z" fill="white"/>
</g>
<g opacity="0.27">
<path d="M492.79 337.054L420.548 378.139C418.232 379.509 414.373 379.509 412.058 378.139C409.742 376.77 409.742 374.639 412.058 373.27L484.3 332.184C486.616 330.815 490.475 330.815 492.79 332.184C495.106 333.554 495.106 335.684 492.79 337.054Z" fill="white"/>
<path d="M487.851 359.118L437.374 387.878C435.058 389.248 431.199 389.248 428.884 387.878C426.568 386.508 426.568 384.378 428.884 383.009L479.361 354.249C481.676 352.879 485.535 352.879 487.851 354.249C490.166 355.618 490.166 357.901 487.851 359.118Z" fill="white"/>
<path d="M504.831 368.857L454.354 397.617C452.038 398.986 448.179 398.986 445.864 397.617C443.548 396.247 443.548 394.117 445.864 392.747L496.341 363.988C498.656 362.618 502.515 362.618 504.831 363.988C507.146 365.357 507.146 367.487 504.831 368.857Z" fill="white"/>
</g>
<g opacity="0.27">
<path d="M477.199 428.507L404.957 469.593C402.642 470.962 398.783 470.962 396.467 469.593C394.152 468.223 394.152 466.093 396.467 464.723L468.709 423.638C471.025 422.268 474.884 422.268 477.199 423.638C479.515 425.007 479.515 427.29 477.199 428.507Z" fill="white"/>
<path d="M472.414 450.724L421.937 479.331C419.622 480.701 415.763 480.701 413.447 479.331C411.132 477.962 411.132 475.832 413.447 474.462L463.924 445.702C466.24 444.333 470.099 444.333 472.414 445.702C474.73 447.224 474.73 449.354 472.414 450.724Z" fill="white"/>
<path d="M489.394 460.31L438.917 489.07C436.602 490.44 432.742 490.44 430.427 489.07C428.112 487.701 428.112 485.57 430.427 484.201L480.904 455.441C483.219 454.071 487.079 454.071 489.394 455.441C491.709 456.81 491.709 458.941 489.394 460.31Z" fill="white"/>
</g>
<g opacity="0.27">
<path opacity="0.27" d="M374.702 267.513L302.46 308.598C300.144 309.968 296.285 309.968 293.97 308.598C291.654 307.229 291.654 305.098 293.97 303.729L366.212 262.643C368.527 261.274 372.386 261.274 374.702 262.643C377.017 264.013 377.017 266.143 374.702 267.513Z" fill="#717F90"/>
<path opacity="0.27" d="M369.916 289.577L319.439 318.337C317.124 319.706 313.265 319.706 310.949 318.337C308.634 316.967 308.634 314.837 310.949 313.468L361.426 284.708C363.742 283.338 367.601 283.338 369.916 284.708C372.232 286.077 372.232 288.208 369.916 289.577Z" fill="#717F90"/>
<path opacity="0.27" d="M386.896 299.316L336.419 328.076C334.104 329.445 330.245 329.445 327.929 328.076C325.614 326.706 325.614 324.576 327.929 323.206L378.406 294.447C380.722 293.077 384.581 293.077 386.896 294.447C389.212 295.816 389.212 297.946 386.896 299.316Z" fill="#717F90"/>
</g>
<path d="M159.518 103.323C159.518 116.561 159.518 129.648 159.518 142.886C159.518 156.734 149.639 173.625 137.599 180.472C135.901 181.385 134.203 182.45 132.505 183.363L120.31 212.428L108.115 197.363C106.417 198.276 104.719 199.341 103.021 200.254C102.558 200.558 102.095 200.863 101.478 201.015C95.9206 203.754 90.9809 203.906 87.4306 201.776C87.2762 201.776 87.2762 201.624 87.1218 201.624C83.2627 199.341 80.9473 194.472 80.9473 187.776C80.9473 174.538 80.9473 161.451 80.9473 148.212C80.9473 134.365 90.8266 117.474 103.021 110.627C114.599 104.083 126.176 97.388 137.753 90.8447C143.773 87.497 149.176 87.0405 153.035 89.1709C153.035 89.1709 153.19 89.3231 153.344 89.3231C157.049 91.4534 159.518 96.3228 159.518 103.323Z" fill="#1F825E"/>
<path d="M69.5243 191.58C65.5108 189.298 63.041 184.428 63.041 177.581C63.041 164.342 63.041 151.256 63.041 138.017C63.041 124.17 72.9203 107.279 84.9607 100.431C96.538 93.8881 108.115 87.1927 119.693 80.6494C125.713 77.1496 131.27 76.8452 135.283 79.1278C141.149 82.4755 147.015 85.8232 152.881 89.1709C148.867 87.0405 143.465 87.497 137.599 90.8447C126.021 97.388 114.444 104.083 102.867 110.627C90.6722 117.474 80.7929 134.213 80.7929 148.06C80.7929 161.299 80.7929 174.385 80.7929 187.624C80.7929 194.319 83.1083 199.189 86.9674 201.471C81.1016 198.124 75.3901 194.776 69.5243 191.58Z" fill="#36CF98"/>
<path d="M107.961 197.211L120.156 212.275L102.404 202.08L101.478 200.863C101.941 200.558 102.404 200.406 103.021 200.102C104.565 199.189 106.263 198.276 107.961 197.211Z" fill="#1F825E"/>
<path d="M132.556 130.788C127.925 126.679 118.818 129.875 112.18 138.092C105.543 146.157 103.999 156.2 108.784 160.308C112.798 163.808 120.207 161.83 126.382 156.048L134.872 163.504C135.798 164.417 137.805 163.656 139.194 161.83C140.583 160.004 141.046 158.026 139.966 157.113L131.476 149.657C135.952 142.2 136.724 134.288 132.556 130.788ZM127.154 151.178C122.214 157.417 115.268 159.852 111.717 156.656C108.167 153.613 109.402 146.005 114.341 139.766C119.281 133.527 126.227 131.092 129.778 134.288C133.328 137.483 132.093 144.939 127.154 151.178Z" fill="#FBFAFC"/>
<path d="M81.7189 252.904L83.5713 255.643C83.7257 255.796 84.0344 255.948 84.3431 255.796L88.6653 253.97C89.5915 253.665 89.9002 254.426 89.2828 255.491L86.1955 260.208C85.8868 260.665 85.8868 260.969 85.8868 261.274L86.6586 265.078C86.813 265.839 85.8868 267.056 85.115 267.056L81.2559 267.208C80.9471 267.208 80.6384 267.513 80.1753 267.817L76.3162 271.925C75.5444 272.838 74.6182 272.686 74.7726 271.621L75.5444 267.056C75.5444 266.752 75.5444 266.447 75.2357 266.295L72.1484 265.078C71.5309 264.774 71.8397 263.556 72.7658 262.948L77.088 259.904C77.3968 259.6 77.7055 259.295 77.8598 258.839L79.7122 253.97C80.1753 252.904 81.4102 252.296 81.7189 252.904Z" fill="#36CF98"/>
<path d="M103.638 240.427L105.491 243.166C105.645 243.318 105.954 243.47 106.263 243.318L110.585 241.492C111.511 241.187 111.82 241.948 111.202 243.013L108.115 247.731C107.806 248.187 107.806 248.491 107.806 248.796L108.578 252.6C108.732 253.361 107.806 254.578 107.034 254.578L103.175 254.73C102.867 254.73 102.558 255.035 102.095 255.339L98.2356 259.448C97.4638 260.361 96.5376 260.208 96.692 259.143L97.4638 254.578C97.4638 254.274 97.4638 253.97 97.1551 253.817L94.0678 252.6C93.4504 252.296 93.7591 251.078 94.6853 250.47L99.0075 247.426C99.3162 247.122 99.6249 246.818 99.7793 246.361L101.632 241.492C102.095 240.579 103.175 239.97 103.638 240.427Z" fill="#36CF98"/>
<path d="M125.404 228.101L127.256 230.84C127.411 230.992 127.719 231.144 128.028 230.992L132.35 229.166C133.277 228.862 133.585 229.623 132.968 230.688L129.881 235.405C129.572 235.861 129.572 236.166 129.572 236.47L130.344 240.274C130.498 241.035 129.572 242.253 128.8 242.253L124.941 242.405C124.632 242.405 124.323 242.709 123.86 243.013L120.001 247.122C119.229 248.035 118.303 247.883 118.458 246.818L119.229 242.253C119.229 241.796 119.229 241.644 118.921 241.492L115.833 240.274C115.216 239.97 115.525 238.753 116.451 238.144L120.773 235.101C121.082 234.796 121.391 234.492 121.545 234.035L123.397 229.166C123.86 228.101 124.941 227.492 125.404 228.101Z" fill="#36CF98"/>
<path d="M147.169 215.623L149.022 218.362C149.176 218.514 149.485 218.666 149.793 218.514L154.116 216.688C155.042 216.384 155.35 217.145 154.733 218.21L151.646 222.927C151.337 223.384 151.337 223.688 151.337 223.992L152.109 227.797C152.263 228.557 151.337 229.775 150.565 229.775L146.706 229.927C146.397 229.927 146.089 230.231 145.626 230.536L141.766 234.644C140.995 235.557 140.068 235.405 140.223 234.34L140.995 229.775C140.995 229.47 140.995 229.166 140.686 229.014L137.599 227.797C136.981 227.492 137.29 226.275 138.216 225.666L142.538 222.623C142.847 222.318 143.156 222.014 143.31 221.558L145.162 216.688C145.625 215.775 146.706 215.167 147.169 215.623Z" fill="#36CF98"/>
<path d="M168.935 203.297L170.787 206.036C170.942 206.189 171.25 206.341 171.559 206.189L175.881 204.363C176.807 204.058 177.116 204.819 176.499 205.884L173.411 210.601C173.103 211.058 173.103 211.362 173.103 211.667L173.874 215.471C174.029 216.232 173.103 217.449 172.331 217.449L168.472 217.601C168.163 217.601 167.854 217.906 167.391 218.21L163.532 222.318C162.76 223.232 161.834 223.079 161.988 222.014L162.76 217.449C162.76 217.145 162.76 216.84 162.451 216.688L159.364 215.471C158.747 215.167 159.055 213.949 159.982 213.341L164.304 210.297C164.613 209.993 164.921 209.688 165.076 209.232L166.928 204.363C167.391 203.297 168.472 202.689 168.935 203.297Z" fill="#36CF98"/>
<path d="M402.024 36.2162C402.024 47.1723 402.024 57.9763 402.024 68.9324C402.024 80.3451 410.206 94.3446 420.239 99.9749C421.629 100.736 423.018 101.649 424.562 102.41L434.595 126.452L444.629 113.974C446.018 114.735 447.407 115.648 448.951 116.409C449.414 116.713 449.723 116.866 450.186 117.018C454.662 119.3 458.83 119.3 461.763 117.626C461.918 117.626 461.918 117.474 462.072 117.474C465.159 115.496 467.166 111.54 467.166 106.062C467.166 95.1055 467.166 84.3015 467.166 73.3453C467.166 61.9327 458.985 47.9332 448.951 42.3029C439.38 36.8248 429.81 31.3468 420.239 26.0209C415.3 23.2818 410.823 22.8253 407.582 24.6513C407.582 24.6513 407.427 24.6513 407.427 24.8035C404.186 26.4774 402.024 30.4337 402.024 36.2162Z" fill="#36CF98"/>
<path d="M476.582 109.105C479.824 107.279 481.985 103.17 481.985 97.5402C481.985 86.584 481.985 75.78 481.985 64.8239C481.985 53.4112 473.804 39.4117 463.77 33.7815C454.199 28.3034 444.629 22.8253 435.058 17.4994C429.964 14.6082 425.488 14.3039 422.246 16.2821C417.306 19.0211 412.521 21.7601 407.736 24.6513C410.977 22.8253 415.454 23.2818 420.394 26.0209C429.964 31.4989 439.535 36.977 449.105 42.3029C459.139 48.0853 467.32 61.9327 467.32 73.3453C467.32 84.3015 467.32 95.1055 467.32 106.062C467.32 111.692 465.314 115.648 462.226 117.474C466.857 114.583 471.797 111.844 476.582 109.105Z" fill="#1F825E"/>
<path d="M444.783 113.822L434.75 126.3L449.568 117.931L450.34 116.866C449.877 116.713 449.568 116.409 449.105 116.257C447.562 115.496 446.172 114.735 444.783 113.822Z" fill="#1F825E"/>
<path d="M432.28 58.2806C431.971 58.1285 431.662 57.9763 431.508 58.1285L430.736 58.4328L426.105 55.8459C424.253 54.7807 422.863 55.2373 422.555 56.9111L422.092 59.498L424.562 60.8675L424.87 58.585C425.025 58.1285 425.488 57.9763 426.105 58.2806L431.199 61.1718C431.508 61.324 431.817 61.4762 431.971 61.324L432.743 60.8675L436.602 62.9979L437.374 64.3674C437.528 64.6717 437.837 64.976 438.146 65.1282L443.24 68.0194C443.857 68.3238 444.32 69.0846 444.474 69.6933L444.783 72.4323L447.253 73.8018L446.79 70.7585C446.481 68.9324 444.938 66.6499 443.24 65.7369L438.609 63.15L437.837 61.7805C437.682 61.4762 437.374 61.1718 437.065 61.0197L432.28 58.2806ZM420.239 60.8675C419.622 60.5632 419.004 60.7153 419.004 61.324V63.7587C419.004 64.3674 419.467 65.2804 420.239 65.5847L420.394 65.7369L422.246 77.7582C422.4 78.9756 423.481 80.3451 424.562 81.1059L444.474 92.3664C445.709 92.9751 446.636 92.8229 446.79 91.7577L448.642 81.8668L448.797 82.0189C449.414 82.3233 450.032 82.1711 450.032 81.5624V79.1277C450.032 78.5191 449.568 77.606 448.797 77.3017L420.239 60.8675ZM440.615 78.3669C441.233 78.6712 441.85 79.5842 441.85 80.1929V86.1275C441.85 86.7362 441.387 87.0405 440.615 86.584C439.998 86.2797 439.38 85.3667 439.38 84.758V78.8234C439.38 78.2147 439.998 77.9104 440.615 78.3669ZM434.595 74.867C435.213 75.1713 435.83 76.0844 435.83 76.693V82.6276C435.83 83.2363 435.367 83.5406 434.595 83.0841C433.978 82.7798 433.36 81.8668 433.36 81.2581V75.3235C433.36 74.7148 433.978 74.5627 434.595 74.867ZM428.575 71.5193C429.192 71.8236 429.81 72.7367 429.81 73.3453V79.2799C429.81 79.8886 429.347 80.1929 428.575 79.7364C427.957 79.4321 427.34 78.5191 427.34 77.9104V71.9758C427.494 71.3671 427.957 71.215 428.575 71.5193Z" fill="#FBFAFC"/>
<path d="M503.596 399.291L427.34 442.659C419.776 446.919 407.581 446.919 400.017 442.659L259.855 362.922C252.291 358.662 252.291 351.662 259.855 347.401L336.111 304.033C343.675 299.772 355.869 299.772 363.433 304.033L503.596 383.769C511.159 388.03 511.159 395.03 503.596 399.291Z" fill="black" fill-opacity="0.2"/>
<path d="M526.287 440.681C524.435 437.485 519.495 435.355 515.79 434.594C511.005 433.681 506.22 434.442 502.824 436.42C500.2 437.941 498.81 439.615 498.81 441.594C498.81 442.354 498.81 443.115 498.81 443.876C498.81 446.463 501.434 448.593 503.75 449.811C506.992 451.637 511.777 452.854 516.562 452.093C520.112 451.637 524.743 449.811 526.287 446.615C526.596 446.006 526.75 445.398 526.75 444.789C526.75 444.028 526.75 443.267 526.75 442.507C526.904 442.202 526.75 441.441 526.287 440.681ZM515.482 432.007L534.931 443.115L537.247 441.746V439.463L532.462 436.724L543.73 438.094L546.663 436.42V434.137L531.998 432.463C532.153 427.898 532.153 429.268 532.153 426.377L529.066 428.203C529.066 430.942 529.066 429.572 529.066 434.594L517.951 428.355L515.636 429.724V432.007H515.482ZM555.925 456.05C541.878 465.18 520.267 466.701 503.75 462.441C495.723 460.31 486.77 456.354 481.676 449.963C476.119 442.963 476.428 435.202 481.676 428.659C494.488 412.681 531.69 408.725 553.918 421.203C557.314 423.181 560.556 425.464 562.871 428.507C570.589 438.398 566.576 449.05 555.925 456.05Z" fill="black" fill-opacity="0.2"/>
<path d="M467.783 436.724C470.253 439.768 473.34 442.202 476.736 444.028C492.018 452.702 514.555 453.615 531.381 447.832C537.864 445.55 544.656 441.898 548.824 436.724C551.294 433.681 552.838 430.181 552.838 426.072C552.838 429.877 552.838 433.681 552.838 437.485C552.838 446.767 544.348 453.615 535.858 457.419C519.649 464.723 496.649 464.723 480.441 457.419C471.951 453.615 463.461 446.767 463.461 437.485C463.461 433.681 463.461 429.877 463.461 426.072C463.615 430.029 465.313 433.681 467.783 436.724Z" fill="#B4AAD1"/>
<path d="M532.77 420.899V423.181L529.837 424.855V422.572L532.77 420.899Z" fill="#18A48F"/>
<path d="M529.838 422.573V424.855L518.569 423.485L517.952 423.029V421.203L529.838 422.573Z" fill="#18A48F"/>
<path d="M523.354 426.225V428.507L521.039 429.877V427.594L523.354 426.225Z" fill="#18A48F"/>
<path d="M521.039 427.594V429.877L501.589 418.768V416.486L521.039 427.594Z" fill="#18A48F"/>
<path d="M523.354 426.225L521.039 427.594L501.589 416.486L503.904 415.116L515.018 421.355C515.018 421.355 515.018 421.812 515.018 414.964L518.106 413.138L517.951 419.225C519.186 419.377 513.784 418.768 532.77 420.899L529.837 422.573L517.951 421.051V422.877C517.951 423.181 518.26 423.333 523.354 426.225Z" fill="#1EEBCD"/>
<path d="M512.394 427.442C510.542 424.246 505.602 422.116 501.897 421.355C497.112 420.442 492.327 421.203 488.931 423.181C486.307 424.703 484.917 426.377 484.917 428.355C484.917 429.116 484.917 429.877 484.917 430.637C484.917 433.224 487.541 435.355 489.857 436.572C493.099 438.398 497.884 439.615 502.669 438.854C506.22 438.398 510.85 436.572 512.394 433.376C512.703 432.768 512.857 432.159 512.857 431.55C512.857 430.79 512.857 430.029 512.857 429.268C513.012 428.964 512.857 428.203 512.394 427.442ZM501.589 418.768L521.038 429.877L523.354 428.507V426.225L518.569 423.485L529.837 424.855L532.77 423.181V420.899L518.106 419.225C518.26 414.66 518.26 416.029 518.26 413.138L515.173 414.964C515.173 417.703 515.173 416.334 515.173 421.355L504.058 415.116L501.743 416.486V418.768H501.589ZM541.878 442.811C527.83 451.941 506.22 453.463 489.703 449.202C481.676 447.072 472.723 443.115 467.629 436.724C462.071 429.724 462.38 421.964 467.629 415.421C480.441 399.443 517.642 395.486 539.871 407.964C543.267 409.942 546.509 412.225 548.824 415.268C556.697 425.159 552.683 435.659 541.878 442.811Z" fill="#ECE7F2"/>
<path d="M509.616 430.029C509.77 427.898 507.455 426.377 505.757 425.311C500.508 422.268 494.797 422.572 491.246 424.551C489.394 425.616 488.468 426.833 488.468 428.355C488.314 430.333 491.092 432.007 492.79 433.072C497.73 435.811 503.287 435.659 506.992 433.529C508.226 432.768 509.461 431.703 509.616 430.029ZM513.012 429.572C513.012 431.703 511.005 433.681 508.998 434.746C503.441 437.942 495.414 437.637 489.857 434.442C487.542 433.072 484.917 431.094 484.917 428.507C484.917 426.529 486.307 424.855 488.931 423.333C494.334 420.29 502.052 420.29 508.226 423.79C510.542 425.007 513.012 427.138 513.012 429.572Z" fill="#1EEBCD"/>
<path d="M505.602 427.594C507.609 428.811 508.844 429.877 509.307 431.094C508.072 434.442 499.891 437.333 492.635 433.072C490.474 431.855 489.085 430.637 488.622 429.42C489.857 426.072 497.884 423.029 505.602 427.594Z" fill="#ECE7F2"/>
<path d="M509.616 429.724C509.616 430.181 509.616 430.637 509.461 431.094C508.998 429.877 507.763 428.811 505.757 427.594C498.038 423.181 490.011 426.072 488.622 429.572C488.468 429.268 488.313 428.811 488.313 428.507C488.313 426.985 489.24 425.768 491.092 424.703C494.642 422.725 500.354 422.42 505.602 425.464C508.226 426.681 509.461 428.203 509.616 429.724Z" fill="#18A48F"/>
<path d="M490.012 434.594C495.414 437.637 503.441 438.094 509.153 434.898C511.159 433.833 513.166 431.855 513.166 429.724C513.166 430.485 513.166 431.246 513.166 432.007C513.166 432.616 513.012 433.224 512.703 433.833C511.159 437.029 506.528 438.702 502.978 439.311C498.193 439.92 493.408 438.855 490.166 437.029C487.85 435.659 485.226 433.681 485.226 431.094C485.226 430.333 485.226 429.572 485.226 428.811C484.918 431.246 487.696 433.224 490.012 434.594Z" fill="#18A48F"/>
<path d="M358.957 272.23L402.951 245.905L398.011 243.774L353.4 269.186L358.957 272.23Z" fill="#E1DFEA"/>
<path d="M334.259 257.317L378.407 230.992L373.313 228.862L328.702 254.274L334.259 257.317Z" fill="#E1DFEA"/>
<path d="M295.05 209.993L298.601 235.862L320.829 224.753L295.05 209.993Z" fill="#1F825E"/>
<path d="M285.171 121.583V194.015C287.178 195.08 329.473 219.123 329.473 219.123L345.99 210.297L347.225 138.169V105.909V95.7141V86.2797L285.171 121.583Z" fill="#1F825E"/>
<path d="M282.238 23.2818C288.876 27.9991 294.741 36.6727 296.748 45.3463C299.527 56.7589 302.46 68.1716 305.238 79.4321L312.185 75.4757C309.56 64.8239 306.936 54.1721 304.312 43.5203C301.842 33.325 295.05 22.9775 286.869 17.0429C282.392 13.8474 278.07 10.6518 273.594 7.45628C262.016 -1.06517 242.412 -2.58686 230.372 4.4129C220.492 10.0431 210.459 15.6734 200.58 21.4558C190.7 27.086 180.667 32.7163 170.787 38.4987C164.613 41.8464 160.291 47.781 160.754 54.6286C161.062 60.8675 165.23 66.3456 170.324 69.9976C174.801 73.1932 179.123 76.3887 183.6 79.5843C190.083 84.3015 195.949 92.9751 198.11 101.649C201.66 116.105 205.21 130.561 208.915 145.017H209.224C210.15 145.017 211.539 145.321 212.466 145.473C213.7 145.778 214.781 146.082 215.398 145.93C216.325 145.625 216.633 144.104 216.479 143.039C216.325 142.278 216.17 141.517 215.862 140.756C212.466 127.061 209.07 113.518 205.674 99.8227C203.204 89.6274 196.412 79.2799 188.23 73.3453C183.754 70.1498 179.432 66.9542 174.955 63.7587C171.096 61.0197 167.7 56.7589 168.781 52.1939C169.398 49.1505 172.022 46.5636 174.801 45.042C184.68 39.4117 194.714 33.7815 204.593 27.9991C214.472 22.3688 224.506 16.7386 234.385 10.9562C243.493 5.63025 259.701 6.69543 269.117 13.543C273.439 16.8907 277.916 20.0863 282.238 23.2818Z" fill="#E1DFEA"/>
<path d="M235.774 139.387C234.231 140.3 232.687 141.213 231.144 141.973C232.07 149.582 232.996 157.19 233.768 164.647C235.466 165.712 237.318 166.625 239.016 167.69C237.936 158.408 236.855 148.973 235.774 139.387Z" fill="#E1DFEA"/>
<path d="M244.882 214.862C243.03 213.797 241.177 212.732 239.479 211.819C240.56 216.232 243.03 220.492 246.117 223.688C245.654 220.645 245.191 217.753 244.882 214.862Z" fill="#E1DFEA"/>
<path d="M258.157 160.995C252.909 163.886 247.815 166.929 242.566 169.82C245.499 171.494 248.587 173.168 251.52 174.994C253.681 173.777 255.842 172.559 258.157 171.19V160.995Z" fill="#E1DFEA"/>
<path d="M242.721 199.493C241.949 193.559 241.023 187.472 240.251 181.537C238.862 182.298 237.318 183.211 235.929 183.972C236.546 189.602 237.318 195.08 237.935 200.711C239.788 201.776 241.486 202.689 243.338 203.754C243.184 202.232 243.029 200.863 242.721 199.493Z" fill="#E1DFEA"/>
<path d="M252.909 237.84C253.063 238.753 253.372 239.818 253.989 240.427C254.916 241.34 256.459 241.187 257.848 240.579C264.795 236.775 262.942 237.84 266.338 235.862C261.399 233.122 256.459 230.231 251.52 227.492C251.983 230.84 252.446 234.34 252.909 237.84ZM291.037 244.383V244.992L295.205 247.274C295.513 249.1 295.668 250.774 295.976 252.6C287.795 247.883 279.459 243.166 271.278 238.601C269.426 239.666 267.573 240.731 265.721 241.796C264.486 242.709 259.392 245.296 257.848 245.6C257.54 245.6 257.231 245.752 256.922 245.752C252.137 246.361 248.587 243.318 247.969 238.296C247.352 233.275 246.58 228.405 245.962 223.384C245.499 220.492 245.191 217.601 244.728 214.71C246.58 215.775 248.278 216.688 250.13 217.753C250.285 218.819 250.439 219.884 250.593 221.101C251.211 221.558 251.674 222.014 252.291 222.319C258.62 225.971 264.795 229.47 271.124 232.97C272.05 232.362 272.976 231.905 274.057 231.296C275.755 232.209 277.298 233.122 278.996 234.036C278.07 234.644 277.144 235.101 276.063 235.709C281.157 238.753 286.097 241.492 291.037 244.383Z" fill="#E1DFEA"/>
<path d="M245.036 209.384C245.963 209.688 247.352 209.08 248.124 208.471C248.587 208.167 248.895 207.862 248.895 207.406C248.895 207.254 248.895 206.949 248.741 206.797C247.661 198.428 246.426 190.059 245.345 181.689C243.493 180.624 241.795 179.711 239.942 178.646C240.097 179.559 240.251 180.472 240.251 181.537C241.023 187.472 241.949 193.559 242.721 199.493C242.875 200.863 243.03 202.384 243.338 203.754C243.493 205.123 243.801 206.645 243.956 208.015C243.956 208.015 243.956 208.015 243.956 208.167C244.11 208.623 244.419 209.232 245.036 209.384Z" fill="#E1DFEA"/>
<path d="M258.157 188.994V212.275C267.11 217.449 276.063 222.471 285.171 227.644V204.363C276.218 199.189 267.265 194.015 258.157 188.994Z" fill="#36CF98"/>
<path d="M258.157 171.342V178.798C267.11 183.972 276.063 188.994 285.171 194.167V121.583L258.157 106.214V116.409V126.604V160.995V171.342Z" fill="#36CF98"/>
<path d="M258.157 106.214L285.171 121.583L347.225 86.2797L320.366 70.9106L312.339 75.4757L305.238 79.4321L258.157 106.214Z" fill="#36CF98"/>
<path d="M261.245 106.214L320.366 72.7366L344.138 86.2797L285.171 119.757L261.245 106.214Z" fill="#36CF98"/>
<path d="M266.338 362.77C268.345 361.705 270.352 360.488 272.204 359.422C273.13 358.966 273.902 358.053 274.365 357.14C275.909 354.553 275.755 350.901 274.983 348.01C272.822 346.792 270.661 345.575 268.345 344.206L268.499 349.988C270.506 356.379 269.271 360.944 266.338 362.77Z" fill="#1A293B"/>
<path d="M246.734 342.684C246.734 349.532 251.365 357.901 257.385 361.705C260.936 363.988 264.177 364.14 266.339 362.77C269.271 360.944 270.506 356.379 268.654 350.14L268.808 354.857L267.882 355.466L247.506 343.901L247.352 338.728C246.889 339.945 246.734 341.314 246.734 342.684Z" fill="#3F4F5D"/>
<path d="M269.889 337.967C270.661 337.054 272.05 336.141 273.13 336.141C273.439 336.141 273.748 336.293 274.057 336.445C267.265 332.641 260.473 328.684 253.681 324.88C253.063 324.576 252.137 324.576 251.52 324.88C251.365 324.88 251.211 325.032 251.056 325.032C249.05 326.098 247.043 329.141 247.043 331.728V332.184L247.197 338.575L247.352 343.749L267.728 355.314L267.573 343.293C267.573 341.467 268.654 339.336 269.889 337.967Z" fill="#1F825E"/>
<path d="M273.285 336.141C272.05 336.141 270.815 337.054 270.043 337.967C268.809 339.336 267.728 341.467 267.728 343.445L267.882 355.466L268.809 354.857L268.654 350.14L268.5 344.358V342.075C268.654 341.467 268.654 341.162 268.963 340.401C269.58 339.032 270.661 337.662 272.05 337.206C272.976 336.901 273.439 337.206 273.594 337.206C274.211 337.51 274.674 337.814 275.292 338.119C275.292 337.51 274.983 337.054 274.674 336.597C274.52 336.445 274.366 336.293 274.211 336.141C273.903 336.293 273.594 336.141 273.285 336.141Z" fill="#9B346C"/>
<path d="M285.171 204.363V227.644C287.178 228.71 289.03 229.927 291.037 230.992V216.993C290.574 213.645 290.111 210.449 289.647 207.102C288.258 206.036 286.715 205.123 285.171 204.363Z" fill="#1F825E"/>
<path d="M291.037 216.84V230.84C291.654 231.296 292.426 231.601 293.043 232.057C292.426 227.036 291.808 221.862 291.037 216.84Z" fill="#1F825E"/>
<path d="M325.923 293.838V299.164L346.299 310.729V298.555C344.446 297.338 343.212 295.207 343.366 292.316C343.366 290.186 343.366 288.208 343.366 286.077C339.816 284.099 336.265 281.969 332.56 279.99C331.943 279.686 331.017 279.686 330.399 279.99C330.245 279.99 330.091 280.143 329.936 280.143C327.93 281.056 325.923 284.251 325.923 286.838V287.447V293.838Z" fill="#1F825E"/>
<path d="M303.849 268.73C305.084 269.947 307.245 269.186 308.789 268.426C311.104 267.056 314.037 265.534 316.198 264.165C311.259 261.426 306.319 258.535 301.379 255.796C301.842 259.295 302.306 262.643 302.769 266.143C302.769 267.056 303.077 268.121 303.849 268.73ZM326.541 264.469C332.098 267.665 337.809 270.86 343.366 274.056C343.366 275.882 343.366 277.708 343.366 279.686C335.957 275.425 328.547 271.165 321.138 267.056C317.896 268.882 314.5 270.86 311.259 272.686C304.775 276.491 298.755 273.447 297.983 266.904C297.366 262.187 296.748 257.469 296.131 252.904C295.822 251.078 295.668 249.404 295.359 247.578C295.205 246.209 295.05 244.687 294.742 243.318C296.594 244.383 298.292 245.296 300.144 246.361C300.299 247.731 300.453 249.252 300.762 250.622L326.078 265.078L326.541 264.469Z" fill="#E1DFEA"/>
<path d="M350.776 314.837C351.702 314.381 352.319 313.62 352.782 312.707C354.48 310.12 354.172 306.163 353.554 303.272C351.393 302.055 349.232 300.838 347.225 299.62V305.555C349.078 311.794 347.843 316.511 344.755 318.185C346.762 317.12 348.769 315.902 350.776 314.837Z" fill="#1A293B"/>
<path d="M347.225 299.012C346.916 298.859 346.608 298.707 346.299 298.555V310.729L347.225 310.272V305.555V299.62V299.012Z" fill="#9B346C"/>
<path d="M347.225 310.272L346.299 310.728L325.923 299.164V293.838C325.46 295.055 325.151 296.577 325.151 297.946C325.151 304.794 329.782 313.163 335.802 316.967C339.353 319.25 342.44 319.402 344.601 318.185C347.688 316.511 348.923 311.794 347.071 305.555V310.272H347.225Z" fill="#3F4F5D"/>
<path d="M352.937 291.707C351.393 290.794 349.849 289.881 348.306 288.968C348.306 290.034 348.306 291.251 348.306 292.316C348.306 292.316 348.306 292.316 348.306 292.468C348.306 292.773 348.306 293.077 348.46 293.533C349.232 292.62 350.158 291.86 351.239 291.555C351.702 291.403 352.319 291.403 352.937 291.707Z" fill="#1F825E"/>
<path d="M352.474 292.62C352.011 292.316 351.548 292.316 351.084 292.468C350.158 292.773 349.232 293.381 348.769 294.142L348.923 294.294C349.078 294.446 349.232 294.599 349.695 294.599C350.776 294.751 352.165 293.99 353.246 293.533C353.4 293.381 353.554 293.381 353.709 293.229C353.091 293.077 352.782 292.925 352.474 292.62Z" fill="#E1DFEA"/>
<path d="M352.319 391.682C352.319 389.095 354.326 385.9 356.332 384.987C356.487 384.987 356.641 384.835 356.796 384.835C329.628 369.313 302.46 353.944 275.446 338.423C274.828 338.119 274.365 337.815 273.748 337.51C273.439 337.358 273.13 337.206 272.204 337.51C270.815 337.967 269.734 339.488 269.117 340.706C268.808 341.314 268.808 341.619 268.654 342.38V344.662C270.815 345.879 272.976 347.097 275.291 348.466C301.07 363.075 326.849 377.835 352.628 392.443L352.319 391.682Z" fill="#E1DFEA"/>
<path d="M343.212 292.316C343.212 290.186 343.212 288.208 343.212 286.077C343.212 283.947 343.212 281.664 343.212 279.534C343.212 277.708 343.212 275.882 343.212 273.904C343.212 272.839 343.212 271.773 343.212 270.708C344.91 271.621 346.454 272.534 348.152 273.447C348.152 274.512 348.152 275.578 348.152 276.643C353.863 279.838 359.574 283.186 365.286 286.382C366.212 285.773 367.138 285.316 368.219 284.708C370.071 285.621 372.078 286.382 374.239 286.838C372.85 287.599 371.615 288.36 370.226 289.121C377.481 293.229 384.89 297.49 392.145 301.598C393.689 302.511 395.85 303.12 397.085 301.903C397.702 301.294 398.011 300.229 398.165 299.316C398.474 296.425 398.937 293.686 399.4 290.794C399.863 286.99 400.481 283.186 400.944 279.382C402.796 278.317 404.494 277.404 406.347 276.338C405.729 281.056 405.112 285.773 404.494 290.338C404.031 293.533 403.568 296.729 403.259 299.925C402.333 306.62 396.313 309.359 389.984 305.707C381.803 301.142 373.776 296.425 365.595 291.86C363.279 293.229 360.964 294.446 358.648 295.816C357.722 296.425 356.642 296.881 355.715 297.49C352.474 299.316 349.695 299.62 347.534 298.707C347.225 298.555 346.917 298.403 346.608 298.251C344.447 297.49 343.212 295.207 343.212 292.316ZM353.863 293.077C356.024 291.86 358.185 290.642 360.346 289.425C356.333 287.142 352.165 284.86 348.152 282.425C348.152 284.556 348.152 286.838 348.152 288.968C348.152 290.034 348.152 291.251 348.152 292.316C348.152 292.316 348.152 292.316 348.152 292.468C348.152 292.773 348.152 293.077 348.306 293.533C348.306 293.838 348.46 293.99 348.615 294.142L348.769 294.294C348.923 294.446 349.078 294.599 349.541 294.599C350.621 294.751 352.011 293.99 353.091 293.533C353.246 293.381 353.4 293.381 353.554 293.229C353.554 293.229 353.709 293.077 353.863 293.077Z" fill="#E1DFEA"/>
<path d="M348.614 294.142C349.232 293.381 350.004 292.62 350.93 292.468C351.393 292.316 352.01 292.316 352.319 292.62C352.628 292.773 353.091 293.077 353.4 293.229C353.554 293.077 353.708 293.077 353.863 292.925C353.708 292.316 353.4 291.86 352.937 291.555C352.473 291.251 351.856 291.251 351.238 291.403C350.158 291.707 349.077 292.62 348.46 293.381C348.306 293.838 348.46 293.99 348.614 294.142Z" fill="#9B346C"/>
<path d="M356.487 111.235C355.561 118.996 350.158 171.038 349.232 178.798L353.709 181.537C354.326 175.603 360.501 119.757 361.118 113.822C359.574 112.909 358.031 111.996 356.487 111.235Z" fill="#E1DFEA"/>
<path d="M371.769 423.029C373.776 421.812 375.782 420.746 377.789 419.529C380.259 418.16 381.185 415.116 381.185 412.225C381.185 409.942 380.722 407.812 379.95 405.682C377.944 405.53 375.782 405.073 373.621 404.16L373.776 408.877C374.548 411.008 375.165 413.595 375.165 415.877C375.165 419.529 373.776 421.812 371.769 423.029Z" fill="#1A293B"/>
<path d="M352.473 400.356C351.084 407.812 356.796 418.616 364.205 422.573C365.594 423.333 366.984 423.79 368.527 423.79C369.608 423.79 370.688 423.486 371.615 423.029C373.621 421.964 375.011 419.529 375.011 415.725C375.011 413.442 374.393 410.856 373.621 408.725L373.776 414.66L372.849 415.268L352.473 403.704V400.356Z" fill="#3F4F5D"/>
<path d="M373.622 404.16C375.783 405.073 377.944 405.682 379.95 405.682C387.823 406.138 393.843 400.052 393.689 390.313C393.689 390.161 393.689 390.008 393.689 389.704C393.689 380.117 387.977 369.009 380.568 362.618C345.682 332.032 310.641 301.446 275.755 271.012C269.58 265.687 265.567 256.861 265.567 250.47C265.567 247.579 265.567 244.687 265.567 241.796C264.332 242.709 259.238 245.296 257.694 245.6C257.386 245.6 257.077 245.752 256.768 245.752C256.768 247.274 256.768 248.796 256.768 250.47C256.768 259.448 261.862 270.556 269.889 277.556C304.775 308.142 339.816 338.728 374.702 369.161C380.722 374.335 384.89 383.161 384.89 389.704C384.89 389.856 384.89 390.161 384.89 390.313C384.89 392.9 384.273 396.247 381.648 396.856C381.185 397.008 380.568 397.008 379.95 397.008C379.333 397.008 378.561 396.704 378.098 396.552C375.628 397.617 374.085 399.443 373.622 401.573C373.467 401.878 373.467 402.334 373.467 402.638L373.622 404.16Z" fill="#E1DFEA"/>
<path d="M380.105 397.008C379.95 396.704 379.642 396.399 379.333 396.247C379.179 396.247 379.179 396.095 379.024 396.095C378.407 395.943 377.635 396.095 377.017 396.247C375.937 396.704 375.165 397.617 374.393 398.53C373.467 399.899 372.695 401.573 372.695 403.247L372.85 415.268L373.776 414.66L373.621 408.725L373.467 404.008V402.638C373.467 402.334 373.467 401.878 373.621 401.573C374.085 399.443 375.628 397.617 378.098 396.552C378.87 396.856 379.487 397.008 380.105 397.008Z" fill="#9B346C"/>
<path d="M379.024 396.095C379.179 396.095 379.333 396.247 379.333 396.247C372.541 392.443 365.749 388.487 358.957 384.682C358.34 384.378 357.413 384.378 356.796 384.682C356.642 384.682 356.487 384.835 356.333 384.835C354.326 385.9 352.319 388.943 352.319 391.53V391.987L352.474 400.204V403.551L372.85 415.116L372.695 403.095C372.695 401.421 373.467 399.747 374.393 398.378C375.011 397.465 375.937 396.552 377.018 396.095C377.635 396.095 378.407 395.791 379.024 396.095Z" fill="#1F825E"/>
<path d="M402.487 174.994C402.333 174.69 402.179 174.385 402.179 174.081C402.333 173.32 402.333 172.559 402.487 171.798C400.326 170.581 356.332 147.451 354.171 146.234V152.93L393.38 174.538C395.85 174.538 401.098 175.603 403.568 175.907V175.603C403.259 175.451 402.796 175.298 402.487 174.994Z" fill="#E1DFEA"/>
<path d="M403.723 175.755C407.582 176.211 411.286 177.124 414.682 178.646C412.213 177.277 409.588 175.755 407.119 174.385V174.538C407.119 174.538 407.119 174.69 406.964 174.69C406.81 174.842 406.656 174.842 406.501 174.994C405.729 175.298 404.649 175.603 403.877 175.603L403.723 175.755Z" fill="#E1DFEA"/>
<path d="M407.118 174.385C408.353 163.581 409.588 152.93 410.823 142.126C409.279 141.213 407.736 140.3 406.192 139.539C404.957 150.343 403.722 160.994 402.487 171.798C402.333 172.559 402.333 173.32 402.179 174.081C402.179 174.385 402.179 174.69 402.487 174.994C402.796 175.298 403.259 175.603 403.722 175.603C404.649 175.603 405.729 175.298 406.347 174.994C406.501 174.994 406.655 174.842 406.81 174.69C406.964 174.69 406.964 174.537 406.964 174.537C407.118 174.385 407.118 174.385 407.118 174.385Z" fill="#E1DFEA"/>
<path d="M427.34 251.231C427.34 252.296 427.34 253.209 427.34 254.274C428.729 253.513 430.273 252.6 431.662 251.839C431.816 250.774 431.971 249.557 432.125 248.492C430.582 249.405 429.038 250.318 427.34 251.231Z" fill="#E1DFEA"/>
<path d="M431.045 346.792C431.045 344.206 433.051 341.162 435.058 340.097C435.212 340.097 435.367 339.945 435.521 339.945C409.897 325.337 384.118 310.728 358.494 296.12C357.567 296.729 356.487 297.185 355.561 297.794C352.319 299.62 349.54 299.925 347.379 299.011V299.62C349.54 300.838 351.702 302.055 353.708 303.272C379.487 318.033 405.266 332.641 431.199 347.401V346.792H431.045Z" fill="#E1DFEA"/>
<path d="M443.548 234.796C442.776 237.688 440.615 241.644 437.528 244.687C437.374 246.057 437.219 247.426 436.911 248.948C439.072 247.731 441.387 246.361 443.548 245.144C445.555 242.557 447.407 239.209 448.179 236.014C449.877 229.47 451.421 223.079 453.119 216.536C451.112 217.601 449.105 218.819 447.253 219.884C446.172 224.753 444.938 229.775 443.548 234.796Z" fill="#E1DFEA"/>
<path d="M456.361 374.792C458.83 373.422 459.757 370.379 459.757 367.487C459.757 365.814 459.448 364.292 458.985 362.618C458.83 362.009 458.676 361.401 458.367 360.792C456.361 360.64 454.354 360.183 452.193 359.27V364.14C452.965 366.27 453.582 368.705 453.582 370.987C453.582 374.792 452.193 377.074 450.186 378.291C452.347 377.226 454.354 376.009 456.361 374.792Z" fill="#1A293B"/>
<path d="M431.045 355.618C429.656 363.075 435.367 374.031 442.931 377.835C444.32 378.444 445.71 379.052 447.253 379.052C448.334 379.052 449.414 378.748 450.34 378.291C452.347 377.226 453.737 374.792 453.737 370.987C453.737 368.705 453.273 366.27 452.347 364.14V370.074L451.421 370.531L431.045 358.966V355.618Z" fill="#3F4F5D"/>
<path d="M405.575 282.121C419.159 293.99 439.998 312.402 453.582 324.424C459.602 329.597 463.77 338.423 463.77 344.966C463.77 345.119 463.77 345.423 463.77 345.575C463.77 348.162 463.152 351.51 460.528 352.118C460.065 352.271 459.448 352.271 458.83 352.271C458.213 352.271 457.441 351.966 456.823 351.814C455.28 352.423 454.045 353.488 453.273 354.857C452.81 355.77 452.347 356.836 452.347 357.901V359.422C454.508 360.335 456.515 360.944 458.522 360.944C458.676 360.944 458.985 360.944 459.139 360.944C466.857 361.096 472.569 355.162 472.569 345.575C472.569 345.423 472.569 345.271 472.569 344.966C472.569 335.228 466.703 324.272 459.448 317.88C448.951 308.598 438.3 299.468 427.803 290.186C425.333 291.251 422.246 290.947 419.159 289.121C418.078 288.512 409.588 275.73 408.508 275.121L406.347 276.491C405.266 277.099 406.655 281.816 405.575 282.121Z" fill="#E1DFEA"/>
<path d="M454.354 203.754C455.126 203.602 455.898 203.45 456.361 203.145C456.515 203.145 456.669 202.993 456.824 202.841V202.689C459.294 192.646 461.918 182.602 464.388 172.711C462.844 171.798 461.455 171.038 459.911 170.277C457.441 180.32 454.817 190.211 452.347 200.254C452.193 200.863 452.038 201.471 451.884 202.08C451.73 202.689 452.038 203.602 452.965 203.754C453.428 203.754 453.891 203.754 454.354 203.754Z" fill="#E1DFEA"/>
<path d="M456.361 203.145C455.898 203.297 455.126 203.602 454.354 203.754C453.891 203.754 453.428 203.906 453.119 203.754C452.038 203.602 451.73 202.689 452.038 202.08C452.193 201.471 452.347 200.863 452.502 200.254C442.314 194.472 431.971 188.537 421.783 182.755C425.642 185.798 357.877 144.256 357.722 148.06C357.722 149.125 356.642 153.69 356.642 154.756C363.897 158.864 442.159 204.667 449.414 208.775C452.347 207.102 455.434 205.428 458.367 203.602C457.904 203.297 457.441 203.145 456.978 202.841V202.993C456.669 202.993 456.515 203.145 456.361 203.145Z" fill="#E1DFEA"/>
<path d="M455.743 351.51C454.663 351.966 453.891 352.727 453.119 353.792C452.193 355.162 451.421 356.836 451.421 358.357V370.683L452.347 370.226V364.292V359.422V357.901C452.347 356.836 452.81 355.77 453.273 354.857C454.045 353.488 455.28 352.575 456.824 351.814C457.441 351.966 458.059 352.118 458.83 352.271C458.676 351.966 458.367 351.662 458.059 351.51C457.904 351.51 457.904 351.358 457.75 351.358C456.978 351.053 456.361 351.205 455.743 351.51Z" fill="#9B346C"/>
<path d="M458.059 351.51C451.267 347.706 444.475 343.749 437.683 339.945C437.065 339.641 436.139 339.641 435.521 339.945C435.367 339.945 435.213 340.097 435.058 340.097C433.052 341.01 431.045 344.206 431.045 346.793V347.401V355.77V359.118L451.421 370.683V358.357C451.421 356.683 452.193 355.162 453.119 353.792C453.736 352.879 454.663 351.966 455.743 351.51C456.361 351.205 457.132 351.053 457.75 351.358C457.75 351.358 457.904 351.358 458.059 351.51Z" fill="#1F825E"/>
<path d="M458.213 213.645C460.065 214.71 461.763 215.623 463.461 216.688C463.77 214.558 464.079 212.275 464.387 210.145C462.381 211.21 460.22 212.428 458.213 213.645Z" fill="#E1DFEA"/>
<path d="M458.367 360.944C458.522 361.553 458.83 362.161 458.985 362.77V360.944C458.83 360.944 458.676 360.944 458.367 360.944Z" fill="#9B346C"/>
<path d="M461.918 237.079C462.998 237.688 464.542 238.296 465.314 237.231C465.468 237.079 465.622 236.775 465.622 236.47V236.318C465.777 234.948 466.085 233.427 466.24 232.057C466.857 227.797 467.475 223.536 467.938 219.123C468.401 215.927 468.864 212.732 469.173 209.689C469.327 208.775 469.481 207.862 469.481 206.949C467.629 208.015 465.931 208.928 464.079 209.993C463.77 212.123 463.461 214.406 463.153 216.536C462.381 222.775 461.455 228.862 460.683 235.101C460.683 235.405 460.683 235.557 460.528 235.862C460.528 236.166 460.683 236.318 460.991 236.47C461.454 236.775 461.763 236.927 461.918 237.079Z" fill="#E1DFEA"/>
<path d="M384.118 131.017C380.259 133.3 376.246 135.43 372.387 137.713C372.387 134.974 372.387 132.235 372.387 129.343C376.4 129.8 380.259 130.409 384.118 131.017Z" fill="#1F825E"/>
<path d="M372.232 146.691C372.541 146.538 372.85 146.234 373.159 146.234C373.313 146.082 374.085 146.234 374.548 146.691C375.011 147.299 375.011 148.364 374.857 148.973C374.085 148.06 372.85 146.995 372.232 146.691Z" fill="#A23042"/>
<path d="M369.453 122.648C371.151 126.452 372.078 128.43 372.386 129.343C372.386 132.082 372.386 134.974 372.386 137.713C371.151 138.474 369.917 139.082 368.682 139.843C369.299 127.822 369.299 126.909 369.453 122.648Z" fill="#36CF98"/>
<path d="M371.924 152.625C371.306 152.777 370.689 152.473 370.38 151.864C370.689 151.864 370.843 151.712 370.997 151.56C371.46 151.864 371.615 152.169 371.924 152.625Z" fill="#A23042"/>
<path d="M370.38 151.864C370.226 151.712 370.071 151.256 370.071 150.799C370.226 150.951 370.689 151.256 370.997 151.56C370.843 151.712 370.689 151.712 370.38 151.864Z" fill="#A23042"/>
<path d="M369.917 147.604C371.46 144.712 374.856 143.191 376.091 146.234C376.554 147.299 376.246 148.973 375.782 150.19C375.474 149.734 375.319 149.43 375.011 149.125C375.319 147.756 375.011 146.386 373.467 146.386C373.467 146.386 373.313 146.386 373.158 146.386C372.849 146.386 372.541 146.538 372.232 146.843C371.769 147.147 371.151 147.756 370.688 148.669C370.225 149.582 370.071 150.19 370.071 150.951C370.071 152.321 370.997 152.93 371.769 152.777C371.923 153.082 371.923 153.082 372.386 153.995C369.299 155.364 367.755 151.864 369.917 147.604Z" fill="#EF4F25"/>
<path d="M369.454 122.648C369.299 126.909 369.145 127.974 368.682 139.691C352.782 148.669 337.037 157.647 321.138 166.777C320.366 164.951 318.359 160.538 318.205 160.081C314.346 159.473 310.332 159.016 306.473 158.408C327.467 146.538 348.46 134.517 369.454 122.648Z" fill="#1F825E"/>
<path d="M368.99 151.408C368.99 152.473 369.299 153.538 370.225 153.995C369.762 153.69 369.145 153.538 368.682 153.234C368.527 153.082 368.219 152.93 368.064 152.777C366.675 151.104 367.447 148.517 368.527 146.691C369.145 145.778 369.762 144.865 370.843 144.256C371.615 143.799 372.541 143.647 373.313 144.104C373.776 144.256 374.239 144.56 374.702 144.865C373.621 144.408 371.306 145.169 369.917 147.756C369.299 148.821 368.836 150.191 368.99 151.408Z" fill="#FA7800"/>
<path d="M342.594 163.429C343.057 163.429 343.52 163.581 343.829 163.886C344.292 164.494 344.292 165.407 344.138 166.168C343.829 165.864 343.52 165.407 343.212 165.103C342.44 164.342 342.903 164.951 342.594 163.886C342.749 163.886 342.749 163.581 342.594 163.429Z" fill="#A23042"/>
<path d="M343.212 165.255C342.749 164.951 342.131 164.19 341.668 163.886C341.977 163.734 342.285 163.429 342.749 163.429C342.903 163.886 343.212 164.799 343.212 165.255Z" fill="#A23042"/>
<path d="M341.668 163.886C343.057 164.647 344.138 165.712 345.064 167.081L345.218 167.233C349.077 172.407 350.93 183.668 355.406 186.407C356.487 187.015 357.413 187.015 358.494 186.863C359.728 186.559 360.655 186.102 361.581 185.646C361.735 185.646 363.433 184.581 364.205 183.82C375.011 175.451 376.709 155.669 370.225 150.799C370.225 149.43 370.997 147.756 372.078 146.843C372.386 146.538 372.232 146.691 372.386 146.691C381.494 152.169 381.031 175.603 367.601 186.863C364.051 189.754 358.957 192.493 354.634 190.972C345.836 188.233 345.218 172.103 339.507 167.842C339.507 166.32 340.433 164.647 341.668 163.886Z" fill="#F7B23B"/>
<path d="M341.36 169.82C340.896 169.972 340.125 169.668 339.816 169.059C340.125 169.059 340.279 169.059 340.588 168.755C340.433 168.755 341.36 169.668 341.36 169.82Z" fill="#A23042"/>
<path d="M340.433 168.755C340.124 168.907 339.97 168.907 339.661 169.059C339.507 168.755 339.507 168.451 339.507 167.994C339.97 168.299 340.279 168.603 340.433 168.755Z" fill="#A23042"/>
<path d="M388.132 130.256C346.145 154.147 334.722 160.69 320.057 169.059L324.071 253.97L392.145 215.167L388.132 130.256ZM370.997 183.515C368.682 186.254 366.829 187.776 364.051 189.45C363.896 189.45 361.427 191.124 358.339 191.428C347.843 192.493 346.145 177.581 342.131 171.038C341.514 171.342 340.588 171.646 339.816 171.342C339.661 171.342 339.661 171.342 339.507 171.19C339.353 171.038 338.735 170.733 337.963 170.429C337.037 169.972 336.574 169.059 336.728 167.842C336.883 165.255 337.809 163.277 339.97 161.755C340.896 161.147 341.822 160.842 342.903 161.299C343.366 161.603 343.984 161.755 344.447 162.06C346.145 162.668 345.99 165.407 345.218 167.233C348.151 171.038 350.004 178.494 352.628 183.363C354.326 186.254 356.178 187.624 359.266 186.559C361.89 185.798 366.212 182.907 369.145 178.342C374.393 170.125 375.165 159.321 372.541 153.843C370.843 154.603 370.38 153.995 368.682 153.234C368.527 153.082 368.219 152.93 368.064 152.777C366.675 151.104 367.447 148.517 368.527 146.691C369.145 145.778 369.762 144.865 370.843 144.256C371.615 143.799 372.541 143.647 373.313 144.104C373.776 144.256 374.239 144.56 374.702 144.865C375.319 145.169 375.783 145.778 375.937 146.386C376.4 147.451 376.091 149.125 375.628 150.343C375.628 150.343 375.783 150.495 375.783 150.647C380.877 158.408 378.715 174.385 370.997 183.515Z" fill="#1F825E"/>
<path d="M342.594 161.908C343.521 161.755 344.292 161.908 344.91 162.364C345.99 163.429 345.836 165.712 345.219 167.233C345.064 167.081 345.219 167.081 344.447 166.168C344.601 165.407 344.601 164.342 344.138 163.886C343.829 163.581 343.366 163.429 342.903 163.429C342.44 163.429 341.977 163.734 341.514 164.038C339.816 165.56 339.507 167.994 339.97 168.907C340.279 169.516 341.051 169.82 341.514 169.668C341.668 169.82 341.823 170.125 342.286 170.885C339.661 172.255 337.809 170.125 338.581 167.081C339.198 164.19 341.205 162.364 342.594 161.908Z" fill="#EF4F25"/>
<path d="M340.588 163.125C339.353 164.342 338.735 165.56 338.426 167.233C338.272 167.994 338.118 168.755 338.426 169.516C338.581 170.125 339.044 170.885 339.661 171.19C339.507 171.038 338.89 170.733 338.118 170.429C337.191 169.972 336.728 169.059 336.883 167.842C337.037 165.255 337.963 163.277 340.124 161.755C341.051 161.147 341.977 160.842 343.057 161.299C343.52 161.603 344.138 161.755 344.601 162.06C344.138 161.755 343.366 161.755 342.903 161.908C341.822 162.212 341.205 162.668 340.588 163.125Z" fill="#FA7800"/>
<path d="M320.057 169.059L324.071 253.97L316.507 243.622V160.995L320.057 169.059Z" fill="#36CF98"/>
<path d="M316.507 160.995L302.46 159.016L370.534 120.213L374.085 128.278L388.132 130.256C346.145 154.147 334.722 160.69 320.057 169.059L316.507 160.995ZM306.473 158.408C310.333 159.016 314.346 159.473 318.205 160.081C318.359 160.386 320.366 164.951 321.138 166.777C332.252 160.386 377.172 134.974 384.118 131.017C380.259 130.409 376.246 129.952 372.387 129.343C372.078 128.583 371.461 127.213 369.454 122.648C348.46 134.517 327.467 146.538 306.473 158.408Z" fill="#36CF98"/>
<path d="M316.507 160.994V243.622L298.446 239.361L302.46 159.016L316.507 160.994Z" fill="#1F825E"/>
<path d="M328.393 162.212C326.849 163.125 326.849 163.125 326.849 163.125C327.312 161.603 327.93 160.842 328.393 162.212Z" fill="#D64A78"/>
<path d="M325.614 207.862C325.614 208.015 325.614 208.167 325.46 208.167C325.306 208.319 324.997 208.471 324.688 208.471C313.42 206.797 314.191 206.949 314.037 206.797C313.883 206.797 313.728 206.645 313.728 206.493C313.265 204.515 312.648 197.667 312.493 195.689C311.876 186.407 311.876 176.516 313.574 167.233C313.883 165.56 314.654 161.755 315.426 160.081C315.735 159.473 316.198 159.016 316.816 159.168C328.393 160.994 327.621 160.69 327.93 160.995C328.238 161.299 328.393 161.755 328.547 162.212H328.393C327.775 160.234 327.004 162.516 326.386 164.494C325.614 167.538 324.997 171.646 324.688 174.842C322.99 190.667 325.46 208.319 325.614 207.862Z" fill="#FBC959"/>
<path d="M428.575 175.298V187.624L422.091 181.385L428.575 175.298Z" fill="#8140FF"/>
<path d="M425.333 176.364C424.87 176.82 420.394 181.081 419.931 181.537C419.931 183.211 419.931 184.885 419.931 186.711C397.702 186.711 375.628 186.711 353.4 186.711C353.4 185.037 353.4 183.363 353.4 181.537C351.547 179.863 349.849 178.19 347.997 176.364C373.93 176.364 399.709 176.364 425.333 176.364Z" fill="#5F26CF"/>
<path d="M425.333 186.559C423.481 186.559 421.783 186.559 419.931 186.559C419.931 184.885 419.931 183.211 419.931 181.385C421.783 183.211 423.635 184.885 425.333 186.559Z" fill="#8140FF"/>
<path d="M408.97 197.819C408.97 197.363 408.97 197.058 408.97 196.754C408.97 194.928 409.125 194.776 408.816 194.319C408.662 194.015 408.507 193.863 408.353 193.711C410.514 194.624 410.514 196.754 408.97 197.819Z" fill="#E95950"/>
<path d="M402.487 195.841C402.487 193.559 405.42 191.276 408.662 192.341C410.514 192.95 411.595 194.319 411.595 195.841C411.595 197.515 410.206 198.732 408.971 199.341C408.971 199.341 409.125 198.276 409.125 197.819C409.434 197.515 409.742 197.211 410.051 196.754C410.977 194.624 408.199 192.646 405.883 193.559C403.877 194.472 403.722 196.45 405.112 197.667C405.112 197.819 405.112 198.732 404.957 199.189C403.568 198.58 402.487 197.363 402.487 195.841Z" fill="#F5B538"/>
<path d="M405.111 192.493C403.722 193.102 402.642 194.472 402.642 195.841C402.642 195.537 402.642 195.232 402.642 194.928C402.642 194.167 402.95 193.102 404.185 192.037C405.883 190.82 408.507 190.667 410.205 192.037C411.132 192.646 411.595 193.711 411.595 194.776C411.595 195.08 411.595 195.385 411.595 195.841C411.44 192.798 407.736 191.276 405.111 192.493Z" fill="#F8E150"/>
<path d="M345.064 187.624C345.064 248.492 345.064 228.557 345.064 262.035H428.575C428.575 240.274 428.575 221.101 428.575 187.624C404.34 187.624 389.212 187.624 345.064 187.624ZM411.595 195.841C411.595 197.515 410.206 198.732 408.971 199.341C408.508 207.102 406.346 215.623 400.326 220.492C395.695 224.145 389.675 225.058 383.809 223.992C372.232 221.558 368.373 210.906 367.601 199.189C366.366 198.732 364.977 197.363 364.977 195.689C364.977 195.385 364.977 195.08 364.977 194.624C364.977 193.559 365.594 192.493 366.521 191.885C368.064 190.667 370.997 190.515 372.695 191.885C373.621 192.493 374.084 193.711 374.084 194.624V195.689C374.084 197.211 373.004 198.428 371.615 199.037C371.615 200.102 371.923 203.45 372.695 206.645C373.93 212.275 377.017 217.906 382.729 219.579C386.279 220.797 391.527 220.797 395.387 218.971C401.098 216.232 403.414 209.841 404.494 203.602C404.494 203.45 404.957 200.406 404.957 199.189C403.568 198.58 402.642 197.363 402.642 195.841C402.642 195.385 402.642 195.232 402.642 194.776C402.642 194.015 402.95 192.95 404.185 191.885C405.883 190.667 408.508 190.515 410.206 191.885C411.132 192.493 411.595 193.559 411.595 194.624C411.595 195.232 411.595 195.537 411.595 195.841Z" fill="#0C4E5C"/>
<path d="M371.46 194.776C371.46 194.167 371.151 193.711 370.843 193.406C371.615 193.711 372.541 194.776 372.541 195.689C372.541 196.298 372.232 197.058 371.615 197.515C371.46 197.363 371.46 194.928 371.46 194.776Z" fill="#E95950"/>
<path d="M405.112 196.754C405.112 196.602 405.112 196.602 405.112 196.754C405.112 196.602 405.112 196.754 405.112 196.754C404.957 197.515 404.957 196.906 405.112 196.754ZM367.447 196.602C367.447 194.776 367.292 194.624 367.601 194.167C367.756 193.863 367.91 193.711 368.064 193.559C368.836 193.102 369.917 193.102 370.843 193.559C371.306 193.863 371.46 194.319 371.46 194.928C371.46 199.037 371.615 202.689 372.541 206.797C374.393 214.71 378.87 220.34 387.051 220.645C395.541 221.101 402.179 216.84 404.34 203.754C404.34 203.602 404.803 201.167 404.803 199.493C404.803 199.341 404.957 198.428 404.957 197.971C404.34 197.515 404.031 196.754 404.031 196.145C404.031 194.624 406.038 193.102 408.199 193.863C408.353 193.863 408.353 193.863 408.508 194.015C408.662 194.167 408.816 194.319 408.971 194.624C409.125 195.08 409.125 195.232 409.125 197.058C409.125 201.015 408.353 206.797 406.964 210.754C404.34 218.666 398.783 223.992 390.293 224.601C373.93 225.666 367.447 212.427 367.447 196.602Z" fill="#F7B23B"/>
<path d="M368.064 193.559C367.601 193.863 367.447 194.319 367.447 194.776C367.447 195.689 367.447 196.754 367.447 197.667C366.057 196.602 366.057 194.472 368.064 193.559Z" fill="#E95950"/>
<path d="M364.977 195.689C364.977 194.015 366.212 192.646 367.91 192.189C371.306 191.124 373.93 193.559 373.93 195.689C373.93 197.211 372.85 198.428 371.46 199.037C371.46 198.732 371.46 198.428 371.46 197.972C371.46 197.211 371.306 197.667 371.769 197.058C372.078 196.602 372.386 195.993 372.386 195.537C372.386 194.624 371.46 193.559 370.688 193.254C368.527 192.189 365.595 194.167 366.521 196.298C366.675 196.754 366.984 197.058 367.447 197.363C367.447 198.428 367.447 198.732 367.447 198.885C366.212 198.58 364.977 197.363 364.977 195.689Z" fill="#F5B538"/>
<path d="M364.977 194.776C364.977 193.711 365.595 192.646 366.521 192.037C367.447 191.428 368.527 191.124 369.608 191.124C372.387 191.124 374.085 193.102 374.085 194.928V195.993C374.085 194.624 373.004 193.254 371.615 192.646C368.99 191.428 365.131 192.95 364.977 195.993C364.977 195.385 364.977 195.08 364.977 194.776Z" fill="#F8E150"/>
<path d="M353.554 181.385C353.554 183.059 353.554 184.733 353.554 186.559C351.702 186.559 350.004 186.559 348.151 186.559C354.017 180.929 352.937 182.146 353.554 181.385Z" fill="#8140FF"/>
<path d="M351.547 181.385L345.064 187.624V175.298L351.547 181.385Z" fill="#1F7082"/>
<path d="M348.151 186.559C388.131 186.559 402.487 186.559 425.333 186.559C423.481 184.885 421.783 183.211 419.93 181.385C420.394 180.929 424.87 176.668 425.333 176.211C399.554 176.211 373.776 176.211 348.151 176.211C350.004 177.885 351.702 179.559 353.554 181.385C352.782 182.146 354.171 180.929 348.151 186.559ZM345.064 187.624L351.547 181.537L345.064 175.451H428.575L422.092 181.537L428.575 187.624C398.628 187.624 375.319 187.624 345.064 187.624Z" fill="#339CB4"/>
<path d="M294.741 237.688C295.668 237.992 297.057 237.383 297.829 236.775C298.137 236.622 298.601 236.166 298.601 235.862C298.601 235.557 298.601 235.405 298.446 235.101C297.366 226.731 296.131 218.362 295.05 209.993C293.198 208.928 291.5 208.015 289.647 206.949C290.111 210.297 290.574 213.493 291.037 216.84C291.654 221.862 292.426 227.036 293.043 232.057C293.198 233.579 293.507 234.948 293.661 236.47C293.815 236.927 294.124 237.535 294.741 237.688Z" fill="#E1DFEA"/>
<path d="M348.306 264.165C348.306 263.861 348.306 263.708 348.306 263.404C348.306 259.6 348.306 255.948 348.306 252.144C348.306 248.187 348.306 244.231 348.306 240.274C346.608 239.361 345.064 238.448 343.366 237.535C343.366 243.318 343.366 249.252 343.366 255.035C343.366 256.861 343.366 258.839 343.366 260.665C343.366 261.882 343.366 263.252 343.366 264.469C343.366 264.774 343.366 264.926 343.521 265.23C343.984 266.143 344.91 266.143 345.836 265.839C346.608 265.687 348.306 264.926 348.306 264.165Z" fill="#E1DFEA"/>
<path d="M460.065 170.125C461.609 170.885 462.998 171.798 464.542 172.559C471.488 176.516 478.435 180.472 485.381 184.428C485.999 184.733 486.462 185.189 486.925 185.646C487.233 185.95 487.233 186.102 487.233 186.102C487.233 186.102 487.233 186.102 487.233 186.255C487.079 186.559 486.77 187.015 486.462 187.168C486.153 187.472 485.844 187.624 485.381 187.928C476.274 193.102 467.321 198.276 458.213 203.297C455.28 204.971 452.193 206.645 449.26 208.471C442.005 212.58 434.75 216.688 427.495 220.949C414.219 228.557 400.79 236.166 387.514 243.622C383.655 245.905 376.4 245.905 372.387 243.622C370.38 242.557 368.373 241.34 366.367 240.274C352.937 232.666 339.507 224.905 325.923 217.297C314.346 210.754 302.614 204.058 291.037 197.515C289.03 196.45 287.178 195.232 285.171 194.167C276.218 188.994 267.265 183.972 258.157 178.798C255.996 177.581 253.835 176.364 251.52 174.994C248.587 173.32 245.5 171.646 242.567 169.82C241.332 169.059 240.097 168.451 239.016 167.69C237.318 166.625 235.466 165.712 233.768 164.647C227.748 161.147 221.573 157.647 215.553 154.299C214.936 153.995 214.472 153.538 214.009 153.082C213.701 152.777 213.701 152.625 213.701 152.625C213.701 152.625 213.701 152.625 213.701 152.473C213.855 152.169 214.164 151.712 214.472 151.56C214.781 151.256 215.09 151.104 215.553 150.799C220.801 147.908 225.895 144.865 231.144 141.973C232.687 141.06 234.231 140.147 235.775 139.387C243.339 135.126 250.748 130.865 258.312 126.604V116.409C244.11 124.474 229.909 132.539 215.707 140.604C215.862 141.365 216.016 142.126 216.325 142.886C216.634 143.952 216.17 145.473 215.244 145.778C214.627 145.93 213.701 145.625 212.311 145.321C211.385 145.169 209.996 144.865 209.07 144.865H208.761C206.446 146.843 204.748 149.582 204.748 152.625C204.748 156.734 207.526 160.081 211.076 162.06C218.64 166.32 226.204 170.733 233.768 174.994C235.929 176.211 237.936 177.429 240.097 178.494C241.949 179.559 243.647 180.472 245.5 181.537C249.822 183.972 254.144 186.407 258.466 188.841C267.419 194.015 276.372 199.037 285.48 204.21C287.024 205.123 288.567 205.884 289.956 206.797C291.809 207.862 293.507 208.775 295.359 209.841C305.702 215.623 315.89 221.558 326.232 227.34C332.098 230.688 337.809 234.035 343.675 237.231C345.373 238.144 346.917 239.057 348.615 239.97C352.165 241.948 355.561 243.926 359.111 245.905C361.581 247.274 364.205 248.796 366.675 250.165C367.138 250.47 367.601 250.774 368.219 251.078C375.011 255.035 385.662 254.883 392.3 251.078C396.931 248.492 401.561 245.752 406.192 243.166C408.045 242.1 409.743 241.187 411.595 240.122C416.998 237.079 422.401 234.035 427.803 230.84C430.428 229.318 433.052 227.949 435.676 226.427C437.528 225.362 439.226 224.449 441.079 223.384C443.394 222.014 445.71 220.797 448.025 219.427C450.032 218.362 451.884 217.145 453.891 216.08C455.435 215.167 457.132 214.254 458.83 213.341C460.837 212.123 462.998 210.906 465.005 209.841C466.857 208.775 468.555 207.862 470.408 206.797C477.045 202.993 483.683 199.189 490.475 195.385C494.025 193.406 496.804 190.059 496.804 185.95C496.804 181.994 494.18 178.494 490.475 176.516C442.931 149.43 395.387 122.496 347.997 95.4098V105.605C351.085 107.431 354.172 109.105 357.259 110.779C358.803 111.692 360.346 112.605 361.89 113.366C376.863 121.887 391.991 130.561 406.964 139.082C408.508 139.995 410.051 140.908 411.595 141.669C427.186 151.408 443.548 160.842 460.065 170.125Z" fill="#E1DFEA"/>
<path d="M465.468 237.383C464.696 238.448 463.153 237.84 462.072 237.231C461.918 237.079 461.609 236.927 461.455 236.775C461.146 236.47 460.992 236.318 460.992 236.166C460.992 235.861 460.992 235.709 461.146 235.405C455.434 238.601 449.723 241.948 444.012 245.144C441.85 246.361 439.535 247.731 437.374 248.948C437.22 250.47 436.911 251.839 436.756 253.361C436.756 253.665 436.602 253.97 436.448 254.122C435.676 255.187 434.132 254.578 433.052 253.97C432.897 253.817 432.589 253.665 432.434 253.513C432.126 253.209 431.971 253.057 431.971 252.752C431.971 252.448 431.971 252.296 432.126 251.991C430.736 252.752 429.193 253.665 427.803 254.426C421.32 258.23 414.682 261.882 408.199 265.534C408.045 266.904 407.736 268.426 407.582 269.795V269.947C407.582 270.252 407.427 270.404 407.273 270.708C406.501 271.773 404.957 271.165 403.877 270.556C403.568 270.252 402.796 269.795 402.796 269.339C402.796 269.186 402.796 268.882 402.951 268.73C398.011 271.621 392.917 274.36 387.977 277.251C384.118 279.534 376.863 279.534 372.85 277.251C370.843 276.186 368.836 274.969 366.83 273.904C360.809 270.404 354.789 267.056 348.769 263.556C348.769 263.861 348.769 264.013 348.769 264.317C348.769 265.078 347.225 265.839 346.454 266.143C345.527 266.447 344.447 266.295 344.138 265.534C343.984 265.382 343.984 265.078 343.984 264.774C343.984 263.556 343.984 262.187 343.984 260.969C342.286 260.056 340.588 259.143 339.044 258.078C334.876 255.643 330.708 253.361 326.541 251.078C317.433 245.905 308.171 240.731 299.064 235.405C299.064 235.709 299.064 235.861 299.218 236.166C299.218 236.47 298.755 236.927 298.446 237.079C297.675 237.688 296.285 238.296 295.359 237.992C294.742 237.84 294.433 237.231 294.279 236.775C294.124 235.253 293.815 233.883 293.661 232.362C293.044 231.905 292.272 231.601 291.654 231.144C289.648 230.079 287.795 228.862 285.789 227.797C276.835 222.623 267.882 217.601 258.775 212.428C255.688 210.601 252.446 208.775 249.204 206.949C249.204 207.102 249.204 207.406 249.359 207.558C249.359 207.862 249.05 208.319 248.587 208.623C247.815 209.232 246.426 209.841 245.5 209.536C244.882 209.384 244.573 208.928 244.419 208.319C244.419 208.319 244.419 208.319 244.419 208.167C244.265 206.797 244.11 205.276 243.802 203.906C241.949 202.841 240.251 201.928 238.399 200.863C234.231 198.428 229.909 195.993 225.741 193.711C225.124 193.406 224.66 192.95 224.197 192.493C223.889 192.189 223.889 192.037 223.889 192.037C223.889 192.037 223.889 192.037 223.889 191.885C224.043 191.58 224.352 191.124 224.66 190.972C224.969 190.667 225.278 190.515 225.741 190.211C229.291 188.233 232.842 186.102 236.392 184.124C237.781 183.363 239.325 182.45 240.714 181.689C240.56 180.776 240.406 179.863 240.406 178.798C238.244 177.581 236.238 176.364 234.077 175.298C229.754 177.733 225.587 180.168 221.264 182.602C217.714 184.581 214.936 187.928 214.936 192.037C214.936 195.993 217.714 199.493 221.264 201.471C227.439 204.971 233.614 208.471 239.788 211.971C241.641 213.036 243.493 214.101 245.191 215.014C247.043 216.08 248.741 216.993 250.594 218.058C258.621 222.623 266.493 227.188 274.52 231.601C276.218 232.514 277.762 233.427 279.46 234.34C283.473 236.622 287.487 238.905 291.5 241.187C292.735 241.796 293.816 242.557 295.05 243.166C296.903 244.231 298.601 245.144 300.453 246.209C309.098 251.078 317.742 256.1 326.386 260.969C327.467 261.578 328.702 262.339 329.782 262.948C334.413 265.534 339.044 268.273 343.675 270.86C345.373 271.773 346.917 272.686 348.615 273.599C355.098 277.251 361.581 281.056 368.219 284.708C368.373 284.708 368.528 284.86 368.528 284.86C370.38 285.773 372.387 286.534 374.548 286.99C375.937 287.295 377.326 287.447 378.716 287.447C383.501 287.751 388.441 286.686 392.145 284.555C395.078 282.882 398.165 281.208 401.098 279.382C402.951 278.317 404.649 277.404 406.501 276.338C413.602 272.382 420.548 268.273 427.649 264.317C428.575 263.708 429.501 263.252 430.582 262.643C432.434 261.578 434.132 260.665 435.985 259.6C444.012 255.035 451.884 250.47 459.911 246.057C461.763 244.992 463.461 244.079 465.314 243.013C470.408 240.122 475.347 237.231 480.441 234.34C483.992 232.362 486.77 229.014 486.77 224.905C486.77 220.949 484.146 217.449 480.441 215.471C476.891 213.493 473.341 211.514 469.945 209.536C469.482 212.732 469.018 215.927 468.71 218.971C471.18 220.34 473.649 221.71 476.119 223.231C476.737 223.536 477.2 223.992 477.663 224.449C477.972 224.753 477.972 224.905 477.972 224.905C477.972 224.905 477.972 224.905 477.972 225.058C477.817 225.362 477.509 225.818 477.2 225.971C476.891 226.275 476.582 226.427 476.119 226.731C473.032 228.405 470.099 230.231 467.012 231.905C466.857 233.275 466.549 234.796 466.394 236.166V236.318C465.622 236.927 465.623 237.079 465.468 237.383Z" fill="#E1DFEA"/>
<path d="M403.414 270.404C404.494 271.012 406.038 271.621 406.81 270.556C406.964 270.404 407.118 270.099 407.118 269.795V269.643C407.273 268.273 407.581 266.752 407.736 265.382C408.816 257.013 410.051 248.644 411.132 240.274C409.279 241.34 407.581 242.253 405.729 243.318C404.649 251.687 403.414 260.056 402.333 268.426C402.333 268.578 402.333 268.882 402.179 269.034C402.333 269.795 402.951 270.252 403.414 270.404Z" fill="#E1DFEA"/>
<path d="M431.662 252.6C431.662 252.904 431.817 253.057 432.125 253.361C432.28 253.513 432.588 253.665 432.743 253.817C433.823 254.426 435.367 255.035 436.139 253.97C436.293 253.817 436.447 253.513 436.447 253.209C436.602 251.687 436.91 250.318 437.065 248.796C437.219 247.426 437.374 246.057 437.682 244.535C438.609 237.535 439.535 230.536 440.461 223.688C438.609 224.753 436.911 225.666 435.058 226.731C434.132 234.035 433.051 241.187 432.125 248.491C431.971 249.557 431.816 250.774 431.662 251.839C431.662 252.144 431.662 252.296 431.662 252.6Z" fill="#E1DFEA"/>
<path d="M419.004 289.273C422.092 291.099 425.179 291.251 427.649 290.338C430.119 289.273 431.817 286.838 432.28 283.49C433.051 277.404 433.978 271.165 434.749 265.078C435.058 263.404 435.213 261.578 435.521 259.904C433.669 260.969 431.971 261.882 430.119 262.948C429.192 269.643 428.266 276.186 427.34 282.882C427.186 283.795 426.877 284.86 426.259 285.469C425.024 286.686 422.863 285.925 421.32 285.164C421.011 285.012 408.508 275.425 408.199 275.273C406.655 276.338 417.306 286.686 415.608 287.447C416.843 288.055 417.924 288.664 419.004 289.273Z" fill="#E1DFEA"/>
<path d="M435.521 259.904C435.213 261.578 435.058 263.404 434.75 265.078C439.226 267.665 443.703 270.099 448.179 272.686C454.508 276.338 460.683 273.599 461.454 266.904C462.535 258.991 463.616 251.231 464.696 243.318C462.844 244.383 461.146 245.296 459.293 246.361C458.367 253.057 457.441 259.6 456.515 266.295C456.36 267.208 456.052 268.273 455.434 268.882C454.199 270.099 452.038 269.339 450.495 268.578C445.709 265.534 440.615 262.795 435.521 259.904Z" fill="#E1DFEA"/>
<path d="M258.62 540.503C258.62 539.742 258.62 538.982 258.62 538.069C308.634 509.613 306.01 511.287 306.627 510.374C306.936 509.917 307.09 509.461 307.245 509.004C307.245 509.765 307.245 510.678 307.245 511.439C307.245 512.2 306.782 512.961 306.164 513.417C305.701 513.722 309.715 511.439 258.62 540.503Z" fill="#1F825E"/>
<path d="M288.413 507.787L281.929 511.439L262.788 500.483L269.271 496.831L288.413 507.787Z" fill="#F0E0DC"/>
<path d="M263.405 493.635L256.922 497.287L237.781 486.331L244.11 482.679L263.405 493.635Z" fill="#F0E0DC"/>
<path d="M260.472 523.765C259.083 523.917 257.848 523.613 256.922 523.004C255.996 522.547 255.533 521.786 255.687 521.026C255.841 520.113 256.613 519.352 258.311 518.439C260.009 517.526 261.553 517.069 262.942 516.917C264.331 516.765 265.566 517.069 266.492 517.526C267.419 518.134 267.882 518.743 267.727 519.656C267.573 520.569 266.647 521.482 264.949 522.395C263.405 523.156 261.862 523.613 260.472 523.765Z" fill="#36CF98"/>
<path d="M258.62 538.069C258.62 538.829 258.62 539.742 258.62 540.503L241.64 550.242C241.64 549.481 241.64 548.568 241.64 547.807L258.62 538.069Z" fill="#1F825E"/>
<path d="M141.458 471.419C180.512 493.635 219.566 515.852 258.62 538.069L241.64 547.807C202.586 525.591 163.532 503.374 124.478 481.157L141.458 471.419Z" fill="#1F825E"/>
<path d="M257.076 523.004C258.002 523.613 259.237 523.765 260.627 523.765C262.016 523.765 263.56 523.308 265.103 522.395C266.801 521.482 267.727 520.569 267.882 519.656C268.036 518.895 267.573 518.134 266.647 517.526C265.721 517.069 264.486 516.765 263.096 516.917C261.707 517.069 260.164 517.526 258.466 518.439C256.922 519.352 255.996 520.265 255.841 521.026C255.687 521.787 256.15 522.547 257.076 523.004ZM253.526 519.504C254.761 517.526 258.002 516.156 260.318 515.548C263.405 514.787 266.338 515.395 268.19 516.461C269.425 517.069 270.197 518.134 269.888 519.352L276.063 515.852L278.224 517.069L260.935 526.96L258.929 525.895C262.633 523.765 259.083 526.352 255.224 524.069C253.217 522.852 252.291 521.178 253.526 519.504Z" fill="#1F825E"/>
<path d="M242.721 516.461L255.224 509.309L257.077 510.374L255.224 511.439C256.613 511.135 257.54 511.135 258.311 511.135C259.855 511.287 260.936 511.896 261.553 513.265L258.775 514.026C258.157 512.504 255.842 512.048 254.144 512.656C252.137 513.265 251.674 513.569 244.727 517.526L242.721 516.461Z" fill="#1F825E"/>
<path d="M238.398 479.331L231.915 482.984L212.774 472.027L219.257 468.375L238.398 479.331Z" fill="#F0E0DC"/>
<path d="M237.472 511.287C236.237 511.135 233.613 510.222 233.458 509.004C233.304 508.091 234.539 507.483 235.465 507.483C237.935 507.178 239.633 509.004 243.492 509.917C241.331 511.135 239.942 511.743 237.472 511.287Z" fill="#36CF98"/>
<path d="M237.009 507.483C234.385 506.874 231.761 508.7 234.694 510.374C236.392 511.287 238.553 511.591 240.251 511.287C241.332 510.983 242.566 510.374 243.493 509.765C240.868 509.157 238.399 507.787 237.009 507.483ZM230.372 508.7C230.217 507.026 232.224 506.113 233.922 505.809C238.244 505.048 241.023 507.787 245.191 508.852C245.808 508.548 247.043 507.939 247.043 507.178C246.889 505.809 243.956 504.591 242.566 504.439C241.795 504.439 240.714 504.591 239.633 504.896L237.781 503.526C239.942 502.765 241.795 502.613 243.956 503.222C245.654 503.678 248.587 505.048 249.513 506.265C250.285 507.178 250.285 507.939 249.204 508.852C248.124 509.765 242.721 512.504 240.868 513.874C240.405 514.178 240.097 514.635 239.942 515.091L237.781 513.874C237.935 513.417 238.399 513.113 238.862 512.809C236.546 512.656 234.385 512.352 232.378 511.287C231.143 510.222 230.526 509.461 230.372 508.7Z" fill="#1F825E"/>
<path d="M220.183 493.787C223.888 491.657 228.056 491.048 231.915 491.657C237.472 492.57 242.875 496.222 238.861 500.179L236.083 499.266C237.627 497.592 237.627 496.07 235.002 494.548C232.378 493.027 229.137 492.722 226.204 493.635C223.734 494.396 220.647 495.918 219.103 497.744C217.714 499.57 218.794 501.244 220.801 502.461C223.116 503.831 226.512 504.287 230.217 502.765L231.915 504.439C227.593 505.961 222.962 505.961 218.949 503.678C217.096 502.613 216.016 501.548 215.553 500.483C214.781 497.744 217.714 495.157 220.183 493.787Z" fill="#1F825E"/>
<path d="M213.391 465.18L206.908 468.832L187.767 457.876L194.25 454.224L213.391 465.18Z" fill="#F0E0DC"/>
<path d="M305.392 506.57C306.164 507.026 307.244 508.091 307.09 509.004C307.09 509.765 306.627 510.678 305.392 511.439L258.465 538.069C219.411 515.852 180.357 493.635 141.303 471.419C192.398 442.354 188.539 444.333 190.237 444.028C192.398 443.572 194.713 443.724 196.72 444.789L305.392 506.57ZM262.788 500.483L281.929 511.439L288.258 507.787L269.117 496.831L262.788 500.483ZM256.15 517.069C251.828 519.504 252.136 522.243 255.069 523.917C258.928 526.199 262.633 523.613 258.774 525.743L260.781 526.808L278.07 516.917L275.909 515.7L269.734 519.2C270.66 516.156 263.251 513.113 256.15 517.069ZM255.224 509.461L242.72 516.613L244.881 517.83C251.982 513.874 252.136 513.569 254.298 512.961C256.15 512.352 258.465 512.809 258.928 514.33L261.707 513.569C261.09 512.2 259.855 511.591 258.465 511.439C257.694 511.287 256.767 511.439 255.378 511.743L257.231 510.678L255.224 509.461ZM237.781 486.331L256.922 497.287L263.251 493.635L244.11 482.679L237.781 486.331ZM231.76 506.57C229.754 507.787 229.599 509.461 232.532 510.983C234.539 512.2 236.7 512.504 239.016 512.504C238.552 512.809 238.089 513.265 237.935 513.569L240.096 514.787C240.559 513.722 241.485 513.265 244.727 511.439C245.653 510.983 248.74 509.309 249.358 508.7C250.438 507.787 250.284 507.026 249.667 506.113C248.74 504.896 245.808 503.526 244.11 503.07C241.948 502.461 240.096 502.613 237.935 503.374L239.787 504.744C240.868 504.439 241.948 504.287 242.72 504.287C244.11 504.439 247.042 505.657 247.197 507.026C247.197 507.787 245.962 508.396 245.344 508.7C243.029 508.091 240.405 506.722 238.552 506.113C235.62 505.504 233.304 505.809 231.76 506.57ZM232.224 504.287L230.526 502.613C226.821 503.983 223.425 503.526 221.109 502.309C219.257 501.244 218.022 499.418 219.411 497.592C220.801 495.766 224.042 494.244 226.512 493.483C229.445 492.722 232.687 493.027 235.311 494.396C237.781 495.766 237.935 497.44 236.391 499.113L239.17 500.026C243.183 496.07 237.781 492.418 232.224 491.505C228.364 490.896 224.197 491.505 220.492 493.635C218.022 495.005 215.089 497.592 216.17 500.179C216.633 501.244 217.713 502.309 219.566 503.374C223.27 505.809 227.901 505.809 232.224 504.287ZM199.344 471.875C199.035 470.658 197.8 470.049 196.72 469.44C194.404 468.223 193.633 467.614 190.237 465.788C189.002 465.18 187.921 464.419 186.686 463.81C185.76 463.202 184.834 462.593 183.753 462.289C182.364 461.832 180.357 461.68 178.814 461.984C176.498 462.441 174.337 463.81 172.176 465.18C169.243 467.006 169.397 466.854 167.854 467.614C165.693 468.984 165.693 470.658 167.082 471.875C167.699 472.484 176.961 477.505 178.814 478.723C180.975 479.94 181.747 480.549 184.216 480.701C188.847 481.005 191.471 478.114 196.565 475.527C197.492 475.071 198.881 474.31 199.344 473.245C199.344 472.788 199.344 472.332 199.344 471.875ZM206.908 468.832L213.237 465.18L194.096 454.224L187.767 457.876L206.908 468.832ZM238.398 479.331L219.257 468.375L212.928 472.027L232.069 482.983L238.398 479.331Z" fill="#36CF98"/>
<path d="M175.109 476.745C168.934 473.245 169.706 473.549 168.626 473.092C167.545 472.484 166.31 471.875 166.001 470.658C165.847 469.897 166.001 468.984 166.619 468.375C167.236 467.767 168.008 467.462 168.78 467.006C173.72 464.419 176.344 461.528 181.129 461.832C183.445 461.984 184.525 462.593 186.532 463.81C187.767 464.571 197.492 469.897 198.264 470.658C199.035 471.266 199.498 472.179 199.19 473.245C198.727 474.462 197.492 475.071 196.411 475.527C191.317 478.266 188.693 481.005 184.062 480.701C181.284 480.549 181.129 479.94 175.109 476.745Z" fill="#F3E187"/>
<path d="M122.317 487.244C119.847 485.875 120.001 483.592 122.317 482.375L124.478 481.157C124.787 481.157 123.243 480.397 241.64 547.807L239.479 549.025C238.09 549.785 235.62 550.394 232.996 549.785C231.143 549.481 238.553 553.438 122.317 487.244Z" fill="#36CF98"/>
<path d="M120.464 487.244C120.464 486.483 120.464 485.57 120.464 484.81C120.464 485.266 120.619 485.875 121.082 486.179C121.699 486.94 114.599 482.831 230.989 549.025C232.378 549.786 234.848 550.394 237.472 549.786C239.016 549.481 239.479 549.025 241.64 547.807C241.64 548.568 241.64 549.329 241.64 550.242L239.479 551.459C237.627 552.525 235.157 552.677 232.996 552.22C231.298 551.916 238.398 555.72 122.317 489.679C121.082 488.918 120.464 488.005 120.464 487.244Z" fill="#1F825E"/>
<defs>
<linearGradient id="paint0_linear_119_4014" x1="87.6762" y1="361.001" x2="638.917" y2="361.001" gradientUnits="userSpaceOnUse">
<stop stop-color="#5FACB1"/>
<stop offset="1" stop-color="#2B7C56"/>
</linearGradient>
</defs>
</svg>
