<svg width="480" height="1424" viewBox="0 0 480 1424" fill="none" xmlns="http://www.w3.org/2000/svg">
<path fill-rule="evenodd" clip-rule="evenodd" d="M478.419 65.4279C479.325 66.673 478.543 68.4315 477.012 68.5932L397.778 76.9599C396.247 77.1216 395.115 75.5652 395.74 74.1584L428.111 1.35654C428.737 -0.0502537 430.651 -0.252362 431.556 0.992758L478.419 65.4279ZM569.793 106.057C570.699 107.302 569.917 109.061 568.386 109.223L489.152 117.589C487.621 117.751 486.489 116.194 487.115 114.788L519.486 41.9858C520.111 40.5791 522.025 40.3769 522.931 41.6221L569.793 106.057ZM661.168 146.687C662.073 147.932 661.291 149.69 659.76 149.852L580.526 158.219C578.995 158.38 577.863 156.824 578.489 155.417L610.86 82.6152C611.486 81.2084 613.399 81.0063 614.305 82.2514L661.168 146.687ZM752.542 187.316C753.448 188.561 752.666 190.319 751.134 190.481L671.901 198.848C670.37 199.01 669.238 197.453 669.863 196.046L702.234 123.244C702.86 121.838 704.774 121.636 705.679 122.881L752.542 187.316ZM843.916 227.945C844.822 229.19 844.04 230.949 842.509 231.11L763.275 239.477C761.744 239.639 760.612 238.082 761.237 236.676L793.609 163.874C794.234 162.467 796.148 162.265 797.054 163.51L843.916 227.945ZM935.29 268.574C936.196 269.82 935.414 271.578 933.883 271.74L854.649 280.106C853.118 280.268 851.986 278.712 852.612 277.305L884.983 204.503C885.608 203.096 887.522 202.894 888.428 204.139L935.29 268.574ZM1026.66 309.204C1027.57 310.449 1026.79 312.207 1025.26 312.369L946.024 320.736C944.492 320.897 943.361 319.341 943.986 317.934L976.357 245.132C976.983 243.726 978.897 243.523 979.802 244.769L1026.66 309.204ZM1118.04 349.833C1118.94 351.078 1118.16 352.837 1116.63 352.998L1037.4 361.365C1035.87 361.527 1034.73 359.97 1035.36 358.564L1067.73 285.762C1068.36 284.355 1070.27 284.153 1071.18 285.398L1118.04 349.833ZM1063.81 471.785C1065.34 471.623 1066.13 469.865 1065.22 468.62L1018.36 404.184C1017.45 402.939 1015.54 403.141 1014.91 404.548L982.542 477.35C981.917 478.757 983.049 480.313 984.58 480.152L1063.81 471.785ZM1012.4 587.406C1013.31 588.651 1012.53 590.41 1011 590.571L931.762 598.938C930.231 599.1 929.099 597.543 929.724 596.137L962.095 523.335C962.721 521.928 964.635 521.726 965.54 522.971L1012.4 587.406ZM958.177 709.358C959.708 709.196 960.49 707.438 959.585 706.193L912.722 641.758C911.817 640.512 909.903 640.715 909.277 642.121L876.906 714.923C876.281 716.33 877.412 717.886 878.944 717.725L958.177 709.358ZM906.767 824.979C907.672 826.224 906.89 827.983 905.359 828.145L826.125 836.511C824.594 836.673 823.462 835.117 824.088 833.71L856.459 760.908C857.085 759.501 858.998 759.299 859.904 760.544L906.767 824.979ZM852.541 946.931C854.072 946.77 854.854 945.011 853.949 943.766L807.086 879.331C806.18 878.086 804.266 878.288 803.641 879.695L771.27 952.496C770.644 953.903 771.776 955.46 773.307 955.298L852.541 946.931ZM801.131 1062.55C802.036 1063.8 801.254 1065.56 799.723 1065.72L720.489 1074.08C718.958 1074.25 717.826 1072.69 718.452 1071.28L750.823 998.481C751.448 997.074 753.362 996.872 754.268 998.117L801.131 1062.55ZM746.905 1184.5C748.436 1184.34 749.218 1182.58 748.312 1181.34L701.45 1116.9C700.544 1115.66 698.63 1115.86 698.005 1117.27L665.634 1190.07C665.008 1191.48 666.14 1193.03 667.671 1192.87L746.905 1184.5ZM695.494 1300.13C696.4 1301.37 695.618 1303.13 694.087 1303.29L614.853 1311.66C613.322 1311.82 612.19 1310.26 612.816 1308.86L645.187 1236.05C645.812 1234.65 647.726 1234.45 648.632 1235.69L695.494 1300.13ZM641.269 1422.08C642.8 1421.92 643.582 1420.16 642.676 1418.91L595.814 1354.48C594.908 1353.23 592.994 1353.43 592.369 1354.84L559.997 1427.64C559.372 1429.05 560.504 1430.61 562.035 1430.44L641.269 1422.08ZM589.858 1537.7C590.764 1538.94 589.982 1540.7 588.451 1540.86L509.217 1549.23C507.686 1549.39 506.554 1547.84 507.179 1546.43L539.55 1473.63C540.176 1472.22 542.09 1472.02 542.995 1473.26L589.858 1537.7ZM535.632 1659.65C537.164 1659.49 537.946 1657.73 537.04 1656.49L490.177 1592.05C489.272 1590.81 487.358 1591.01 486.732 1592.41L454.361 1665.22C453.736 1666.62 454.868 1668.18 456.399 1668.02L535.632 1659.65ZM484.222 1775.27C485.127 1776.52 484.345 1778.28 482.814 1778.44L403.581 1786.8C402.05 1786.97 400.918 1785.41 401.543 1784L433.914 1711.2C434.54 1709.79 436.454 1709.59 437.359 1710.84L484.222 1775.27ZM431.404 1894.06C432.309 1895.3 431.527 1897.06 429.996 1897.22L350.762 1905.59C349.231 1905.75 348.099 1904.2 348.725 1902.79L381.096 1829.99C381.722 1828.58 383.636 1828.38 384.541 1829.62L431.404 1894.06ZM338.622 1856.59C340.153 1856.43 340.935 1854.67 340.03 1853.43L293.167 1788.99C292.261 1787.75 290.347 1787.95 289.722 1789.36L257.351 1862.16C256.725 1863.57 257.857 1865.12 259.388 1864.96L338.622 1856.59ZM392.848 1734.64C393.753 1735.89 392.971 1737.65 391.44 1737.81L312.206 1746.17C310.675 1746.34 309.543 1744.78 310.169 1743.37L342.54 1670.57C343.166 1669.16 345.079 1668.96 345.985 1670.21L392.848 1734.64ZM444.258 1619.02C445.789 1618.86 446.571 1617.1 445.666 1615.86L398.803 1551.42C397.897 1550.18 395.984 1550.38 395.358 1551.78L362.987 1624.59C362.361 1625.99 363.493 1627.55 365.024 1627.39L444.258 1619.02ZM498.484 1497.07C499.389 1498.31 498.607 1500.07 497.076 1500.23L417.843 1508.6C416.311 1508.76 415.179 1507.21 415.805 1505.8L448.176 1433C448.802 1431.59 450.716 1431.39 451.621 1432.63L498.484 1497.07ZM549.894 1381.45C551.426 1381.29 552.207 1379.53 551.302 1378.28L504.439 1313.85C503.534 1312.6 501.62 1312.8 500.994 1314.21L468.623 1387.01C467.998 1388.42 469.13 1389.98 470.661 1389.81L549.894 1381.45ZM604.12 1259.5C605.026 1260.74 604.244 1262.5 602.713 1262.66L523.479 1271.03C521.948 1271.19 520.816 1269.63 521.441 1268.23L553.812 1195.42C554.438 1194.02 556.352 1193.82 557.257 1195.06L604.12 1259.5ZM655.531 1143.88C657.062 1143.71 657.844 1141.95 656.938 1140.71L610.075 1076.27C609.17 1075.03 607.256 1075.23 606.63 1076.64L574.259 1149.44C573.634 1150.85 574.766 1152.4 576.297 1152.24L655.531 1143.88ZM709.756 1021.92C710.662 1023.17 709.88 1024.93 708.349 1025.09L629.115 1033.46C627.584 1033.62 626.452 1032.06 627.077 1030.65L659.449 957.852C660.074 956.445 661.988 956.243 662.894 957.488L709.756 1021.92ZM761.167 906.302C762.698 906.14 763.48 904.382 762.574 903.137L715.712 838.701C714.806 837.456 712.892 837.658 712.267 839.065L679.896 911.867C679.27 913.274 680.402 914.83 681.933 914.669L761.167 906.302ZM815.392 784.35C816.298 785.595 815.516 787.354 813.985 787.515L734.751 795.882C733.22 796.044 732.088 794.487 732.714 793.08L765.085 720.279C765.71 718.872 767.624 718.67 768.53 719.915L815.392 784.35ZM866.803 668.729C868.334 668.567 869.116 666.809 868.211 665.563L821.348 601.128C820.442 599.883 818.528 600.085 817.903 601.492L785.532 674.294C784.906 675.701 786.038 677.257 787.569 677.095L866.803 668.729ZM921.029 546.777C921.934 548.022 921.152 549.781 919.621 549.942L840.387 558.309C838.856 558.471 837.724 556.914 838.35 555.507L870.721 482.705C871.347 481.299 873.26 481.097 874.166 482.342L921.029 546.777ZM972.439 431.156C973.97 430.994 974.752 429.235 973.847 427.99L926.984 363.555C926.078 362.31 924.165 362.512 923.539 363.919L891.168 436.721C890.542 438.128 891.674 439.684 893.205 439.522L972.439 431.156ZM247.248 1815.97C248.779 1815.8 249.561 1814.04 248.655 1812.8L201.792 1748.36C200.887 1747.12 198.973 1747.32 198.348 1748.73L165.976 1821.53C165.351 1822.94 166.483 1824.49 168.014 1824.33L247.248 1815.97ZM301.473 1694.01C302.379 1695.26 301.597 1697.02 300.066 1697.18L220.832 1705.55C219.301 1705.71 218.169 1704.15 218.795 1702.74L251.166 1629.94C251.791 1628.54 253.705 1628.33 254.611 1629.58L301.473 1694.01ZM352.884 1578.39C354.415 1578.23 355.197 1576.47 354.291 1575.23L307.429 1510.79C306.523 1509.55 304.609 1509.75 303.984 1511.16L271.613 1583.96C270.987 1585.36 272.119 1586.92 273.65 1586.76L352.884 1578.39ZM407.109 1456.44C408.015 1457.69 407.233 1459.44 405.702 1459.61L326.468 1467.97C324.937 1468.13 323.805 1466.58 324.431 1465.17L356.802 1392.37C357.427 1390.96 359.341 1390.76 360.247 1392L407.109 1456.44ZM458.52 1340.82C460.051 1340.66 460.833 1338.9 459.928 1337.65L413.065 1273.22C412.159 1271.97 410.245 1272.18 409.62 1273.58L377.249 1346.38C376.623 1347.79 377.755 1349.35 379.286 1349.19L458.52 1340.82ZM512.746 1218.87C513.651 1220.11 512.869 1221.87 511.338 1222.03L432.104 1230.4C430.573 1230.56 429.441 1229 430.067 1227.6L462.438 1154.8C463.064 1153.39 464.977 1153.19 465.883 1154.43L512.746 1218.87ZM564.156 1103.25C565.687 1103.08 566.469 1101.33 565.564 1100.08L518.701 1035.65C517.796 1034.4 515.882 1034.6 515.256 1036.01L482.885 1108.81C482.26 1110.22 483.391 1111.77 484.923 1111.61L564.156 1103.25ZM618.382 981.294C619.287 982.539 618.506 984.297 616.975 984.459L537.741 992.826C536.21 992.988 535.078 991.431 535.703 990.024L568.074 917.222C568.7 915.816 570.614 915.614 571.519 916.859L618.382 981.294ZM669.793 865.673C671.324 865.511 672.106 863.752 671.2 862.507L624.337 798.072C623.432 796.827 621.518 797.029 620.892 798.436L588.521 871.238C587.896 872.645 589.028 874.201 590.559 874.039L669.793 865.673ZM724.018 743.721C724.924 744.966 724.142 746.724 722.611 746.886L643.377 755.253C641.846 755.414 640.714 753.858 641.339 752.451L673.71 679.649C674.336 678.243 676.25 678.04 677.155 679.286L724.018 743.721ZM775.429 628.099C776.96 627.938 777.742 626.179 776.836 624.934L729.974 560.499C729.068 559.254 727.154 559.456 726.529 560.863L694.158 633.665C693.532 635.071 694.664 636.628 696.195 636.466L775.429 628.099ZM829.654 506.148C830.56 507.393 829.778 509.151 828.247 509.313L749.013 517.68C747.482 517.841 746.35 516.285 746.976 514.878L779.347 442.076C779.972 440.669 781.886 440.467 782.792 441.712L829.654 506.148ZM881.065 390.526C882.596 390.365 883.378 388.606 882.472 387.361L835.61 322.926C834.704 321.681 832.79 321.883 832.165 323.29L799.794 396.091C799.168 397.498 800.3 399.055 801.831 398.893L881.065 390.526ZM155.873 1775.34C157.405 1775.17 158.186 1773.42 157.281 1772.17L110.418 1707.74C109.513 1706.49 107.599 1706.69 106.973 1708.1L74.6021 1780.9C73.9766 1782.31 75.1086 1783.86 76.6396 1783.7L155.873 1775.34ZM210.099 1653.38C211.005 1654.63 210.223 1656.39 208.692 1656.55L129.458 1664.92C127.927 1665.08 126.795 1663.52 127.42 1662.11L159.791 1589.31C160.417 1587.91 162.331 1587.7 163.236 1588.95L210.099 1653.38ZM261.51 1537.76C263.041 1537.6 263.823 1535.84 262.917 1534.6L216.054 1470.16C215.149 1468.92 213.235 1469.12 212.609 1470.53L180.238 1543.33C179.613 1544.73 180.745 1546.29 182.276 1546.13L261.51 1537.76ZM315.735 1415.81C316.641 1417.06 315.859 1418.81 314.328 1418.98L235.094 1427.34C233.563 1427.5 232.431 1425.95 233.056 1424.54L265.428 1351.74C266.053 1350.33 267.967 1350.13 268.873 1351.38L315.735 1415.81ZM367.146 1300.19C368.677 1300.03 369.459 1298.27 368.553 1297.02L321.691 1232.59C320.785 1231.34 318.871 1231.55 318.246 1232.95L285.875 1305.75C285.249 1307.16 286.381 1308.72 287.912 1308.56L367.146 1300.19ZM421.371 1178.24C422.277 1179.48 421.495 1181.24 419.964 1181.4L340.73 1189.77C339.199 1189.93 338.067 1188.37 338.693 1186.97L371.064 1114.17C371.689 1112.76 373.603 1112.56 374.509 1113.8L421.371 1178.24ZM472.782 1062.62C474.313 1062.45 475.095 1060.7 474.19 1059.45L427.327 995.016C426.421 993.771 424.507 993.973 423.882 995.38L391.511 1068.18C390.885 1069.59 392.017 1071.14 393.548 1070.98L472.782 1062.62ZM527.008 940.665C527.913 941.91 527.131 943.668 525.6 943.83L446.366 952.197C444.835 952.358 443.703 950.802 444.329 949.395L476.7 876.593C477.326 875.186 479.239 874.984 480.145 876.229L527.008 940.665ZM578.418 825.043C579.949 824.882 580.731 823.123 579.826 821.878L532.963 757.443C532.058 756.198 530.144 756.4 529.518 757.807L497.147 830.608C496.521 832.015 497.653 833.572 499.184 833.41L578.418 825.043ZM632.644 703.091C633.549 704.337 632.767 706.095 631.236 706.257L552.003 714.623C550.471 714.785 549.34 713.229 549.965 711.822L582.336 639.02C582.962 637.613 584.876 637.411 585.781 638.656L632.644 703.091ZM684.055 587.47C685.586 587.308 686.368 585.55 685.462 584.305L638.599 519.87C637.694 518.625 635.78 518.827 635.154 520.233L602.783 593.035C602.158 594.442 603.29 595.998 604.821 595.837L684.055 587.47ZM738.28 465.518C739.186 466.763 738.404 468.522 736.873 468.684L657.639 477.05C656.108 477.212 654.976 475.656 655.601 474.249L687.972 401.447C688.598 400.04 690.512 399.838 691.417 401.083L738.28 465.518ZM789.691 349.897C791.222 349.735 792.004 347.977 791.098 346.732L744.235 282.297C743.33 281.051 741.416 281.254 740.791 282.66L708.419 355.462C707.794 356.869 708.926 358.425 710.457 358.264L789.691 349.897ZM64.4992 1734.71C66.0303 1734.54 66.8122 1732.79 65.9066 1731.54L19.0439 1667.11C18.1383 1665.86 16.2245 1666.06 15.599 1667.47L-16.7721 1740.27C-17.3977 1741.68 -16.2657 1743.23 -14.7346 1743.07L64.4992 1734.71ZM118.725 1612.75C119.63 1614 118.848 1615.76 117.317 1615.92L38.0835 1624.29C36.5524 1624.45 35.4204 1622.89 36.046 1621.49L68.4171 1548.68C69.0426 1547.28 70.9565 1547.07 71.862 1548.32L118.725 1612.75ZM170.135 1497.13C171.666 1496.97 172.448 1495.21 171.543 1493.97L124.68 1429.53C123.775 1428.29 121.861 1428.49 121.235 1429.9L88.864 1502.7C88.2385 1504.11 89.3705 1505.66 90.9015 1505.5L170.135 1497.13ZM224.361 1375.18C225.267 1376.43 224.485 1378.19 222.953 1378.35L143.72 1386.71C142.189 1386.88 141.057 1385.32 141.682 1383.91L174.053 1311.11C174.679 1309.7 176.593 1309.5 177.498 1310.75L224.361 1375.18ZM275.772 1259.56C277.303 1259.4 278.085 1257.64 277.179 1256.39L230.316 1191.96C229.411 1190.71 227.497 1190.92 226.871 1192.32L194.5 1265.13C193.875 1266.53 195.007 1268.09 196.538 1267.93L275.772 1259.56ZM329.997 1137.61C330.903 1138.85 330.121 1140.61 328.59 1140.77L249.356 1149.14C247.825 1149.3 246.693 1147.75 247.318 1146.34L279.69 1073.54C280.315 1072.13 282.229 1071.93 283.134 1073.17L329.997 1137.61ZM381.408 1021.99C382.939 1021.83 383.721 1020.07 382.815 1018.82L335.953 954.387C335.047 953.142 333.133 953.344 332.508 954.75L300.137 1027.55C299.511 1028.96 300.643 1030.52 302.174 1030.35L381.408 1021.99ZM435.633 900.035C436.539 901.28 435.757 903.039 434.226 903.201L354.992 911.567C353.461 911.729 352.329 910.172 352.955 908.766L385.326 835.964C385.951 834.557 387.865 834.355 388.771 835.6L435.633 900.035ZM487.044 784.414C488.575 784.252 489.357 782.494 488.451 781.249L441.589 716.813C440.683 715.568 438.769 715.77 438.144 717.177L405.773 789.979C405.147 791.386 406.279 792.942 407.81 792.781L487.044 784.414ZM541.27 662.462C542.175 663.707 541.393 665.466 539.862 665.627L460.628 673.994C459.097 674.156 457.965 672.599 458.591 671.193L490.962 598.391C491.587 596.984 493.501 596.782 494.407 598.027L541.27 662.462ZM592.68 546.841C594.211 546.679 594.993 544.921 594.088 543.676L547.225 479.24C546.319 477.995 544.406 478.197 543.78 479.604L511.409 552.406C510.783 553.813 511.915 555.369 513.446 555.208L592.68 546.841ZM646.906 424.889C647.811 426.134 647.029 427.893 645.498 428.054L566.264 436.421C564.733 436.583 563.601 435.026 564.227 433.619L596.598 360.818C597.224 359.411 599.138 359.209 600.043 360.454L646.906 424.889ZM698.316 309.268C699.848 309.106 700.629 307.348 699.724 306.102L652.861 241.667C651.956 240.422 650.042 240.624 649.416 242.031L617.045 314.833C616.42 316.24 617.552 317.796 619.083 317.634L698.316 309.268ZM-26.8751 1694.08C-25.344 1693.92 -24.5621 1692.16 -25.4676 1690.91L-72.3303 1626.48C-73.2359 1625.23 -75.1498 1625.43 -75.7753 1626.84L-108.146 1699.64C-108.772 1701.05 -107.64 1702.61 -106.109 1702.44L-26.8751 1694.08ZM27.3504 1572.13C28.256 1573.37 27.4741 1575.13 25.943 1575.29L-53.2908 1583.66C-54.8219 1583.82 -55.9539 1582.26 -55.3283 1580.86L-22.9572 1508.05C-22.3317 1506.65 -20.4178 1506.45 -19.5123 1507.69L27.3504 1572.13ZM78.7611 1456.5C80.2922 1456.34 81.0741 1454.58 80.1685 1453.34L33.3059 1388.9C32.4003 1387.66 30.4864 1387.86 29.8609 1389.27L-2.51023 1462.07C-3.13574 1463.48 -2.00378 1465.03 -0.472726 1464.87L78.7611 1456.5ZM132.987 1334.55C133.892 1335.8 133.11 1337.56 131.579 1337.72L52.3454 1346.08C50.8143 1346.25 49.6824 1344.69 50.3079 1343.28L82.679 1270.48C83.3045 1269.07 85.2184 1268.87 86.124 1270.12L132.987 1334.55ZM184.397 1218.93C185.928 1218.77 186.71 1217.01 185.805 1215.77L138.942 1151.33C138.037 1150.09 136.123 1150.29 135.497 1151.69L103.126 1224.5C102.5 1225.9 103.632 1227.46 105.163 1227.3L184.397 1218.93ZM238.623 1096.98C239.528 1098.22 238.747 1099.98 237.215 1100.14L157.982 1108.51C156.451 1108.67 155.319 1107.12 155.944 1105.71L188.315 1032.91C188.941 1031.5 190.855 1031.3 191.76 1032.54L238.623 1096.98ZM290.034 981.358C291.565 981.196 292.347 979.438 291.441 978.193L244.578 913.757C243.673 912.512 241.759 912.714 241.133 914.121L208.762 986.923C208.137 988.33 209.269 989.886 210.8 989.724L290.034 981.358ZM344.259 859.406C345.165 860.651 344.383 862.41 342.852 862.571L263.618 870.938C262.087 871.1 260.955 869.543 261.58 868.136L293.951 795.335C294.577 793.928 296.491 793.726 297.396 794.971L344.259 859.406ZM395.67 743.785C397.201 743.623 397.983 741.864 397.077 740.619L350.214 676.184C349.309 674.939 347.395 675.141 346.77 676.548L314.398 749.35C313.773 750.757 314.905 752.313 316.436 752.151L395.67 743.785ZM449.895 621.833C450.801 623.078 450.019 624.836 448.488 624.998L369.254 633.365C367.723 633.526 366.591 631.97 367.217 630.563L399.588 557.761C400.213 556.355 402.127 556.152 403.033 557.398L449.895 621.833ZM501.306 506.212C502.837 506.05 503.619 504.291 502.713 503.046L455.851 438.611C454.945 437.366 453.031 437.568 452.406 438.975L420.035 511.777C419.409 513.183 420.541 514.74 422.072 514.578L501.306 506.212ZM555.531 384.26C556.437 385.505 555.655 387.263 554.124 387.425L474.89 395.792C473.359 395.953 472.227 394.397 472.853 392.99L505.224 320.188C505.849 318.781 507.763 318.579 508.669 319.825L555.531 384.26ZM606.942 268.638C608.473 268.477 609.255 266.718 608.35 265.473L561.487 201.038C560.581 199.793 558.667 199.995 558.042 201.402L525.671 274.204C525.045 275.61 526.177 277.167 527.708 277.005L606.942 268.638ZM-118.249 1653.45C-116.718 1653.29 -115.936 1651.53 -116.842 1650.28L-163.705 1585.85C-164.61 1584.6 -166.524 1584.8 -167.15 1586.21L-199.521 1659.01C-200.146 1660.42 -199.014 1661.98 -197.483 1661.81L-118.249 1653.45ZM-64.0238 1531.5C-63.1183 1532.74 -63.9002 1534.5 -65.4313 1534.66L-144.665 1543.03C-146.196 1543.19 -147.328 1541.63 -146.703 1540.23L-114.331 1467.42C-113.706 1466.02 -111.792 1465.82 -110.887 1467.06L-64.0238 1531.5ZM-12.6132 1415.87C-11.0821 1415.71 -10.3002 1413.95 -11.2057 1412.71L-58.0684 1348.27C-58.974 1347.03 -60.8878 1347.23 -61.5134 1348.64L-93.8845 1421.44C-94.51 1422.85 -93.3781 1424.4 -91.847 1424.24L-12.6132 1415.87ZM41.6124 1293.92C42.5179 1295.17 41.736 1296.93 40.2049 1297.09L-39.0289 1305.45C-40.56 1305.62 -41.6919 1304.06 -41.0664 1302.65L-8.69526 1229.85C-8.06973 1228.44 -6.15588 1228.24 -5.25032 1229.49L41.6124 1293.92ZM93.023 1178.3C94.5541 1178.14 95.336 1176.38 94.4304 1175.14L47.5678 1110.7C46.6622 1109.46 44.7484 1109.66 44.1228 1111.06L11.7517 1183.87C11.1262 1185.27 12.2581 1186.83 13.7892 1186.67L93.023 1178.3ZM147.249 1056.35C148.154 1057.59 147.372 1059.35 145.841 1059.52L66.6073 1067.88C65.0762 1068.04 63.9443 1066.49 64.5698 1065.08L96.9409 992.278C97.5665 990.872 99.4803 990.669 100.386 991.915L147.249 1056.35ZM198.659 940.728C200.19 940.567 200.972 938.808 200.067 937.563L153.204 873.128C152.298 871.883 150.385 872.085 149.759 873.492L117.388 946.294C116.762 947.7 117.894 949.257 119.425 949.095L198.659 940.728ZM252.885 818.777C253.79 820.022 253.008 821.78 251.477 821.942L172.244 830.309C170.712 830.47 169.58 828.914 170.206 827.507L202.577 754.705C203.203 753.298 205.117 753.096 206.022 754.341L252.885 818.777ZM304.295 703.155C305.827 702.994 306.608 701.235 305.703 699.99L258.84 635.555C257.935 634.31 256.021 634.512 255.395 635.919L223.024 708.72C222.399 710.127 223.531 711.684 225.062 711.522L304.295 703.155ZM358.521 581.203C359.427 582.449 358.645 584.207 357.114 584.369L277.88 592.735C276.349 592.897 275.217 591.341 275.842 589.934L308.213 517.132C308.839 515.725 310.753 515.523 311.658 516.768L358.521 581.203ZM409.932 465.582C411.463 465.421 412.245 463.662 411.339 462.417L364.476 397.982C363.571 396.737 361.657 396.939 361.031 398.346L328.66 471.147C328.035 472.554 329.167 474.111 330.698 473.949L409.932 465.582ZM464.157 343.63C465.063 344.875 464.281 346.634 462.75 346.796L383.516 355.162C381.985 355.324 380.853 353.768 381.478 352.361L413.85 279.559C414.475 278.152 416.389 277.95 417.295 279.195L464.157 343.63ZM515.568 228.009C517.099 227.847 517.881 226.089 516.975 224.844L470.113 160.409C469.207 159.164 467.293 159.366 466.668 160.772L434.297 233.574C433.671 234.981 434.803 236.537 436.334 236.376L515.568 228.009ZM-209.624 1612.82C-208.093 1612.66 -207.311 1610.9 -208.216 1609.65L-255.079 1545.22C-255.984 1543.97 -257.898 1544.18 -258.524 1545.58L-290.895 1618.38C-291.521 1619.79 -290.389 1621.35 -288.857 1621.19L-209.624 1612.82ZM-155.398 1490.87C-154.493 1492.11 -155.274 1493.87 -156.806 1494.03L-236.039 1502.4C-237.57 1502.56 -238.702 1501 -238.077 1499.6L-205.706 1426.8C-205.08 1425.39 -203.166 1425.19 -202.261 1426.43L-155.398 1490.87ZM-103.987 1375.25C-102.456 1375.08 -101.674 1373.33 -102.58 1372.08L-149.443 1307.64C-150.348 1306.4 -152.262 1306.6 -152.888 1308.01L-185.259 1380.81C-185.884 1382.22 -184.752 1383.77 -183.221 1383.61L-103.987 1375.25ZM-49.7619 1253.29C-48.8564 1254.54 -49.6383 1256.3 -51.1694 1256.46L-130.403 1264.83C-131.934 1264.99 -133.066 1263.43 -132.441 1262.02L-100.07 1189.22C-99.444 1187.82 -97.5302 1187.61 -96.6246 1188.86L-49.7619 1253.29ZM1.64874 1137.67C3.17983 1137.51 3.96174 1135.75 3.05618 1134.51L-43.8065 1070.07C-44.7121 1068.83 -46.6259 1069.03 -47.2514 1070.44L-79.6226 1143.24C-80.2481 1144.64 -79.1162 1146.2 -77.5851 1146.04L1.64874 1137.67ZM55.8743 1015.72C56.7798 1016.97 55.9979 1018.72 54.4668 1018.89L-24.767 1027.25C-26.2981 1027.41 -27.43 1025.86 -26.8045 1024.45L5.56666 951.649C6.19219 950.242 8.10605 950.04 9.01161 951.285L55.8743 1015.72ZM107.285 900.099C108.816 899.937 109.598 898.179 108.692 896.934L61.8297 832.499C60.9242 831.254 59.0103 831.456 58.3848 832.862L26.0136 905.664C25.3881 907.071 26.52 908.628 28.0511 908.466L107.285 900.099ZM161.511 778.147C162.416 779.392 161.634 781.151 160.103 781.313L80.8693 789.679C79.3382 789.841 78.2062 788.285 78.8318 786.878L111.203 714.076C111.828 712.669 113.742 712.467 114.648 713.712L161.511 778.147ZM212.921 662.526C214.452 662.364 215.234 660.606 214.329 659.361L167.466 594.926C166.56 593.68 164.647 593.883 164.021 595.289L131.65 668.091C131.024 669.498 132.156 671.054 133.687 670.893L212.921 662.526ZM267.147 540.574C268.052 541.819 267.27 543.578 265.739 543.739L186.505 552.106C184.974 552.268 183.842 550.711 184.468 549.305L216.839 476.503C217.465 475.096 219.378 474.894 220.284 476.139L267.147 540.574ZM318.557 424.953C320.088 424.791 320.87 423.033 319.965 421.788L273.102 357.352C272.197 356.107 270.283 356.309 269.657 357.716L237.286 430.518C236.661 431.925 237.792 433.481 239.324 433.32L318.557 424.953ZM372.783 303.001C373.689 304.246 372.907 306.005 371.375 306.166L292.142 314.533C290.611 314.695 289.479 313.138 290.104 311.732L322.475 238.93C323.101 237.523 325.015 237.321 325.92 238.566L372.783 303.001ZM424.194 187.38C425.725 187.218 426.507 185.46 425.601 184.214L378.738 119.779C377.833 118.534 375.919 118.736 375.293 120.143L342.922 192.945C342.297 194.352 343.429 195.908 344.96 195.746L424.194 187.38Z" fill="url(#paint0_linear_181_5267)"/>
<defs>
<linearGradient id="paint0_linear_181_5267" x1="-208.232" y1="478.227" x2="826.977" y2="777.17" gradientUnits="userSpaceOnUse">
<stop offset="0.402872" stop-color="#020E0C"/>
<stop offset="0.675989" stop-color="#1A6358"/>
<stop offset="1" stop-color="#99FFF0"/>
</linearGradient>
</defs>
</svg>
